%TF.GenerationSoftware,KiCad,Pcbnew,(6.0.9-0)*%
%TF.CreationDate,2022-12-29T18:14:32+01:00*%
%TF.ProjectId,beamer,6265616d-6572-42e6-9b69-6361645f7063,v1.0.0*%
%TF.SameCoordinates,Original*%
%TF.FileFunction,Copper,L2,Bot*%
%TF.FilePolarity,Positive*%
%FSLAX46Y46*%
G04 Gerber Fmt 4.6, Leading zero omitted, Abs format (unit mm)*
G04 Created by KiCad (PCBNEW (6.0.9-0)) date 2022-12-29 18:14:32*
%MOMM*%
%LPD*%
G01*
G04 APERTURE LIST*
G04 Aperture macros list*
%AMRotRect*
0 Rectangle, with rotation*
0 The origin of the aperture is its center*
0 $1 length*
0 $2 width*
0 $3 Rotation angle, in degrees counterclockwise*
0 Add horizontal line*
21,1,$1,$2,0,0,$3*%
%AMFreePoly0*
4,1,5,0.125000,-0.500000,-0.125000,-0.500000,-0.125000,0.500000,0.125000,0.500000,0.125000,-0.500000,0.125000,-0.500000,$1*%
%AMFreePoly1*
4,1,6,0.600000,-0.250000,-0.600000,-0.250000,-0.600000,1.000000,0.000000,0.400000,0.600000,1.000000,0.600000,-0.250000,0.600000,-0.250000,$1*%
%AMFreePoly2*
4,1,6,0.600000,0.200000,0.000000,-0.400000,-0.600000,0.200000,-0.600000,0.400000,0.600000,0.400000,0.600000,0.200000,0.600000,0.200000,$1*%
%AMFreePoly3*
4,1,49,0.004773,0.123721,0.009154,0.124665,0.028961,0.117240,0.062500,0.108253,0.068237,0.102516,0.075053,0.099961,0.087617,0.083136,0.108253,0.062500,0.111178,0.051584,0.117161,0.043572,0.118539,0.024114,0.125000,0.000000,0.121239,-0.014035,0.122131,-0.026629,0.113759,-0.041951,0.108253,-0.062500,0.095644,-0.075109,0.088389,-0.088388,-0.641000,-0.817776,-0.641000,-4.770224,
0.088389,-5.499612,0.109852,-5.528356,0.124665,-5.597154,0.099961,-5.663053,0.043572,-5.705161,-0.026629,-5.710131,-0.088388,-5.676389,-0.854388,-4.910388,-0.867707,-4.892552,-0.871189,-4.889530,-0.871982,-4.886826,-0.875852,-4.881644,-0.882331,-4.851549,-0.891000,-4.822000,-0.891000,-0.766000,-0.887805,-0.743969,-0.888131,-0.739371,-0.886780,-0.736898,-0.885852,-0.730498,-0.869151,-0.704632,
-0.854388,-0.677612,-0.088388,0.088389,-0.064606,0.106147,-0.062500,0.108253,-0.061385,0.108552,-0.059644,0.109852,-0.043806,0.113262,0.000000,0.125000,0.004773,0.123721,0.004773,0.123721,$1*%
G04 Aperture macros list end*
%TA.AperFunction,SMDPad,CuDef*%
%ADD10R,2.600000X2.600000*%
%TD*%
%TA.AperFunction,ComponentPad*%
%ADD11R,0.900000X1.200000*%
%TD*%
%TA.AperFunction,ComponentPad*%
%ADD12C,0.600000*%
%TD*%
%TA.AperFunction,SMDPad,CuDef*%
%ADD13RotRect,2.600000X2.600000X10.000000*%
%TD*%
%TA.AperFunction,SMDPad,CuDef*%
%ADD14RotRect,2.600000X2.600000X70.000000*%
%TD*%
%TA.AperFunction,ComponentPad*%
%ADD15C,1.600000*%
%TD*%
%TA.AperFunction,ComponentPad*%
%ADD16R,1.600000X1.600000*%
%TD*%
%TA.AperFunction,SMDPad,CuDef*%
%ADD17FreePoly0,90.000000*%
%TD*%
%TA.AperFunction,SMDPad,CuDef*%
%ADD18FreePoly1,90.000000*%
%TD*%
%TA.AperFunction,SMDPad,CuDef*%
%ADD19FreePoly2,90.000000*%
%TD*%
%TA.AperFunction,SMDPad,CuDef*%
%ADD20FreePoly0,270.000000*%
%TD*%
%TA.AperFunction,SMDPad,CuDef*%
%ADD21FreePoly2,270.000000*%
%TD*%
%TA.AperFunction,SMDPad,CuDef*%
%ADD22FreePoly1,270.000000*%
%TD*%
%TA.AperFunction,SMDPad,CuDef*%
%ADD23FreePoly3,90.000000*%
%TD*%
%TA.AperFunction,SMDPad,CuDef*%
%ADD24FreePoly3,270.000000*%
%TD*%
%TA.AperFunction,ComponentPad*%
%ADD25C,0.800000*%
%TD*%
%TA.AperFunction,ComponentPad*%
%ADD26O,1.700000X1.700000*%
%TD*%
%TA.AperFunction,SMDPad,CuDef*%
%ADD27FreePoly2,0.000000*%
%TD*%
%TA.AperFunction,SMDPad,CuDef*%
%ADD28FreePoly1,0.000000*%
%TD*%
%TA.AperFunction,SMDPad,CuDef*%
%ADD29R,0.700000X1.500000*%
%TD*%
%TA.AperFunction,SMDPad,CuDef*%
%ADD30R,1.000000X0.800000*%
%TD*%
%TA.AperFunction,SMDPad,CuDef*%
%ADD31R,0.900000X1.700000*%
%TD*%
%TA.AperFunction,ComponentPad*%
%ADD32C,1.000000*%
%TD*%
%TA.AperFunction,ViaPad*%
%ADD33C,0.800000*%
%TD*%
%TA.AperFunction,Conductor*%
%ADD34C,0.250000*%
%TD*%
G04 APERTURE END LIST*
%TO.C,*%
G36*
X188774602Y-155852910D02*
G01*
X188943645Y-155853022D01*
X189127776Y-155853197D01*
X189327678Y-155853418D01*
X189544031Y-155853672D01*
X189777518Y-155853943D01*
X189910370Y-155854090D01*
X192157917Y-155856521D01*
X192217008Y-155876646D01*
X192257691Y-155892716D01*
X192300443Y-155912988D01*
X192326099Y-155927213D01*
X192338310Y-155935821D01*
X192363859Y-155954783D01*
X192401720Y-155983307D01*
X192450866Y-156020602D01*
X192510271Y-156065875D01*
X192578909Y-156118334D01*
X192655753Y-156177188D01*
X192739777Y-156241643D01*
X192829955Y-156310908D01*
X192925260Y-156384192D01*
X193024667Y-156460701D01*
X193127149Y-156539643D01*
X193231679Y-156620228D01*
X193337231Y-156701661D01*
X193442779Y-156783153D01*
X193547297Y-156863909D01*
X193649758Y-156943139D01*
X193749136Y-157020050D01*
X193844405Y-157093850D01*
X193934538Y-157163748D01*
X194018510Y-157228950D01*
X194095293Y-157288665D01*
X194163862Y-157342101D01*
X194223189Y-157388465D01*
X194272250Y-157426967D01*
X194310017Y-157456812D01*
X194335465Y-157477210D01*
X194347386Y-157487201D01*
X194381735Y-157530547D01*
X194403777Y-157583051D01*
X194412655Y-157639877D01*
X194407509Y-157696188D01*
X194392032Y-157738960D01*
X194365590Y-157777916D01*
X194330512Y-157813204D01*
X194292297Y-157839944D01*
X194265379Y-157851320D01*
X194255439Y-157852148D01*
X194231601Y-157852934D01*
X194193678Y-157853679D01*
X194141483Y-157854384D01*
X194074828Y-157855049D01*
X193993525Y-157855674D01*
X193897387Y-157856260D01*
X193786226Y-157856808D01*
X193659855Y-157857317D01*
X193518086Y-157857788D01*
X193360732Y-157858221D01*
X193187605Y-157858617D01*
X192998517Y-157858976D01*
X192793281Y-157859299D01*
X192571710Y-157859586D01*
X192333615Y-157859837D01*
X192078810Y-157860053D01*
X191807107Y-157860234D01*
X191518318Y-157860381D01*
X191212255Y-157860494D01*
X190888732Y-157860573D01*
X190547561Y-157860619D01*
X190188553Y-157860632D01*
X189871554Y-157860617D01*
X189529528Y-157860584D01*
X189205233Y-157860539D01*
X188898214Y-157860481D01*
X188608019Y-157860408D01*
X188334197Y-157860320D01*
X188076294Y-157860216D01*
X187833858Y-157860092D01*
X187606436Y-157859950D01*
X187393577Y-157859786D01*
X187194827Y-157859600D01*
X187009735Y-157859390D01*
X186837847Y-157859156D01*
X186678712Y-157858895D01*
X186531876Y-157858607D01*
X186396887Y-157858290D01*
X186273294Y-157857942D01*
X186160643Y-157857563D01*
X186058481Y-157857152D01*
X185966358Y-157856705D01*
X185883819Y-157856224D01*
X185810413Y-157855705D01*
X185745686Y-157855149D01*
X185689188Y-157854552D01*
X185640464Y-157853915D01*
X185599064Y-157853236D01*
X185564533Y-157852513D01*
X185536420Y-157851745D01*
X185514273Y-157850931D01*
X185497638Y-157850070D01*
X185486064Y-157849160D01*
X185479098Y-157848199D01*
X185477233Y-157847711D01*
X185427416Y-157821076D01*
X185388223Y-157782472D01*
X185360305Y-157735133D01*
X185344312Y-157682292D01*
X185340893Y-157627181D01*
X185350697Y-157573034D01*
X185374376Y-157523083D01*
X185404812Y-157487327D01*
X185415015Y-157479013D01*
X185438781Y-157460276D01*
X185475258Y-157431775D01*
X185523595Y-157394170D01*
X185582939Y-157348118D01*
X185652439Y-157294279D01*
X185731243Y-157233311D01*
X185818499Y-157165873D01*
X185913355Y-157092624D01*
X186014961Y-157014223D01*
X186122463Y-156931329D01*
X186235010Y-156844599D01*
X186351751Y-156754694D01*
X186421552Y-156700964D01*
X186566701Y-156589371D01*
X186702899Y-156484898D01*
X186829670Y-156387903D01*
X186946539Y-156298745D01*
X187053030Y-156217782D01*
X187148667Y-156145375D01*
X187232975Y-156081881D01*
X187305478Y-156027659D01*
X187365701Y-155983069D01*
X187413167Y-155948469D01*
X187447403Y-155924217D01*
X187467931Y-155910674D01*
X187471552Y-155908648D01*
X187482997Y-155902683D01*
X187493168Y-155897147D01*
X187502747Y-155892024D01*
X187512416Y-155887299D01*
X187522857Y-155882956D01*
X187534752Y-155878982D01*
X187548782Y-155875360D01*
X187565629Y-155872074D01*
X187585975Y-155869111D01*
X187610502Y-155866454D01*
X187639891Y-155864089D01*
X187674823Y-155862000D01*
X187715982Y-155860171D01*
X187764048Y-155858588D01*
X187819703Y-155857236D01*
X187883629Y-155856098D01*
X187956508Y-155855160D01*
X188039021Y-155854407D01*
X188131851Y-155853823D01*
X188235678Y-155853394D01*
X188351185Y-155853103D01*
X188479054Y-155852935D01*
X188619966Y-155852876D01*
X188774602Y-155852910D01*
G37*
G36*
X192215606Y-158287686D02*
G01*
X192293061Y-158288094D01*
X192371969Y-158288686D01*
X192450240Y-158289446D01*
X192525783Y-158290360D01*
X192596507Y-158291412D01*
X192660322Y-158292586D01*
X192715136Y-158293868D01*
X192758859Y-158295240D01*
X192789401Y-158296689D01*
X192803975Y-158298060D01*
X192823157Y-158301745D01*
X192841527Y-158306063D01*
X192860027Y-158311670D01*
X192879600Y-158319220D01*
X192901190Y-158329368D01*
X192925740Y-158342768D01*
X192954191Y-158360075D01*
X192987489Y-158381943D01*
X193026575Y-158409028D01*
X193072392Y-158441983D01*
X193125884Y-158481464D01*
X193187994Y-158528125D01*
X193259665Y-158582621D01*
X193341839Y-158645606D01*
X193435460Y-158717736D01*
X193541471Y-158799664D01*
X193660815Y-158892046D01*
X193671160Y-158900057D01*
X193787339Y-158990065D01*
X193889984Y-159069679D01*
X193979959Y-159139604D01*
X194058133Y-159200544D01*
X194125372Y-159253203D01*
X194182543Y-159298286D01*
X194230512Y-159336496D01*
X194270146Y-159368538D01*
X194302313Y-159395117D01*
X194327879Y-159416936D01*
X194347710Y-159434700D01*
X194362674Y-159449112D01*
X194373637Y-159460878D01*
X194381466Y-159470701D01*
X194387028Y-159479285D01*
X194389342Y-159483551D01*
X194408939Y-159540485D01*
X194412158Y-159599112D01*
X194399936Y-159656007D01*
X194373210Y-159707744D01*
X194332916Y-159750897D01*
X194312211Y-159765612D01*
X194268434Y-159792885D01*
X189884722Y-159795186D01*
X185501009Y-159797486D01*
X185452191Y-159772064D01*
X185404428Y-159737650D01*
X185369215Y-159692525D01*
X185347363Y-159639864D01*
X185339686Y-159582842D01*
X185346997Y-159524634D01*
X185370108Y-159468416D01*
X185373145Y-159463311D01*
X185383068Y-159453238D01*
X185406248Y-159433092D01*
X185441471Y-159403813D01*
X185487528Y-159366341D01*
X185543206Y-159321615D01*
X185607294Y-159270577D01*
X185678582Y-159214165D01*
X185755856Y-159153319D01*
X185837907Y-159088980D01*
X185923522Y-159022088D01*
X186011490Y-158953581D01*
X186100601Y-158884401D01*
X186189642Y-158815487D01*
X186277402Y-158747779D01*
X186362670Y-158682217D01*
X186444234Y-158619741D01*
X186520884Y-158561291D01*
X186591407Y-158507807D01*
X186654593Y-158460228D01*
X186709229Y-158419495D01*
X186754105Y-158386547D01*
X186788010Y-158362325D01*
X186809731Y-158347768D01*
X186814321Y-158345082D01*
X186837761Y-158332929D01*
X186860197Y-158322654D01*
X186883344Y-158314100D01*
X186908916Y-158307108D01*
X186938625Y-158301521D01*
X186974185Y-158297181D01*
X187017309Y-158293931D01*
X187069712Y-158291613D01*
X187133106Y-158290070D01*
X187209204Y-158289143D01*
X187299721Y-158288675D01*
X187406370Y-158288508D01*
X187429344Y-158288497D01*
X187533081Y-158288549D01*
X187619901Y-158288807D01*
X187691067Y-158289305D01*
X187747844Y-158290076D01*
X187791496Y-158291152D01*
X187823286Y-158292567D01*
X187844478Y-158294354D01*
X187856337Y-158296546D01*
X187860126Y-158299175D01*
X187860032Y-158299744D01*
X187818521Y-158423444D01*
X187783831Y-158558398D01*
X187757105Y-158698588D01*
X187739488Y-158837994D01*
X187732122Y-158970597D01*
X187732091Y-158972849D01*
X187730644Y-159083794D01*
X192021554Y-159083794D01*
X192019839Y-158968258D01*
X192011798Y-158828467D01*
X191992451Y-158682176D01*
X191962980Y-158536097D01*
X191924570Y-158396943D01*
X191912929Y-158361747D01*
X191902023Y-158329659D01*
X191893872Y-158305011D01*
X191889906Y-158292146D01*
X191889735Y-158291293D01*
X191898477Y-158289977D01*
X191923306Y-158288954D01*
X191962134Y-158288208D01*
X192012868Y-158287724D01*
X192073419Y-158287486D01*
X192141695Y-158287478D01*
X192215606Y-158287686D01*
G37*
G36*
X192202347Y-160225020D02*
G01*
X192324483Y-160225166D01*
X192429941Y-160225520D01*
X192520223Y-160226190D01*
X192596833Y-160227286D01*
X192661275Y-160228918D01*
X192715051Y-160231194D01*
X192759664Y-160234224D01*
X192796617Y-160238117D01*
X192827415Y-160242982D01*
X192853559Y-160248929D01*
X192876554Y-160256066D01*
X192897901Y-160264504D01*
X192919105Y-160274351D01*
X192925651Y-160277590D01*
X192948671Y-160291076D01*
X192983075Y-160313825D01*
X193025995Y-160343811D01*
X193074560Y-160379010D01*
X193125900Y-160417397D01*
X193150799Y-160436446D01*
X193319409Y-160566542D01*
X193473940Y-160685929D01*
X193614780Y-160794914D01*
X193742315Y-160893801D01*
X193856934Y-160982895D01*
X193959025Y-161062501D01*
X194048975Y-161132925D01*
X194127171Y-161194471D01*
X194194003Y-161247444D01*
X194249856Y-161292149D01*
X194295120Y-161328891D01*
X194330182Y-161357975D01*
X194355429Y-161379706D01*
X194371249Y-161394390D01*
X194377450Y-161401371D01*
X194392929Y-161430766D01*
X194405984Y-161466687D01*
X194409819Y-161481845D01*
X194413150Y-161539797D01*
X194400358Y-161595912D01*
X194373437Y-161646867D01*
X194334385Y-161689335D01*
X194285199Y-161719991D01*
X194261654Y-161728647D01*
X194256738Y-161729753D01*
X194249324Y-161730801D01*
X194238934Y-161731791D01*
X194225092Y-161732726D01*
X194207323Y-161733607D01*
X194185148Y-161734435D01*
X194158092Y-161735212D01*
X194125678Y-161735940D01*
X194087430Y-161736619D01*
X194042871Y-161737251D01*
X193991524Y-161737838D01*
X193932913Y-161738382D01*
X193866562Y-161738883D01*
X193791994Y-161739343D01*
X193708732Y-161739764D01*
X193616299Y-161740147D01*
X193514220Y-161740493D01*
X193402018Y-161740805D01*
X193279216Y-161741083D01*
X193145338Y-161741330D01*
X192999907Y-161741545D01*
X192842446Y-161741732D01*
X192672480Y-161741891D01*
X192489531Y-161742024D01*
X192293123Y-161742133D01*
X192082779Y-161742218D01*
X191858023Y-161742282D01*
X191618379Y-161742326D01*
X191363370Y-161742351D01*
X191092519Y-161742359D01*
X190805349Y-161742351D01*
X190501385Y-161742329D01*
X190180150Y-161742294D01*
X189872176Y-161742252D01*
X189533423Y-161742198D01*
X189212382Y-161742135D01*
X188908586Y-161742064D01*
X188621563Y-161741981D01*
X188350846Y-161741886D01*
X188095966Y-161741776D01*
X187856453Y-161741651D01*
X187631838Y-161741509D01*
X187421652Y-161741349D01*
X187225427Y-161741168D01*
X187042692Y-161740966D01*
X186872979Y-161740741D01*
X186715819Y-161740491D01*
X186570743Y-161740215D01*
X186437281Y-161739911D01*
X186314965Y-161739578D01*
X186203326Y-161739215D01*
X186101894Y-161738819D01*
X186010200Y-161738390D01*
X185927776Y-161737925D01*
X185854151Y-161737424D01*
X185788858Y-161736884D01*
X185731427Y-161736305D01*
X185681388Y-161735685D01*
X185638274Y-161735021D01*
X185601614Y-161734314D01*
X185570940Y-161733561D01*
X185545782Y-161732760D01*
X185525672Y-161731911D01*
X185510141Y-161731011D01*
X185498718Y-161730060D01*
X185490936Y-161729055D01*
X185486737Y-161728129D01*
X185439911Y-161705282D01*
X185403102Y-161674912D01*
X185366265Y-161626337D01*
X185344616Y-161571523D01*
X185338473Y-161513865D01*
X185348157Y-161456758D01*
X185373987Y-161403598D01*
X185377118Y-161399118D01*
X185388409Y-161387865D01*
X185412957Y-161366570D01*
X185449537Y-161336186D01*
X185496921Y-161297660D01*
X185553884Y-161251943D01*
X185619198Y-161199985D01*
X185691637Y-161142736D01*
X185769975Y-161081145D01*
X185852985Y-161016162D01*
X185939440Y-160948736D01*
X186028114Y-160879819D01*
X186117781Y-160810359D01*
X186207214Y-160741306D01*
X186295186Y-160673610D01*
X186380471Y-160608222D01*
X186461843Y-160546090D01*
X186538074Y-160488164D01*
X186607939Y-160435395D01*
X186670211Y-160388731D01*
X186723663Y-160349124D01*
X186767068Y-160317522D01*
X186799201Y-160294876D01*
X186818835Y-160282134D01*
X186821252Y-160280808D01*
X186843200Y-160269915D01*
X186864539Y-160260547D01*
X186886777Y-160252587D01*
X186911420Y-160245920D01*
X186939974Y-160240430D01*
X186973946Y-160236003D01*
X187014842Y-160232523D01*
X187064170Y-160229874D01*
X187123435Y-160227942D01*
X187194144Y-160226611D01*
X187277804Y-160225765D01*
X187375921Y-160225290D01*
X187490001Y-160225069D01*
X187549851Y-160225020D01*
X188078148Y-160224703D01*
X188146729Y-160318170D01*
X188268443Y-160468972D01*
X188403012Y-160607734D01*
X188549197Y-160733665D01*
X188705755Y-160845969D01*
X188871447Y-160943854D01*
X189045031Y-161026525D01*
X189225266Y-161093189D01*
X189410911Y-161143052D01*
X189448826Y-161150988D01*
X189525917Y-161165547D01*
X189593862Y-161176263D01*
X189658228Y-161183658D01*
X189724584Y-161188256D01*
X189798496Y-161190581D01*
X189876099Y-161191163D01*
X190069646Y-161183584D01*
X190254940Y-161160530D01*
X190434004Y-161121528D01*
X190608861Y-161066101D01*
X190781533Y-160993775D01*
X190841663Y-160964464D01*
X191006888Y-160871231D01*
X191164602Y-160762687D01*
X191312721Y-160640592D01*
X191449161Y-160506707D01*
X191571837Y-160362794D01*
X191603882Y-160320333D01*
X191674050Y-160224703D01*
X192202347Y-160225020D01*
G37*
%TD*%
D10*
%TO.P,,1*%
%TO.N,pinky_bottom*%
X153725000Y-150750000D03*
%TO.P,,2*%
%TO.N,P15*%
X165275000Y-152950000D03*
%TD*%
D11*
%TO.P,D1,1*%
%TO.N,P8*%
X158650000Y-161200000D03*
%TO.P,D1,2*%
%TO.N,pinky_bottom*%
X155350000Y-161200000D03*
%TD*%
D12*
%TO.P,,1*%
%TO.N,P15*%
X157000000Y-153700000D03*
%TD*%
D10*
%TO.P,,1*%
%TO.N,pinky_home*%
X153725000Y-133750000D03*
%TO.P,,2*%
%TO.N,P15*%
X165275000Y-135950000D03*
%TD*%
D11*
%TO.P,D2,1*%
%TO.N,P7*%
X158650000Y-144200000D03*
%TO.P,D2,2*%
%TO.N,pinky_home*%
X155350000Y-144200000D03*
%TD*%
D12*
%TO.P,,1*%
%TO.N,P15*%
X157000000Y-136700000D03*
%TD*%
D10*
%TO.P,,1*%
%TO.N,pinky_top*%
X153725000Y-116750000D03*
%TO.P,,2*%
%TO.N,P15*%
X165275000Y-118950000D03*
%TD*%
D11*
%TO.P,D3,1*%
%TO.N,P6*%
X158650000Y-127200000D03*
%TO.P,D3,2*%
%TO.N,pinky_top*%
X155350000Y-127200000D03*
%TD*%
D12*
%TO.P,,1*%
%TO.N,P15*%
X157000000Y-119700000D03*
%TD*%
D10*
%TO.P,,1*%
%TO.N,ring_bottom*%
X171725000Y-138000000D03*
%TO.P,,2*%
%TO.N,P18*%
X183275000Y-140200000D03*
%TD*%
D11*
%TO.P,D4,1*%
%TO.N,P8*%
X176650000Y-148450000D03*
%TO.P,D4,2*%
%TO.N,ring_bottom*%
X173350000Y-148450000D03*
%TD*%
D12*
%TO.P,,1*%
%TO.N,P18*%
X175000000Y-140950000D03*
%TD*%
D10*
%TO.P,,1*%
%TO.N,ring_home*%
X171725000Y-121000000D03*
%TO.P,,2*%
%TO.N,P18*%
X183275000Y-123200000D03*
%TD*%
D11*
%TO.P,D5,1*%
%TO.N,P7*%
X176650000Y-131450000D03*
%TO.P,D5,2*%
%TO.N,ring_home*%
X173350000Y-131450000D03*
%TD*%
D12*
%TO.P,,1*%
%TO.N,P18*%
X175000000Y-123950000D03*
%TD*%
D10*
%TO.P,,1*%
%TO.N,ring_top*%
X171725000Y-104000000D03*
%TO.P,,2*%
%TO.N,P18*%
X183275000Y-106200000D03*
%TD*%
D11*
%TO.P,D6,1*%
%TO.N,P6*%
X176650000Y-114450000D03*
%TO.P,D6,2*%
%TO.N,ring_top*%
X173350000Y-114450000D03*
%TD*%
D12*
%TO.P,,1*%
%TO.N,P18*%
X175000000Y-106950000D03*
%TD*%
D10*
%TO.P,,1*%
%TO.N,middle_bottom*%
X189725000Y-133750000D03*
%TO.P,,2*%
%TO.N,P19*%
X201275000Y-135950000D03*
%TD*%
D11*
%TO.P,D7,1*%
%TO.N,P8*%
X194650000Y-144200000D03*
%TO.P,D7,2*%
%TO.N,middle_bottom*%
X191350000Y-144200000D03*
%TD*%
D12*
%TO.P,,1*%
%TO.N,P19*%
X193000000Y-136700000D03*
%TD*%
D10*
%TO.P,,1*%
%TO.N,middle_home*%
X189725000Y-116750000D03*
%TO.P,,2*%
%TO.N,P19*%
X201275000Y-118950000D03*
%TD*%
D11*
%TO.P,D8,1*%
%TO.N,P7*%
X194650000Y-127200000D03*
%TO.P,D8,2*%
%TO.N,middle_home*%
X191350000Y-127200000D03*
%TD*%
D12*
%TO.P,,1*%
%TO.N,P19*%
X193000000Y-119700000D03*
%TD*%
D10*
%TO.P,,1*%
%TO.N,middle_top*%
X189725000Y-99750000D03*
%TO.P,,2*%
%TO.N,P19*%
X201275000Y-101950000D03*
%TD*%
D11*
%TO.P,D9,1*%
%TO.N,P6*%
X194650000Y-110200000D03*
%TO.P,D9,2*%
%TO.N,middle_top*%
X191350000Y-110200000D03*
%TD*%
D12*
%TO.P,,1*%
%TO.N,P19*%
X193000000Y-102700000D03*
%TD*%
D10*
%TO.P,,1*%
%TO.N,index_bottom*%
X207725000Y-138000000D03*
%TO.P,,2*%
%TO.N,P20*%
X219275000Y-140200000D03*
%TD*%
D11*
%TO.P,D10,1*%
%TO.N,P8*%
X212650000Y-148450000D03*
%TO.P,D10,2*%
%TO.N,index_bottom*%
X209350000Y-148450000D03*
%TD*%
D12*
%TO.P,,1*%
%TO.N,P20*%
X211000000Y-140950000D03*
%TD*%
D10*
%TO.P,,1*%
%TO.N,index_home*%
X207725000Y-121000000D03*
%TO.P,,2*%
%TO.N,P20*%
X219275000Y-123200000D03*
%TD*%
D11*
%TO.P,D11,1*%
%TO.N,P7*%
X212650000Y-131450000D03*
%TO.P,D11,2*%
%TO.N,index_home*%
X209350000Y-131450000D03*
%TD*%
D12*
%TO.P,,1*%
%TO.N,P20*%
X211000000Y-123950000D03*
%TD*%
D10*
%TO.P,,1*%
%TO.N,index_top*%
X207725000Y-104000000D03*
%TO.P,,2*%
%TO.N,P20*%
X219275000Y-106200000D03*
%TD*%
D11*
%TO.P,D12,1*%
%TO.N,P6*%
X212650000Y-114450000D03*
%TO.P,D12,2*%
%TO.N,index_top*%
X209350000Y-114450000D03*
%TD*%
D12*
%TO.P,,1*%
%TO.N,P20*%
X211000000Y-106950000D03*
%TD*%
D10*
%TO.P,,1*%
%TO.N,inner_bottom*%
X225725000Y-140550000D03*
%TO.P,,2*%
%TO.N,P21*%
X237275000Y-142750000D03*
%TD*%
D11*
%TO.P,D13,1*%
%TO.N,P8*%
X230650000Y-151000000D03*
%TO.P,D13,2*%
%TO.N,inner_bottom*%
X227350000Y-151000000D03*
%TD*%
D12*
%TO.P,,1*%
%TO.N,P21*%
X229000000Y-143500000D03*
%TD*%
D10*
%TO.P,,1*%
%TO.N,inner_home*%
X225725000Y-123550000D03*
%TO.P,,2*%
%TO.N,P21*%
X237275000Y-125750000D03*
%TD*%
D11*
%TO.P,D14,1*%
%TO.N,P7*%
X230650000Y-134000000D03*
%TO.P,D14,2*%
%TO.N,inner_home*%
X227350000Y-134000000D03*
%TD*%
D12*
%TO.P,,1*%
%TO.N,P21*%
X229000000Y-126500000D03*
%TD*%
D10*
%TO.P,,1*%
%TO.N,inner_top*%
X225725000Y-106550000D03*
%TO.P,,2*%
%TO.N,P21*%
X237275000Y-108750000D03*
%TD*%
D11*
%TO.P,D15,1*%
%TO.N,P6*%
X230650000Y-117000000D03*
%TO.P,D15,2*%
%TO.N,inner_top*%
X227350000Y-117000000D03*
%TD*%
D12*
%TO.P,,1*%
%TO.N,P21*%
X229000000Y-109500000D03*
%TD*%
D13*
%TO.P,,1*%
%TO.N,P16*%
X203602269Y-162451060D03*
%TO.P,,2*%
%TO.N,GND*%
X215358824Y-162612000D03*
%TD*%
D12*
%TO.P,,1*%
%TO.N,P16*%
X207339776Y-164787544D03*
%TD*%
%TO.P,,1*%
%TO.N,GND*%
X208381665Y-170696391D03*
%TD*%
D10*
%TO.P,,2*%
%TO.N,GND*%
X237247654Y-161987433D03*
%TO.P,,1*%
%TO.N,P9*%
X225697654Y-159787433D03*
%TD*%
D12*
%TO.P,,1*%
%TO.N,P9*%
X228972654Y-162737433D03*
%TD*%
%TO.P,,1*%
%TO.N,GND*%
X228972654Y-168737433D03*
%TD*%
D14*
%TO.P,,1*%
%TO.N,P10*%
X245066026Y-166001227D03*
%TO.P,,2*%
%TO.N,GND*%
X251083682Y-155900222D03*
%TD*%
D12*
%TO.P,,1*%
%TO.N,P10*%
X248958235Y-163932694D03*
%TD*%
%TO.P,,1*%
%TO.N,GND*%
X254596391Y-165984815D03*
%TD*%
D15*
%TO.P,,*%
%TO.N,*%
X241435000Y-113530000D03*
X241435000Y-116070000D03*
X241435000Y-118610000D03*
X241435000Y-121150000D03*
X241435000Y-123690000D03*
X241435000Y-126230000D03*
X241435000Y-128770000D03*
X241435000Y-131310000D03*
X241435000Y-133850000D03*
X241435000Y-136390000D03*
X241435000Y-138930000D03*
X241435000Y-141470000D03*
X256675000Y-141470000D03*
X256675000Y-138930000D03*
X256675000Y-136390000D03*
X256675000Y-133850000D03*
X256675000Y-131310000D03*
X256675000Y-128770000D03*
X256675000Y-126230000D03*
X256675000Y-123690000D03*
X256675000Y-121150000D03*
X256675000Y-118610000D03*
X256675000Y-116070000D03*
X256675000Y-113530000D03*
D16*
X256675000Y-113530000D03*
D17*
X242705000Y-113530000D03*
D18*
%TO.P,,1*%
%TO.N,RAW*%
X244229000Y-113530000D03*
D19*
%TO.P,,*%
%TO.N,*%
X243213000Y-113530000D03*
D17*
X242705000Y-116070000D03*
D19*
X243213000Y-116070000D03*
D18*
%TO.P,,2*%
%TO.N,N/C*%
X244229000Y-116070000D03*
D17*
%TO.P,,*%
%TO.N,*%
X242705000Y-118610000D03*
D19*
X243213000Y-118610000D03*
D18*
%TO.P,,3*%
%TO.N,RST*%
X244229000Y-118610000D03*
D17*
%TO.P,,*%
%TO.N,*%
X242705000Y-121150000D03*
D19*
X243213000Y-121150000D03*
D18*
%TO.P,,4*%
%TO.N,VCC*%
X244229000Y-121150000D03*
D17*
%TO.P,,*%
%TO.N,*%
X242705000Y-123690000D03*
D19*
X243213000Y-123690000D03*
D18*
%TO.P,,5*%
%TO.N,P21*%
X244229000Y-123690000D03*
D17*
%TO.P,,*%
%TO.N,*%
X242705000Y-126230000D03*
D19*
X243213000Y-126230000D03*
D18*
%TO.P,,6*%
%TO.N,P20*%
X244229000Y-126230000D03*
D17*
%TO.P,,*%
%TO.N,*%
X242705000Y-128770000D03*
D19*
X243213000Y-128770000D03*
D18*
%TO.P,,7*%
%TO.N,P19*%
X244229000Y-128770000D03*
D17*
%TO.P,,*%
%TO.N,*%
X242705000Y-131310000D03*
D19*
X243213000Y-131310000D03*
D18*
%TO.P,,8*%
%TO.N,P18*%
X244229000Y-131310000D03*
D17*
%TO.P,,*%
%TO.N,*%
X242705000Y-133850000D03*
D19*
X243213000Y-133850000D03*
D18*
%TO.P,,9*%
%TO.N,P15*%
X244229000Y-133850000D03*
D17*
%TO.P,,*%
%TO.N,*%
X242705000Y-136390000D03*
D19*
X243213000Y-136390000D03*
D18*
%TO.P,,10*%
%TO.N,P14*%
X244229000Y-136390000D03*
D17*
%TO.P,,*%
%TO.N,*%
X242705000Y-138930000D03*
D19*
X243213000Y-138930000D03*
D18*
%TO.P,,11*%
%TO.N,P16*%
X244229000Y-138930000D03*
D17*
%TO.P,,*%
%TO.N,*%
X242705000Y-141470000D03*
D19*
X243213000Y-141470000D03*
D18*
%TO.P,,12*%
%TO.N,P10*%
X244229000Y-141470000D03*
D20*
%TO.P,,*%
%TO.N,*%
X255405000Y-113530000D03*
D21*
X254897000Y-113530000D03*
D22*
%TO.P,,24*%
%TO.N,P1*%
X253881000Y-113530000D03*
%TO.P,,23*%
%TO.N,P0*%
X253881000Y-116070000D03*
D20*
%TO.P,,*%
%TO.N,*%
X255405000Y-116070000D03*
D21*
X254897000Y-116070000D03*
D22*
%TO.P,,22*%
%TO.N,GND*%
X253881000Y-118610000D03*
D20*
%TO.P,,*%
%TO.N,*%
X255405000Y-118610000D03*
D21*
X254897000Y-118610000D03*
D22*
%TO.P,,21*%
%TO.N,GND*%
X253881000Y-121150000D03*
D20*
%TO.P,,*%
%TO.N,*%
X255405000Y-121150000D03*
D21*
X254897000Y-121150000D03*
D22*
%TO.P,,20*%
%TO.N,P2*%
X253881000Y-123690000D03*
D20*
%TO.P,,*%
%TO.N,*%
X255405000Y-123690000D03*
D21*
X254897000Y-123690000D03*
D22*
%TO.P,,19*%
%TO.N,P3*%
X253881000Y-126230000D03*
D20*
%TO.P,,*%
%TO.N,*%
X255405000Y-126230000D03*
D21*
X254897000Y-126230000D03*
D22*
%TO.P,,18*%
%TO.N,P4*%
X253881000Y-128770000D03*
D20*
%TO.P,,*%
%TO.N,*%
X255405000Y-128770000D03*
D21*
X254897000Y-128770000D03*
D22*
%TO.P,,17*%
%TO.N,P5*%
X253881000Y-131310000D03*
D20*
%TO.P,,*%
%TO.N,*%
X255405000Y-131310000D03*
D21*
X254897000Y-131310000D03*
D22*
%TO.P,,16*%
%TO.N,P6*%
X253881000Y-133850000D03*
D20*
%TO.P,,*%
%TO.N,*%
X255405000Y-133850000D03*
D21*
X254897000Y-133850000D03*
D22*
%TO.P,,15*%
%TO.N,P7*%
X253881000Y-136390000D03*
D20*
%TO.P,,*%
%TO.N,*%
X255405000Y-136390000D03*
D21*
X254897000Y-136390000D03*
D22*
%TO.P,,14*%
%TO.N,P8*%
X253881000Y-138930000D03*
D20*
%TO.P,,*%
%TO.N,*%
X255405000Y-138930000D03*
D21*
X254897000Y-138930000D03*
D22*
%TO.P,,13*%
%TO.N,P9*%
X253881000Y-141470000D03*
D20*
%TO.P,,*%
%TO.N,*%
X255405000Y-141470000D03*
D21*
X254897000Y-141470000D03*
D23*
%TO.P,,23*%
%TO.N,P0*%
X248293000Y-116070000D03*
D24*
%TO.P,,2*%
%TO.N,GND*%
X249817000Y-116070000D03*
D25*
X249817000Y-116070000D03*
%TO.P,,23*%
%TO.N,P0*%
X248293000Y-116070000D03*
%TO.P,,24*%
%TO.N,P1*%
X248293000Y-113530000D03*
%TO.P,,1*%
%TO.N,RAW*%
X249817000Y-113530000D03*
D23*
%TO.P,,24*%
%TO.N,P1*%
X248293000Y-113530000D03*
D24*
%TO.P,,1*%
%TO.N,RAW*%
X249817000Y-113530000D03*
D25*
%TO.P,,22*%
%TO.N,GND*%
X248293000Y-118610000D03*
%TO.P,,3*%
%TO.N,RST*%
X249817000Y-118610000D03*
D23*
%TO.P,,22*%
%TO.N,GND*%
X248293000Y-118610000D03*
D24*
%TO.P,,3*%
%TO.N,RST*%
X249817000Y-118610000D03*
D25*
%TO.P,,21*%
%TO.N,GND*%
X248293000Y-121150000D03*
%TO.P,,4*%
%TO.N,VCC*%
X249817000Y-121150000D03*
D23*
%TO.P,,21*%
%TO.N,GND*%
X248293000Y-121150000D03*
D24*
%TO.P,,4*%
%TO.N,VCC*%
X249817000Y-121150000D03*
D25*
%TO.P,,20*%
%TO.N,P2*%
X248293000Y-123690000D03*
%TO.P,,5*%
%TO.N,P21*%
X249817000Y-123690000D03*
D23*
%TO.P,,20*%
%TO.N,P2*%
X248293000Y-123690000D03*
D24*
%TO.P,,5*%
%TO.N,P21*%
X249817000Y-123690000D03*
D25*
%TO.P,,19*%
%TO.N,P3*%
X248293000Y-126230000D03*
%TO.P,,6*%
%TO.N,P20*%
X249817000Y-126230000D03*
D23*
%TO.P,,19*%
%TO.N,P3*%
X248293000Y-126230000D03*
D24*
%TO.P,,6*%
%TO.N,P20*%
X249817000Y-126230000D03*
D25*
%TO.P,,18*%
%TO.N,P4*%
X248293000Y-128770000D03*
%TO.P,,7*%
%TO.N,P19*%
X249817000Y-128770000D03*
D23*
%TO.P,,18*%
%TO.N,P4*%
X248293000Y-128770000D03*
D24*
%TO.P,,7*%
%TO.N,P19*%
X249817000Y-128770000D03*
D25*
%TO.P,,17*%
%TO.N,P5*%
X248293000Y-131310000D03*
%TO.P,,8*%
%TO.N,P18*%
X249817000Y-131310000D03*
D23*
%TO.P,,17*%
%TO.N,P5*%
X248293000Y-131310000D03*
D24*
%TO.P,,8*%
%TO.N,P18*%
X249817000Y-131310000D03*
D25*
%TO.P,,16*%
%TO.N,P6*%
X248293000Y-133850000D03*
%TO.P,,9*%
%TO.N,P15*%
X249817000Y-133850000D03*
D23*
%TO.P,,16*%
%TO.N,P6*%
X248293000Y-133850000D03*
D24*
%TO.P,,9*%
%TO.N,P15*%
X249817000Y-133850000D03*
D25*
%TO.P,,15*%
%TO.N,P7*%
X248293000Y-136390000D03*
%TO.P,,10*%
%TO.N,P14*%
X249817000Y-136390000D03*
D23*
%TO.P,,15*%
%TO.N,P7*%
X248293000Y-136390000D03*
D24*
%TO.P,,10*%
%TO.N,P14*%
X249817000Y-136390000D03*
D25*
%TO.P,,14*%
%TO.N,P8*%
X248293000Y-138930000D03*
%TO.P,,11*%
%TO.N,P16*%
X249817000Y-138930000D03*
D23*
%TO.P,,14*%
%TO.N,P8*%
X248293000Y-138930000D03*
D24*
%TO.P,,11*%
%TO.N,P16*%
X249817000Y-138930000D03*
D25*
%TO.P,,13*%
%TO.N,P9*%
X248293000Y-141470000D03*
%TO.P,,12*%
%TO.N,P10*%
X249817000Y-141470000D03*
D23*
%TO.P,,13*%
%TO.N,P9*%
X248293000Y-141470000D03*
D24*
%TO.P,,12*%
%TO.N,P10*%
X249817000Y-141470000D03*
%TD*%
D26*
%TO.P,,5*%
%TO.N,SCRN_1*%
X243975000Y-145400000D03*
%TO.P,,4*%
%TO.N,SCRN_2*%
X246515000Y-145400000D03*
%TO.P,,3*%
%TO.N,VCC*%
X249055000Y-145400000D03*
%TO.P,,2*%
%TO.N,SCRN_4*%
X251595000Y-145400000D03*
%TO.P,,1*%
%TO.N,SCRN_5*%
X254135000Y-145400000D03*
%TD*%
D27*
%TO.P,,*%
%TO.N,SCRN_1*%
X243983000Y-147204000D03*
D28*
%TO.N,P2*%
X243983000Y-148220000D03*
%TD*%
D27*
%TO.P,,*%
%TO.N,SCRN_2*%
X246523000Y-147204000D03*
D28*
%TO.N,P3*%
X246523000Y-148220000D03*
%TD*%
%TO.P,,*%
%TO.N,GND*%
X251603000Y-148220000D03*
D27*
%TO.N,SCRN_4*%
X251603000Y-147204000D03*
%TD*%
%TO.P,,*%
%TO.N,SCRN_5*%
X254143000Y-147204000D03*
D28*
%TO.N,P1*%
X254143000Y-148220000D03*
%TD*%
D29*
%TO.P,,1*%
%TO.N,pos*%
X256460000Y-148800000D03*
%TO.P,,2*%
%TO.N,RAW*%
X256460000Y-151800000D03*
%TO.P,,3*%
%TO.N,N/C*%
X256460000Y-153300000D03*
D30*
%TO.P,,*%
%TO.N,*%
X259320000Y-147400000D03*
X259320000Y-154700000D03*
X257110000Y-154700000D03*
X257110000Y-147400000D03*
%TD*%
D31*
%TO.P,,1*%
%TO.N,RST*%
X240155000Y-156490000D03*
%TO.P,,2*%
%TO.N,GND*%
X243555000Y-156490000D03*
%TD*%
D32*
%TO.P,,1*%
%TO.N,pos*%
X240255000Y-149390000D03*
%TO.P,,2*%
%TO.N,GND*%
X240255000Y-150890000D03*
%TD*%
D33*
%TO.N,P16*%
X246235780Y-139410024D03*
%TO.N,P3*%
X249000000Y-148220000D03*
%TO.N,P2*%
X251754225Y-149542193D03*
%TO.N,P1*%
X244552608Y-149814206D03*
%TO.N,GND*%
X247837403Y-149267229D03*
%TO.N,RST*%
X241114455Y-154256464D03*
%TO.N,RAW*%
X254659212Y-150814567D03*
%TO.N,pos*%
X253394996Y-151054183D03*
%TD*%
D34*
%TO.N,P10*%
X245066026Y-166001227D02*
X238736289Y-159671490D01*
X238736289Y-159671490D02*
X238736289Y-148233098D01*
X238736289Y-148233098D02*
X246224387Y-140745000D01*
X246224387Y-140745000D02*
X249092000Y-140745000D01*
X249092000Y-140745000D02*
X249817000Y-141470000D01*
%TO.N,P15*%
X165275000Y-152950000D02*
X168214299Y-150010701D01*
X188658304Y-146219700D02*
X188660224Y-146221620D01*
X182303942Y-146219700D02*
X188658304Y-146219700D01*
X168214299Y-150010701D02*
X178512941Y-150010701D01*
X188660224Y-146221620D02*
X189543322Y-146221620D01*
X178512941Y-150010701D02*
X182303942Y-146219700D01*
X189543322Y-146221620D02*
X189545242Y-146219700D01*
X189545242Y-146219700D02*
X200828299Y-146219700D01*
X200828299Y-146219700D02*
X205385211Y-150776612D01*
X205385211Y-150776612D02*
X221317424Y-150776612D01*
X221317424Y-150776612D02*
X224136042Y-153595230D01*
X224136042Y-153595230D02*
X232737761Y-153595230D01*
X232737761Y-153595230D02*
X240310000Y-146022991D01*
X240310000Y-146022991D02*
X240310000Y-135634009D01*
X240310000Y-135634009D02*
X240944009Y-135000000D01*
X240944009Y-135000000D02*
X245330159Y-135000000D01*
X245330159Y-135000000D02*
X247205159Y-133125000D01*
X247205159Y-133125000D02*
X249092000Y-133125000D01*
X249092000Y-133125000D02*
X249817000Y-133850000D01*
%TO.N,P18*%
X188846620Y-145771620D02*
X189356926Y-145771620D01*
X189358846Y-145769700D02*
X201014695Y-145769700D01*
X201014695Y-145769700D02*
X205571607Y-150326612D01*
X183275000Y-140200000D02*
X188846620Y-145771620D01*
X189356926Y-145771620D02*
X189358846Y-145769700D01*
X221503820Y-150326612D02*
X224322438Y-153145230D01*
X205571607Y-150326612D02*
X221503820Y-150326612D01*
X224322438Y-153145230D02*
X232551365Y-153145230D01*
X232551365Y-153145230D02*
X239860000Y-145836595D01*
X239860000Y-145836595D02*
X239860000Y-133544009D01*
X239860000Y-133544009D02*
X240853790Y-132550219D01*
X240853790Y-132550219D02*
X245449781Y-132550219D01*
X245449781Y-132550219D02*
X247415000Y-130585000D01*
X247415000Y-130585000D02*
X249092000Y-130585000D01*
X249092000Y-130585000D02*
X249817000Y-131310000D01*
%TO.N,P19*%
X201275000Y-135950000D02*
X201275000Y-145393609D01*
X249092000Y-128045000D02*
X249817000Y-128770000D01*
X224508834Y-152695230D02*
X232364969Y-152695230D01*
X205758003Y-149876612D02*
X221690216Y-149876612D01*
X221690216Y-149876612D02*
X224508834Y-152695230D01*
X232364969Y-152695230D02*
X239410000Y-145650199D01*
X239410000Y-145650199D02*
X239410000Y-131590000D01*
X201275000Y-145393609D02*
X205758003Y-149876612D01*
X246000000Y-130000000D02*
X247955000Y-128045000D01*
X241000000Y-130000000D02*
X246000000Y-130000000D01*
X239410000Y-131590000D02*
X241000000Y-130000000D01*
X247955000Y-128045000D02*
X249092000Y-128045000D01*
%TO.N,P20*%
X219275000Y-140200000D02*
X219275000Y-146825000D01*
X219275000Y-146825000D02*
X224695230Y-152245230D01*
X238960000Y-145463803D02*
X238960000Y-129040000D01*
X238960000Y-129040000D02*
X240446000Y-127554000D01*
X249092000Y-125505000D02*
X249817000Y-126230000D01*
X224695230Y-152245230D02*
X232178573Y-152245230D01*
X232178573Y-152245230D02*
X238960000Y-145463803D01*
X240446000Y-127554000D02*
X245000000Y-127554000D01*
X245000000Y-127554000D02*
X247049000Y-125505000D01*
X247049000Y-125505000D02*
X249092000Y-125505000D01*
%TO.N,P3*%
X250327019Y-146892981D02*
X250327019Y-144400927D01*
X250327019Y-144400927D02*
X251727946Y-143000000D01*
X257800000Y-142200000D02*
X257800000Y-128137544D01*
X251727946Y-143000000D02*
X257000000Y-143000000D01*
X249000000Y-148220000D02*
X250327019Y-146892981D01*
X257000000Y-143000000D02*
X257800000Y-142200000D01*
X257800000Y-128137544D02*
X257213277Y-127550821D01*
X249613821Y-127550821D02*
X248293000Y-126230000D01*
X257213277Y-127550821D02*
X249613821Y-127550821D01*
%TO.N,P16*%
X246235780Y-139410024D02*
X246301121Y-139410024D01*
X246301121Y-139410024D02*
X247506145Y-138205000D01*
X249092000Y-138205000D02*
X249817000Y-138930000D01*
X247506145Y-138205000D02*
X249092000Y-138205000D01*
%TO.N,RST*%
X241114455Y-154256464D02*
X240155000Y-155215919D01*
X240155000Y-155215919D02*
X240155000Y-156490000D01*
%TO.N,GND*%
X240255000Y-150890000D02*
X240255000Y-152078962D01*
X240255000Y-152078962D02*
X243555000Y-155378962D01*
X243555000Y-155378962D02*
X243555000Y-156490000D01*
X243555000Y-156490000D02*
X243555000Y-157414572D01*
%TO.N,P1*%
X244552608Y-149814206D02*
X245180131Y-150441729D01*
X251921271Y-150441729D02*
X254143000Y-148220000D01*
X245180131Y-150441729D02*
X251921271Y-150441729D01*
%TO.N,GND*%
X247837403Y-149267229D02*
X248111903Y-149541729D01*
X248111903Y-149541729D02*
X250281271Y-149541729D01*
X250281271Y-149541729D02*
X251603000Y-148220000D01*
%TO.N,inner_top*%
X225725000Y-106550000D02*
X226320000Y-107145000D01*
X226320000Y-107145000D02*
X226320000Y-115970000D01*
X226320000Y-115970000D02*
X227350000Y-117000000D01*
%TO.N,P21*%
X237275000Y-108750000D02*
X237275000Y-110300000D01*
X237275000Y-110300000D02*
X236802501Y-110772499D01*
X236802501Y-110772499D02*
X231729440Y-110772499D01*
X231729440Y-110772499D02*
X230456941Y-109500000D01*
X230456941Y-109500000D02*
X229000000Y-109500000D01*
X237275000Y-125750000D02*
X235126227Y-127898773D01*
X235126227Y-127898773D02*
X231622330Y-127898773D01*
X230223557Y-126500000D02*
X229000000Y-126500000D01*
X231622330Y-127898773D02*
X230223557Y-126500000D01*
%TO.N,inner_home*%
X225725000Y-123550000D02*
X226039038Y-123864038D01*
X226039038Y-132689038D02*
X227350000Y-134000000D01*
X226039038Y-123864038D02*
X226039038Y-132689038D01*
%TO.N,P20*%
X219275000Y-140200000D02*
X217076779Y-142398221D01*
X217076779Y-142398221D02*
X213826492Y-142398221D01*
X213826492Y-142398221D02*
X212378271Y-140950000D01*
X212378271Y-140950000D02*
X211000000Y-140950000D01*
%TO.N,index_bottom*%
X207725000Y-138000000D02*
X208429810Y-138704810D01*
X208429810Y-138704810D02*
X208429810Y-147529810D01*
X208429810Y-147529810D02*
X209350000Y-148450000D01*
%TO.N,P20*%
X219275000Y-123200000D02*
X217103581Y-125371419D01*
X217103581Y-125371419D02*
X213676215Y-125371419D01*
X213676215Y-125371419D02*
X212254796Y-123950000D01*
X212254796Y-123950000D02*
X211000000Y-123950000D01*
%TO.N,index_home*%
X207725000Y-121000000D02*
X208270420Y-121545420D01*
X208270420Y-121545420D02*
X208270420Y-130370420D01*
X208270420Y-130370420D02*
X209350000Y-131450000D01*
%TO.N,P6*%
X194650000Y-110200000D02*
X202200000Y-110200000D01*
X202200000Y-110200000D02*
X208000000Y-116000000D01*
X208000000Y-116000000D02*
X211734139Y-116000000D01*
X211734139Y-116000000D02*
X212650000Y-115084139D01*
X212650000Y-115084139D02*
X212650000Y-114450000D01*
%TO.N,P20*%
X219275000Y-106200000D02*
X217114630Y-108360370D01*
X213508053Y-108360370D02*
X212097683Y-106950000D01*
X217114630Y-108360370D02*
X213508053Y-108360370D01*
X212097683Y-106950000D02*
X211000000Y-106950000D01*
%TO.N,index_top*%
X207725000Y-104000000D02*
X208173486Y-104448486D01*
X208173486Y-104448486D02*
X208173486Y-113273486D01*
X208173486Y-113273486D02*
X209350000Y-114450000D01*
%TO.N,middle_home*%
X189725000Y-116750000D02*
X190390873Y-117415873D01*
X190390873Y-117415873D02*
X190390873Y-126240873D01*
X190390873Y-126240873D02*
X191350000Y-127200000D01*
%TO.N,P19*%
X201275000Y-118950000D02*
X199083201Y-121141799D01*
X199083201Y-121141799D02*
X195647352Y-121141799D01*
X195647352Y-121141799D02*
X194205553Y-119700000D01*
X194205553Y-119700000D02*
X193000000Y-119700000D01*
X201275000Y-101950000D02*
X199124190Y-104100810D01*
X199124190Y-104100810D02*
X195790646Y-104100810D01*
X195790646Y-104100810D02*
X194389836Y-102700000D01*
X194389836Y-102700000D02*
X193000000Y-102700000D01*
%TO.N,P18*%
X183275000Y-106200000D02*
X181062189Y-108412811D01*
X181062189Y-108412811D02*
X177574068Y-108412811D01*
X177574068Y-108412811D02*
X176111257Y-106950000D01*
X176111257Y-106950000D02*
X175000000Y-106950000D01*
%TO.N,ring_top*%
X171725000Y-104000000D02*
X172254524Y-104529524D01*
X172254524Y-104529524D02*
X172254524Y-113354524D01*
X172254524Y-113354524D02*
X173350000Y-114450000D01*
%TO.N,ring_home*%
X171725000Y-121000000D02*
X172379201Y-121654201D01*
X172379201Y-121654201D02*
X172379201Y-130479201D01*
X172379201Y-130479201D02*
X173350000Y-131450000D01*
%TO.N,P18*%
X183275000Y-123200000D02*
X181064582Y-125410418D01*
X181064582Y-125410418D02*
X177823422Y-125410418D01*
X177823422Y-125410418D02*
X176363004Y-123950000D01*
X176363004Y-123950000D02*
X175000000Y-123950000D01*
X183275000Y-140200000D02*
X181026662Y-142448338D01*
X181026662Y-142448338D02*
X177735096Y-142448338D01*
X177735096Y-142448338D02*
X176236758Y-140950000D01*
X176236758Y-140950000D02*
X175000000Y-140950000D01*
%TO.N,ring_bottom*%
X171725000Y-138000000D02*
X172218479Y-138493479D01*
X172218479Y-138493479D02*
X172218479Y-147318479D01*
X172218479Y-147318479D02*
X173350000Y-148450000D01*
%TO.N,P15*%
X165275000Y-118950000D02*
X163098595Y-121126405D01*
X163098595Y-121126405D02*
X159521308Y-121126405D01*
X159521308Y-121126405D02*
X158094903Y-119700000D01*
X158094903Y-119700000D02*
X157000000Y-119700000D01*
%TO.N,P21*%
X237275000Y-125750000D02*
X238095779Y-124929221D01*
X238095779Y-124929221D02*
X245237707Y-124929221D01*
X245237707Y-124929221D02*
X247201928Y-122965000D01*
X247201928Y-122965000D02*
X249092000Y-122965000D01*
X249092000Y-122965000D02*
X249817000Y-123690000D01*
%TO.N,pinky_top*%
X153725000Y-116750000D02*
X154376602Y-117401602D01*
X154376602Y-117401602D02*
X154376602Y-126226602D01*
X154376602Y-126226602D02*
X155350000Y-127200000D01*
%TO.N,pinky_home*%
X153725000Y-133750000D02*
X154301354Y-134326354D01*
X154301354Y-134326354D02*
X154301354Y-143151354D01*
X154301354Y-143151354D02*
X155350000Y-144200000D01*
%TO.N,P15*%
X165275000Y-135950000D02*
X165275000Y-137500000D01*
X165275000Y-137500000D02*
X164604438Y-138170562D01*
X164604438Y-138170562D02*
X159610700Y-138170562D01*
X159610700Y-138170562D02*
X158140138Y-136700000D01*
X158140138Y-136700000D02*
X157000000Y-136700000D01*
%TO.N,pinky_bottom*%
X153725000Y-150750000D02*
X154308624Y-151333624D01*
X154308624Y-151333624D02*
X154308624Y-160158624D01*
X154308624Y-160158624D02*
X155350000Y-161200000D01*
%TO.N,P15*%
X165275000Y-152950000D02*
X165275000Y-154500000D01*
X165275000Y-154500000D02*
X164663527Y-155111473D01*
X164663527Y-155111473D02*
X159704709Y-155111473D01*
X159704709Y-155111473D02*
X158293236Y-153700000D01*
X158293236Y-153700000D02*
X157000000Y-153700000D01*
%TO.N,P1*%
X254143000Y-148220000D02*
X258700000Y-143663000D01*
X249547159Y-114784159D02*
X248293000Y-113530000D01*
X258700000Y-143663000D02*
X258700000Y-116257687D01*
X258700000Y-116257687D02*
X257226472Y-114784159D01*
X257226472Y-114784159D02*
X249547159Y-114784159D01*
%TO.N,P2*%
X248293000Y-123690000D02*
X249603000Y-125000000D01*
X256636396Y-144000000D02*
X253626689Y-144000000D01*
X258250000Y-142386396D02*
X256636396Y-144000000D01*
X249603000Y-125000000D02*
X257451556Y-125000000D01*
X258250000Y-125798444D02*
X258250000Y-142386396D01*
X257451556Y-125000000D02*
X258250000Y-125798444D01*
X251754225Y-149536195D02*
X251754225Y-149542193D01*
X253626689Y-144000000D02*
X252855379Y-144771310D01*
X252855379Y-144771310D02*
X252855379Y-148435041D01*
X252855379Y-148435041D02*
X251754225Y-149536195D01*
%TO.N,P19*%
X201275000Y-135950000D02*
X201275000Y-137500000D01*
X201275000Y-137500000D02*
X200902501Y-137872499D01*
X200902501Y-137872499D02*
X194172499Y-137872499D01*
X194172499Y-137872499D02*
X193000000Y-136700000D01*
%TO.N,middle_bottom*%
X189725000Y-133750000D02*
X189875001Y-133900001D01*
X189875001Y-133900001D02*
X189875001Y-142725001D01*
X189875001Y-142725001D02*
X191350000Y-144200000D01*
%TO.N,middle_top*%
X189725000Y-99750000D02*
X189875001Y-99900001D01*
X189875001Y-99900001D02*
X189875001Y-108725001D01*
X189875001Y-108725001D02*
X191350000Y-110200000D01*
%TO.N,P6*%
X230000000Y-119000000D02*
X231000000Y-118000000D01*
X212650000Y-114450000D02*
X222450000Y-114450000D01*
X231000000Y-117350000D02*
X230650000Y-117000000D01*
X227000000Y-119000000D02*
X230000000Y-119000000D01*
X222450000Y-114450000D02*
X227000000Y-119000000D01*
X231000000Y-118000000D02*
X231000000Y-117350000D01*
X176650000Y-114450000D02*
X190400000Y-114450000D01*
X190400000Y-114450000D02*
X194650000Y-110200000D01*
%TO.N,P7*%
X212650000Y-131450000D02*
X217200000Y-136000000D01*
X217200000Y-136000000D02*
X228650000Y-136000000D01*
X228650000Y-136000000D02*
X230650000Y-134000000D01*
X202200000Y-127200000D02*
X208000000Y-133000000D01*
X194650000Y-127200000D02*
X202200000Y-127200000D01*
X208000000Y-133000000D02*
X211100000Y-133000000D01*
X211100000Y-133000000D02*
X212650000Y-131450000D01*
X176650000Y-131450000D02*
X190400000Y-131450000D01*
X190400000Y-131450000D02*
X194650000Y-127200000D01*
%TO.N,P8*%
X230650000Y-151704121D02*
X230650000Y-151000000D01*
%TO.N,P7*%
X158650000Y-144200000D02*
X162275000Y-144200000D01*
X162275000Y-144200000D02*
X175025000Y-131450000D01*
X175025000Y-131450000D02*
X176650000Y-131450000D01*
%TO.N,P6*%
X158650000Y-127200000D02*
X162300000Y-127200000D01*
X162300000Y-127200000D02*
X175050000Y-114450000D01*
X175050000Y-114450000D02*
X176650000Y-114450000D01*
%TO.N,P21*%
X237275000Y-142750000D02*
X235039198Y-144985802D01*
X235039198Y-144985802D02*
X231515473Y-144985802D01*
X231515473Y-144985802D02*
X230029671Y-143500000D01*
X230029671Y-143500000D02*
X229000000Y-143500000D01*
%TO.N,inner_bottom*%
X225725000Y-140550000D02*
X226342378Y-141167378D01*
X226342378Y-141167378D02*
X226342378Y-149992378D01*
X226342378Y-149992378D02*
X227350000Y-151000000D01*
%TO.N,P2*%
X251754225Y-149542193D02*
X251304689Y-149991729D01*
X251304689Y-149991729D02*
X245754729Y-149991729D01*
X245754729Y-149991729D02*
X243983000Y-148220000D01*
%TO.N,pos*%
X253394996Y-151054183D02*
X253232542Y-150891729D01*
X253232542Y-150891729D02*
X241756729Y-150891729D01*
X241756729Y-150891729D02*
X240255000Y-149390000D01*
%TO.N,SCRN_1*%
X243983000Y-147204000D02*
X243983000Y-145408000D01*
X243983000Y-145408000D02*
X243975000Y-145400000D01*
%TO.N,SCRN_2*%
X246523000Y-147204000D02*
X246523000Y-145408000D01*
X246523000Y-145408000D02*
X246515000Y-145400000D01*
%TO.N,SCRN_4*%
X251603000Y-147204000D02*
X251603000Y-145408000D01*
X251603000Y-145408000D02*
X251595000Y-145400000D01*
%TO.N,SCRN_5*%
X254143000Y-147204000D02*
X254143000Y-145408000D01*
X254143000Y-145408000D02*
X254135000Y-145400000D01*
%TO.N,P3*%
X246523000Y-148220000D02*
X249000000Y-148220000D01*
%TO.N,RAW*%
X254659212Y-150814567D02*
X254660435Y-150814567D01*
X254660435Y-150814567D02*
X255645868Y-151800000D01*
X255645868Y-151800000D02*
X256460000Y-151800000D01*
%TO.N,pos*%
X253394996Y-151054183D02*
X255649180Y-148800000D01*
X255649180Y-148800000D02*
X256460000Y-148800000D01*
%TO.N,GND*%
X251083682Y-155900222D02*
X251613064Y-156429604D01*
X251613064Y-156429604D02*
X252731637Y-156429604D01*
X255567937Y-165013269D02*
X254596391Y-165984815D01*
X252731637Y-156429604D02*
X255567937Y-159265904D01*
X255567937Y-159265904D02*
X255567937Y-165013269D01*
%TO.N,P9*%
X225697654Y-159787433D02*
X225697654Y-160027496D01*
X225697654Y-160027496D02*
X228407591Y-162737433D01*
X228407591Y-162737433D02*
X228972654Y-162737433D01*
%TO.N,GND*%
X237247654Y-161987433D02*
X235045994Y-164189093D01*
X235045994Y-164189093D02*
X233472621Y-164189093D01*
X233472621Y-164189093D02*
X232594895Y-165066819D01*
X232594895Y-165066819D02*
X232594895Y-166110149D01*
X232594895Y-166110149D02*
X229967611Y-168737433D01*
X229967611Y-168737433D02*
X228972654Y-168737433D01*
X215358824Y-162612000D02*
X215358824Y-163476588D01*
X215358824Y-163476588D02*
X213463808Y-165371604D01*
X213463808Y-165371604D02*
X212155554Y-165371604D01*
X212155554Y-165371604D02*
X210960081Y-166567077D01*
X210960081Y-166567077D02*
X210960081Y-168739919D01*
X210960081Y-168739919D02*
X209003609Y-170696391D01*
X209003609Y-170696391D02*
X208381665Y-170696391D01*
%TO.N,P10*%
X245066026Y-166001227D02*
X246889702Y-166001227D01*
X246889702Y-166001227D02*
X248958235Y-163932694D01*
%TO.N,P16*%
X203602269Y-162451060D02*
X205938753Y-164787544D01*
X205938753Y-164787544D02*
X207339776Y-164787544D01*
%TO.N,GND*%
X215358824Y-162612000D02*
X221484257Y-168737433D01*
X221484257Y-168737433D02*
X228972654Y-168737433D01*
X243555000Y-156490000D02*
X250493904Y-156490000D01*
X250493904Y-156490000D02*
X251083682Y-155900222D01*
%TD*%
M02*
