%TF.GenerationSoftware,KiCad,Pcbnew,(6.0.9-0)*%
%TF.CreationDate,2022-12-30T00:27:58+01:00*%
%TF.ProjectId,beamer,6265616d-6572-42e6-9b69-6361645f7063,v1.0.0*%
%TF.SameCoordinates,Original*%
%TF.FileFunction,Legend,Bot*%
%TF.FilePolarity,Positive*%
%FSLAX46Y46*%
G04 Gerber Fmt 4.6, Leading zero omitted, Abs format (unit mm)*
G04 Created by KiCad (PCBNEW (6.0.9-0)) date 2022-12-30 00:27:58*
%MOMM*%
%LPD*%
G01*
G04 APERTURE LIST*
%ADD10C,0.500000*%
%ADD11C,0.100000*%
%ADD12C,1.000000*%
G04 APERTURE END LIST*
D10*
X182145472Y-159116829D02*
X181788329Y-159331115D01*
X181669281Y-159545400D01*
X181550234Y-159973972D01*
X181550234Y-160616829D01*
X181669281Y-161045400D01*
X181788329Y-161259686D01*
X182026424Y-161473972D01*
X182978805Y-161473972D01*
X182978805Y-156973972D01*
X182145472Y-156973972D01*
X181907377Y-157188258D01*
X181788329Y-157402543D01*
X181669281Y-157831115D01*
X181669281Y-158259686D01*
X181788329Y-158688258D01*
X181907377Y-158902543D01*
X182145472Y-159116829D01*
X182978805Y-159116829D01*
X179526424Y-161259686D02*
X179764519Y-161473972D01*
X180240710Y-161473972D01*
X180478805Y-161259686D01*
X180597853Y-160831115D01*
X180597853Y-159116829D01*
X180478805Y-158688258D01*
X180240710Y-158473972D01*
X179764519Y-158473972D01*
X179526424Y-158688258D01*
X179407377Y-159116829D01*
X179407377Y-159545400D01*
X180597853Y-159973972D01*
X177264519Y-161473972D02*
X177264519Y-159116829D01*
X177383567Y-158688258D01*
X177621662Y-158473972D01*
X178097853Y-158473972D01*
X178335948Y-158688258D01*
X177264519Y-161259686D02*
X177502615Y-161473972D01*
X178097853Y-161473972D01*
X178335948Y-161259686D01*
X178454996Y-160831115D01*
X178454996Y-160402543D01*
X178335948Y-159973972D01*
X178097853Y-159759686D01*
X177502615Y-159759686D01*
X177264519Y-159545400D01*
X176074043Y-161473972D02*
X176074043Y-158473972D01*
X176074043Y-158902543D02*
X175954996Y-158688258D01*
X175716900Y-158473972D01*
X175359758Y-158473972D01*
X175121662Y-158688258D01*
X175002615Y-159116829D01*
X175002615Y-161473972D01*
X175002615Y-159116829D02*
X174883567Y-158688258D01*
X174645472Y-158473972D01*
X174288329Y-158473972D01*
X174050234Y-158688258D01*
X173931186Y-159116829D01*
X173931186Y-161473972D01*
X171788329Y-161259686D02*
X172026424Y-161473972D01*
X172502615Y-161473972D01*
X172740710Y-161259686D01*
X172859758Y-160831115D01*
X172859758Y-159116829D01*
X172740710Y-158688258D01*
X172502615Y-158473972D01*
X172026424Y-158473972D01*
X171788329Y-158688258D01*
X171669281Y-159116829D01*
X171669281Y-159545400D01*
X172859758Y-159973972D01*
X170597853Y-161473972D02*
X170597853Y-158473972D01*
X170597853Y-159331115D02*
X170478805Y-158902543D01*
X170359758Y-158688258D01*
X170121662Y-158473972D01*
X169883567Y-158473972D01*
D11*
%TO.C,D1*%
X156750000Y-161200000D02*
X156250000Y-161200000D01*
X156750000Y-160800000D02*
X157350000Y-161200000D01*
X156750000Y-161600000D02*
X156750000Y-160800000D01*
X157350000Y-161200000D02*
X156750000Y-161600000D01*
X157350000Y-161200000D02*
X157350000Y-160650000D01*
X157350000Y-161200000D02*
X157350000Y-161750000D01*
X157750000Y-161200000D02*
X157350000Y-161200000D01*
%TO.C,D2*%
X156750000Y-144200000D02*
X156250000Y-144200000D01*
X156750000Y-143800000D02*
X157350000Y-144200000D01*
X156750000Y-144600000D02*
X156750000Y-143800000D01*
X157350000Y-144200000D02*
X156750000Y-144600000D01*
X157350000Y-144200000D02*
X157350000Y-143650000D01*
X157350000Y-144200000D02*
X157350000Y-144750000D01*
X157750000Y-144200000D02*
X157350000Y-144200000D01*
%TO.C,D3*%
X156750000Y-127200000D02*
X156250000Y-127200000D01*
X156750000Y-126800000D02*
X157350000Y-127200000D01*
X156750000Y-127600000D02*
X156750000Y-126800000D01*
X157350000Y-127200000D02*
X156750000Y-127600000D01*
X157350000Y-127200000D02*
X157350000Y-126650000D01*
X157350000Y-127200000D02*
X157350000Y-127750000D01*
X157750000Y-127200000D02*
X157350000Y-127200000D01*
%TO.C,D4*%
X174750000Y-148450000D02*
X174250000Y-148450000D01*
X174750000Y-148050000D02*
X175350000Y-148450000D01*
X174750000Y-148850000D02*
X174750000Y-148050000D01*
X175350000Y-148450000D02*
X174750000Y-148850000D01*
X175350000Y-148450000D02*
X175350000Y-147900000D01*
X175350000Y-148450000D02*
X175350000Y-149000000D01*
X175750000Y-148450000D02*
X175350000Y-148450000D01*
%TO.C,D5*%
X174750000Y-131450000D02*
X174250000Y-131450000D01*
X174750000Y-131050000D02*
X175350000Y-131450000D01*
X174750000Y-131850000D02*
X174750000Y-131050000D01*
X175350000Y-131450000D02*
X174750000Y-131850000D01*
X175350000Y-131450000D02*
X175350000Y-130900000D01*
X175350000Y-131450000D02*
X175350000Y-132000000D01*
X175750000Y-131450000D02*
X175350000Y-131450000D01*
%TO.C,D6*%
X174750000Y-114450000D02*
X174250000Y-114450000D01*
X174750000Y-114050000D02*
X175350000Y-114450000D01*
X174750000Y-114850000D02*
X174750000Y-114050000D01*
X175350000Y-114450000D02*
X174750000Y-114850000D01*
X175350000Y-114450000D02*
X175350000Y-113900000D01*
X175350000Y-114450000D02*
X175350000Y-115000000D01*
X175750000Y-114450000D02*
X175350000Y-114450000D01*
%TO.C,D7*%
X192750000Y-144200000D02*
X192250000Y-144200000D01*
X192750000Y-143800000D02*
X193350000Y-144200000D01*
X192750000Y-144600000D02*
X192750000Y-143800000D01*
X193350000Y-144200000D02*
X192750000Y-144600000D01*
X193350000Y-144200000D02*
X193350000Y-143650000D01*
X193350000Y-144200000D02*
X193350000Y-144750000D01*
X193750000Y-144200000D02*
X193350000Y-144200000D01*
%TO.C,D8*%
X192750000Y-127200000D02*
X192250000Y-127200000D01*
X192750000Y-126800000D02*
X193350000Y-127200000D01*
X192750000Y-127600000D02*
X192750000Y-126800000D01*
X193350000Y-127200000D02*
X192750000Y-127600000D01*
X193350000Y-127200000D02*
X193350000Y-126650000D01*
X193350000Y-127200000D02*
X193350000Y-127750000D01*
X193750000Y-127200000D02*
X193350000Y-127200000D01*
%TO.C,D9*%
X192750000Y-110200000D02*
X192250000Y-110200000D01*
X192750000Y-109800000D02*
X193350000Y-110200000D01*
X192750000Y-110600000D02*
X192750000Y-109800000D01*
X193350000Y-110200000D02*
X192750000Y-110600000D01*
X193350000Y-110200000D02*
X193350000Y-109650000D01*
X193350000Y-110200000D02*
X193350000Y-110750000D01*
X193750000Y-110200000D02*
X193350000Y-110200000D01*
%TO.C,D10*%
X210750000Y-148450000D02*
X210250000Y-148450000D01*
X210750000Y-148050000D02*
X211350000Y-148450000D01*
X210750000Y-148850000D02*
X210750000Y-148050000D01*
X211350000Y-148450000D02*
X210750000Y-148850000D01*
X211350000Y-148450000D02*
X211350000Y-147900000D01*
X211350000Y-148450000D02*
X211350000Y-149000000D01*
X211750000Y-148450000D02*
X211350000Y-148450000D01*
%TO.C,D11*%
X210750000Y-131450000D02*
X210250000Y-131450000D01*
X210750000Y-131050000D02*
X211350000Y-131450000D01*
X210750000Y-131850000D02*
X210750000Y-131050000D01*
X211350000Y-131450000D02*
X210750000Y-131850000D01*
X211350000Y-131450000D02*
X211350000Y-130900000D01*
X211350000Y-131450000D02*
X211350000Y-132000000D01*
X211750000Y-131450000D02*
X211350000Y-131450000D01*
%TO.C,D12*%
X210750000Y-114450000D02*
X210250000Y-114450000D01*
X210750000Y-114050000D02*
X211350000Y-114450000D01*
X210750000Y-114850000D02*
X210750000Y-114050000D01*
X211350000Y-114450000D02*
X210750000Y-114850000D01*
X211350000Y-114450000D02*
X211350000Y-113900000D01*
X211350000Y-114450000D02*
X211350000Y-115000000D01*
X211750000Y-114450000D02*
X211350000Y-114450000D01*
%TO.C,D13*%
X228750000Y-151000000D02*
X228250000Y-151000000D01*
X228750000Y-150600000D02*
X229350000Y-151000000D01*
X228750000Y-151400000D02*
X228750000Y-150600000D01*
X229350000Y-151000000D02*
X228750000Y-151400000D01*
X229350000Y-151000000D02*
X229350000Y-150450000D01*
X229350000Y-151000000D02*
X229350000Y-151550000D01*
X229750000Y-151000000D02*
X229350000Y-151000000D01*
%TO.C,D14*%
X228750000Y-134000000D02*
X228250000Y-134000000D01*
X228750000Y-133600000D02*
X229350000Y-134000000D01*
X228750000Y-134400000D02*
X228750000Y-133600000D01*
X229350000Y-134000000D02*
X228750000Y-134400000D01*
X229350000Y-134000000D02*
X229350000Y-133450000D01*
X229350000Y-134000000D02*
X229350000Y-134550000D01*
X229750000Y-134000000D02*
X229350000Y-134000000D01*
%TO.C,D15*%
X228750000Y-117000000D02*
X228250000Y-117000000D01*
X228750000Y-116600000D02*
X229350000Y-117000000D01*
X228750000Y-117400000D02*
X228750000Y-116600000D01*
X229350000Y-117000000D02*
X228750000Y-117400000D01*
X229350000Y-117000000D02*
X229350000Y-116450000D01*
X229350000Y-117000000D02*
X229350000Y-117550000D01*
X229750000Y-117000000D02*
X229350000Y-117000000D01*
%TD*%
D12*
%TO.C,*%
X240255000Y-149390000D03*
X240255000Y-150890000D03*
%TD*%
M02*
