%TF.GenerationSoftware,KiCad,Pcbnew,(6.0.9-0)*%
%TF.CreationDate,2022-12-30T09:12:30+01:00*%
%TF.ProjectId,beamer,6265616d-6572-42e6-9b69-6361645f7063,v1.0.0*%
%TF.SameCoordinates,Original*%
%TF.FileFunction,Paste,Top*%
%TF.FilePolarity,Positive*%
%FSLAX46Y46*%
G04 Gerber Fmt 4.6, Leading zero omitted, Abs format (unit mm)*
G04 Created by KiCad (PCBNEW (6.0.9-0)) date 2022-12-30 09:12:30*
%MOMM*%
%LPD*%
G01*
G04 APERTURE LIST*
G04 Aperture macros list*
%AMRotRect*
0 Rectangle, with rotation*
0 The origin of the aperture is its center*
0 $1 length*
0 $2 width*
0 $3 Rotation angle, in degrees counterclockwise*
0 Add horizontal line*
21,1,$1,$2,0,0,$3*%
G04 Aperture macros list end*
%ADD10R,2.600000X2.600000*%
%ADD11RotRect,2.600000X2.600000X70.000000*%
%ADD12R,1.000000X0.800000*%
%ADD13R,0.700000X1.500000*%
%ADD14RotRect,2.600000X2.600000X10.000000*%
%ADD15R,0.900000X1.700000*%
G04 APERTURE END LIST*
D10*
%TO.C,*%
X160275000Y-150750000D03*
X148725000Y-152950000D03*
%TD*%
%TO.C,*%
X232275000Y-140550000D03*
X220725000Y-142750000D03*
%TD*%
%TO.C,*%
X232275000Y-123550000D03*
X220725000Y-125750000D03*
%TD*%
%TO.C,*%
X196275000Y-116750000D03*
X184725000Y-118950000D03*
%TD*%
%TO.C,*%
X196275000Y-99750000D03*
X184725000Y-101950000D03*
%TD*%
D11*
%TO.C,*%
X247306258Y-159846241D03*
X245423249Y-171452135D03*
%TD*%
D10*
%TO.C,*%
X214275000Y-121000000D03*
X202725000Y-123200000D03*
%TD*%
D12*
%TO.C,*%
X259320000Y-147400000D03*
X257110000Y-147400000D03*
X257110000Y-154700000D03*
X259320000Y-154700000D03*
D13*
X256460000Y-153300000D03*
X256460000Y-150300000D03*
X256460000Y-148800000D03*
%TD*%
D10*
%TO.C,*%
X178275000Y-138000000D03*
X166725000Y-140200000D03*
%TD*%
%TO.C,*%
X178275000Y-104000000D03*
X166725000Y-106200000D03*
%TD*%
%TO.C,*%
X160275000Y-116750000D03*
X148725000Y-118950000D03*
%TD*%
%TO.C,*%
X214275000Y-104000000D03*
X202725000Y-106200000D03*
%TD*%
%TO.C,*%
X232247654Y-159787433D03*
X220697654Y-161987433D03*
%TD*%
D14*
%TO.C,*%
X210052760Y-161313664D03*
X199060256Y-165485878D03*
%TD*%
D10*
%TO.C,*%
X214275000Y-138000000D03*
X202725000Y-140200000D03*
%TD*%
%TO.C,*%
X160275000Y-133750000D03*
X148725000Y-135950000D03*
%TD*%
%TO.C,*%
X232275000Y-106550000D03*
X220725000Y-108750000D03*
%TD*%
D15*
%TO.C,*%
X243555000Y-156490000D03*
X240155000Y-156490000D03*
%TD*%
D10*
%TO.C,*%
X196275000Y-133750000D03*
X184725000Y-135950000D03*
%TD*%
%TO.C,*%
X178275000Y-121000000D03*
X166725000Y-123200000D03*
%TD*%
M02*
