M48
; DRILL file {KiCad (6.0.9-0)} date Friday, 30 December 2022 at 09:12:07
; FORMAT={-:-/ absolute / inch / decimal}
; #@! TF.CreationDate,2022-12-30T09:12:07+01:00
; #@! TF.GenerationSoftware,Kicad,Pcbnew,(6.0.9-0)
; #@! TF.FileFunction,Plated,1,2,PTH
FMAT,2
INCH
; #@! TA.AperFunction,Plated,PTH,ComponentDrill
T1C0.0118
; #@! TA.AperFunction,Plated,PTH,ViaDrill
T2C0.0157
; #@! TA.AperFunction,Plated,PTH,ComponentDrill
T3C0.0157
; #@! TA.AperFunction,Plated,PTH,ComponentDrill
T4C0.0276
; #@! TA.AperFunction,Plated,PTH,ComponentDrill
T5C0.0394
; #@! TA.AperFunction,Plated,PTH,ComponentDrill
T6C0.0433
%
G90
G05
T1
X6.1161Y-5.0079
X6.1161Y-5.6772
X6.1161Y-6.3465
X6.1811Y-4.7126
X6.1811Y-5.3819
X6.1811Y-6.0512
X6.2461Y-5.0079
X6.2461Y-5.6772
X6.2461Y-6.3465
X6.8248Y-4.5059
X6.8248Y-5.1752
X6.8248Y-5.8445
X6.8898Y-4.2106
X6.8898Y-4.8799
X6.8898Y-5.5492
X6.9547Y-4.5059
X6.9547Y-5.1752
X6.9547Y-5.8445
X7.5335Y-4.3386
X7.5335Y-5.0079
X7.5335Y-5.6772
X7.5984Y-4.0433
X7.5984Y-4.7126
X7.5984Y-5.3819
X7.6634Y-4.3386
X7.6634Y-5.0079
X7.6634Y-5.6772
X8.163Y-6.4877
X8.204Y-6.7203
X8.2421Y-4.5059
X8.2421Y-5.1752
X8.2421Y-5.8445
X8.3071Y-4.2106
X8.3071Y-4.8799
X8.3071Y-5.5492
X8.372Y-4.5059
X8.372Y-5.1752
X8.372Y-5.8445
X8.9508Y-4.6063
X8.9508Y-5.2756
X8.9508Y-5.9449
X9.0147Y-6.407
X9.0147Y-6.6432
X9.0157Y-4.311
X9.0157Y-4.9803
X9.0157Y-5.6496
X9.0807Y-4.6063
X9.0807Y-5.2756
X9.0807Y-5.9449
X9.8015Y-6.454
X10.0235Y-6.5348
T2
X9.4927Y-6.0731
X9.6281Y-5.8982
X9.6943Y-5.4886
X9.7574Y-5.8767
X9.8031Y-5.8354
X9.9116Y-5.8875
X9.9762Y-5.947
X10.026Y-5.9376
T3
X9.7753Y-4.4697
X9.7753Y-4.5697
X9.7753Y-4.6697
X9.7753Y-4.7697
X9.7753Y-4.8697
X9.7753Y-4.9697
X9.7753Y-5.0697
X9.7753Y-5.1697
X9.7753Y-5.2697
X9.7753Y-5.3697
X9.7753Y-5.4697
X9.7753Y-5.5697
X9.8353Y-4.4697
X9.8353Y-4.5697
X9.8353Y-4.6697
X9.8353Y-4.7697
X9.8353Y-4.8697
X9.8353Y-4.9697
X9.8353Y-5.0697
X9.8353Y-5.1697
X9.8353Y-5.2697
X9.8353Y-5.3697
X9.8353Y-5.4697
X9.8353Y-5.5697
T4
X9.4589Y-5.8815
X9.4589Y-5.9406
T5
X9.6053Y-5.7244
X9.7053Y-5.7244
X9.8053Y-5.7244
X9.9053Y-5.7244
X10.0053Y-5.7244
T6
X9.5053Y-4.4697
X9.5053Y-4.4697
X9.5053Y-4.5697
X9.5053Y-4.6697
X9.5053Y-4.7697
X9.5053Y-4.8697
X9.5053Y-4.9697
X9.5053Y-5.0697
X9.5053Y-5.1697
X9.5053Y-5.2697
X9.5053Y-5.3697
X9.5053Y-5.4697
X9.5053Y-5.5697
X10.1053Y-4.4697
X10.1053Y-4.4697
X10.1053Y-4.5697
X10.1053Y-4.6697
X10.1053Y-4.7697
X10.1053Y-4.8697
X10.1053Y-4.9697
X10.1053Y-5.0697
X10.1053Y-5.1697
X10.1053Y-5.2697
X10.1053Y-5.3697
X10.1053Y-5.4697
X10.1053Y-5.5697
T0
M30
