%TF.GenerationSoftware,KiCad,Pcbnew,(6.0.9-0)*%
%TF.CreationDate,2022-12-30T00:27:59+01:00*%
%TF.ProjectId,beamer,6265616d-6572-42e6-9b69-6361645f7063,v1.0.0*%
%TF.SameCoordinates,Original*%
%TF.FileFunction,Profile,NP*%
%FSLAX46Y46*%
G04 Gerber Fmt 4.6, Leading zero omitted, Abs format (unit mm)*
G04 Created by KiCad (PCBNEW (6.0.9-0)) date 2022-12-30 00:27:59*
%MOMM*%
%LPD*%
G01*
G04 APERTURE LIST*
%TA.AperFunction,Profile*%
%ADD10C,0.150000*%
%TD*%
G04 APERTURE END LIST*
D10*
X147950000Y-165200000D02*
X195997461Y-165200000D01*
X146750000Y-164000000D02*
X146750000Y-115400000D01*
X147950000Y-114200000D02*
X163550000Y-114200000D01*
X165950000Y-101450000D02*
X181550000Y-101450000D01*
X164750000Y-113000000D02*
X164750000Y-102650000D01*
X183950000Y-97200000D02*
X202050000Y-97200000D01*
X203250000Y-98400000D02*
X203250000Y-100250000D01*
X182750000Y-100250000D02*
X182750000Y-98400000D01*
X204450000Y-101450000D02*
X220050000Y-101450000D01*
X221250000Y-102650000D02*
X221250000Y-102800000D01*
X240450000Y-108500000D02*
X258800000Y-108500000D01*
X260000000Y-152744918D02*
X260000000Y-109700000D01*
X222450000Y-104000000D02*
X238050000Y-104000000D01*
X239250000Y-105200000D02*
X239250000Y-107300000D01*
X200424220Y-177684350D02*
X219869262Y-174255664D01*
X197179230Y-166191622D02*
X199034073Y-176710958D01*
X220077640Y-174237433D02*
X237587323Y-174237433D01*
X255557853Y-179424145D02*
X263971548Y-156307706D01*
X260789576Y-153872550D02*
X263254341Y-154769651D01*
X237997747Y-174309802D02*
X254019797Y-180141352D01*
X197179230Y-166191622D02*
G75*
G03*
X195997461Y-165200000I-1181769J-208378D01*
G01*
X199034073Y-176710958D02*
G75*
G03*
X200424220Y-177684349I1181769J208378D01*
G01*
X220077640Y-174237433D02*
G75*
G03*
X219869262Y-174255664I0J-1200000D01*
G01*
X237997747Y-174309802D02*
G75*
G03*
X237587323Y-174237433I-410424J-1127631D01*
G01*
X254019797Y-180141352D02*
G75*
G03*
X255557854Y-179424145I410425J1127632D01*
G01*
X263971548Y-156307706D02*
G75*
G03*
X263254341Y-154769651I-1127631J410424D01*
G01*
X260000000Y-152744918D02*
G75*
G03*
X260789576Y-153872549I1200000J0D01*
G01*
X260000000Y-109700000D02*
G75*
G03*
X258800000Y-108500000I-1200000J0D01*
G01*
X239250000Y-107300000D02*
G75*
G03*
X240450000Y-108500000I1200000J0D01*
G01*
X239250000Y-105200000D02*
G75*
G03*
X238050000Y-104000000I-1200000J0D01*
G01*
X221250000Y-102800000D02*
G75*
G03*
X222450000Y-104000000I1200000J0D01*
G01*
X221250000Y-102650000D02*
G75*
G03*
X220050000Y-101450000I-1200000J0D01*
G01*
X203250000Y-100250000D02*
G75*
G03*
X204450000Y-101450000I1200000J0D01*
G01*
X203250000Y-98400000D02*
G75*
G03*
X202050000Y-97200000I-1200000J0D01*
G01*
X183950000Y-97200000D02*
G75*
G03*
X182750000Y-98400000I0J-1200000D01*
G01*
X181550000Y-101450000D02*
G75*
G03*
X182750000Y-100250000I0J1200000D01*
G01*
X165950000Y-101450000D02*
G75*
G03*
X164750000Y-102650000I0J-1200000D01*
G01*
X163550000Y-114200000D02*
G75*
G03*
X164750000Y-113000000I0J1200000D01*
G01*
X147950000Y-114200000D02*
G75*
G03*
X146750000Y-115400000I0J-1200000D01*
G01*
X146750000Y-164000000D02*
G75*
G03*
X147950000Y-165200000I1200000J0D01*
G01*
M02*
