%TF.GenerationSoftware,KiCad,Pcbnew,(6.0.9-0)*%
%TF.CreationDate,2022-12-29T18:14:32+01:00*%
%TF.ProjectId,beamer,6265616d-6572-42e6-9b69-6361645f7063,v1.0.0*%
%TF.SameCoordinates,Original*%
%TF.FileFunction,Copper,L1,Top*%
%TF.FilePolarity,Positive*%
%FSLAX46Y46*%
G04 Gerber Fmt 4.6, Leading zero omitted, Abs format (unit mm)*
G04 Created by KiCad (PCBNEW (6.0.9-0)) date 2022-12-29 18:14:32*
%MOMM*%
%LPD*%
G01*
G04 APERTURE LIST*
G04 Aperture macros list*
%AMRotRect*
0 Rectangle, with rotation*
0 The origin of the aperture is its center*
0 $1 length*
0 $2 width*
0 $3 Rotation angle, in degrees counterclockwise*
0 Add horizontal line*
21,1,$1,$2,0,0,$3*%
%AMFreePoly0*
4,1,49,0.088388,4.152388,0.854389,3.386388,0.867708,3.368551,0.871189,3.365530,0.871982,3.362827,0.875852,3.357644,0.882333,3.327543,0.891000,3.298000,0.891000,0.766000,0.887805,0.743969,0.888131,0.739371,0.886780,0.736898,0.885852,0.730498,0.869154,0.704638,0.854389,0.677612,0.088388,-0.088388,0.064607,-0.106146,0.062500,-0.108253,0.061385,-0.108552,0.059644,-0.109852,
0.043810,-0.113261,0.000000,-0.125000,-0.004774,-0.123721,-0.009154,-0.124664,-0.028953,-0.117242,-0.062500,-0.108253,-0.068237,-0.102516,-0.075052,-0.099961,-0.087614,-0.083139,-0.108253,-0.062500,-0.111178,-0.051584,-0.117161,-0.043572,-0.118539,-0.024114,-0.125000,0.000000,-0.121239,0.014035,-0.122131,0.026629,-0.113759,0.041953,-0.108253,0.062500,-0.095642,0.075111,-0.088388,0.088388,
0.641000,0.817777,0.641000,3.246223,-0.088388,3.975612,-0.109852,4.004356,-0.124664,4.073154,-0.099961,4.139052,-0.043572,4.181161,0.026629,4.186131,0.088388,4.152388,0.088388,4.152388,$1*%
%AMFreePoly1*
4,1,6,0.600000,0.200000,0.000000,-0.400000,-0.600000,0.200000,-0.600000,0.400000,0.600000,0.400000,0.600000,0.200000,0.600000,0.200000,$1*%
%AMFreePoly2*
4,1,6,0.600000,-0.250000,-0.600000,-0.250000,-0.600000,1.000000,0.000000,0.400000,0.600000,1.000000,0.600000,-0.250000,0.600000,-0.250000,$1*%
%AMFreePoly3*
4,1,5,0.125000,-0.500000,-0.125000,-0.500000,-0.125000,0.500000,0.125000,0.500000,0.125000,-0.500000,0.125000,-0.500000,$1*%
%AMFreePoly4*
4,1,49,0.088388,4.152388,0.850389,3.390388,0.863708,3.372551,0.867189,3.369530,0.867982,3.366827,0.871852,3.361644,0.878333,3.331543,0.887000,3.302000,0.887000,0.762000,0.883805,0.739969,0.884131,0.735371,0.882780,0.732898,0.881852,0.726498,0.865154,0.700638,0.850389,0.673612,0.088388,-0.088388,0.064607,-0.106146,0.062500,-0.108253,0.061385,-0.108552,0.059644,-0.109852,
0.043810,-0.113261,0.000000,-0.125000,-0.004774,-0.123721,-0.009154,-0.124664,-0.028953,-0.117242,-0.062500,-0.108253,-0.068237,-0.102516,-0.075052,-0.099961,-0.087614,-0.083139,-0.108253,-0.062500,-0.111178,-0.051584,-0.117161,-0.043572,-0.118539,-0.024114,-0.125000,0.000000,-0.121239,0.014035,-0.122131,0.026629,-0.113759,0.041953,-0.108253,0.062500,-0.095642,0.075111,-0.088388,0.088388,
0.637000,0.813777,0.637000,3.250223,-0.088388,3.975612,-0.109852,4.004356,-0.124664,4.073154,-0.099961,4.139052,-0.043572,4.181161,0.026629,4.186131,0.088388,4.152388,0.088388,4.152388,$1*%
G04 Aperture macros list end*
%TA.AperFunction,SMDPad,CuDef*%
%ADD10R,2.600000X2.600000*%
%TD*%
%TA.AperFunction,ComponentPad*%
%ADD11R,0.900000X1.200000*%
%TD*%
%TA.AperFunction,ComponentPad*%
%ADD12C,0.600000*%
%TD*%
%TA.AperFunction,SMDPad,CuDef*%
%ADD13RotRect,2.600000X2.600000X10.000000*%
%TD*%
%TA.AperFunction,SMDPad,CuDef*%
%ADD14RotRect,2.600000X2.600000X70.000000*%
%TD*%
%TA.AperFunction,SMDPad,CuDef*%
%ADD15FreePoly0,270.000000*%
%TD*%
%TA.AperFunction,ComponentPad*%
%ADD16C,1.600000*%
%TD*%
%TA.AperFunction,SMDPad,CuDef*%
%ADD17FreePoly1,90.000000*%
%TD*%
%TA.AperFunction,SMDPad,CuDef*%
%ADD18FreePoly2,90.000000*%
%TD*%
%TA.AperFunction,SMDPad,CuDef*%
%ADD19FreePoly3,90.000000*%
%TD*%
%TA.AperFunction,ComponentPad*%
%ADD20R,1.600000X1.600000*%
%TD*%
%TA.AperFunction,SMDPad,CuDef*%
%ADD21FreePoly2,270.000000*%
%TD*%
%TA.AperFunction,SMDPad,CuDef*%
%ADD22FreePoly3,270.000000*%
%TD*%
%TA.AperFunction,SMDPad,CuDef*%
%ADD23FreePoly1,270.000000*%
%TD*%
%TA.AperFunction,SMDPad,CuDef*%
%ADD24FreePoly4,90.000000*%
%TD*%
%TA.AperFunction,ComponentPad*%
%ADD25C,0.800000*%
%TD*%
%TA.AperFunction,ComponentPad*%
%ADD26O,1.700000X1.700000*%
%TD*%
%TA.AperFunction,SMDPad,CuDef*%
%ADD27FreePoly1,0.000000*%
%TD*%
%TA.AperFunction,SMDPad,CuDef*%
%ADD28FreePoly2,0.000000*%
%TD*%
%TA.AperFunction,SMDPad,CuDef*%
%ADD29R,0.700000X1.500000*%
%TD*%
%TA.AperFunction,SMDPad,CuDef*%
%ADD30R,1.000000X0.800000*%
%TD*%
%TA.AperFunction,SMDPad,CuDef*%
%ADD31R,0.900000X1.700000*%
%TD*%
%TA.AperFunction,ComponentPad*%
%ADD32C,1.000000*%
%TD*%
%TA.AperFunction,ViaPad*%
%ADD33C,0.800000*%
%TD*%
%TA.AperFunction,Conductor*%
%ADD34C,0.250000*%
%TD*%
G04 APERTURE END LIST*
%TO.C,*%
G36*
X176507660Y-160188672D02*
G01*
X176629796Y-160188818D01*
X176735254Y-160189172D01*
X176825536Y-160189842D01*
X176902146Y-160190938D01*
X176966588Y-160192570D01*
X177020364Y-160194846D01*
X177064977Y-160197876D01*
X177101930Y-160201769D01*
X177132728Y-160206634D01*
X177158872Y-160212581D01*
X177181867Y-160219718D01*
X177203214Y-160228156D01*
X177224418Y-160238003D01*
X177230964Y-160241242D01*
X177253984Y-160254728D01*
X177288388Y-160277477D01*
X177331308Y-160307463D01*
X177379873Y-160342662D01*
X177431213Y-160381049D01*
X177456112Y-160400098D01*
X177624722Y-160530194D01*
X177779253Y-160649581D01*
X177920093Y-160758566D01*
X178047628Y-160857453D01*
X178162247Y-160946547D01*
X178264338Y-161026153D01*
X178354288Y-161096577D01*
X178432484Y-161158123D01*
X178499316Y-161211096D01*
X178555169Y-161255801D01*
X178600433Y-161292543D01*
X178635495Y-161321627D01*
X178660742Y-161343358D01*
X178676562Y-161358042D01*
X178682763Y-161365023D01*
X178698242Y-161394418D01*
X178711297Y-161430339D01*
X178715132Y-161445497D01*
X178718463Y-161503449D01*
X178705671Y-161559564D01*
X178678750Y-161610519D01*
X178639698Y-161652987D01*
X178590512Y-161683643D01*
X178566967Y-161692299D01*
X178562051Y-161693405D01*
X178554637Y-161694453D01*
X178544247Y-161695443D01*
X178530405Y-161696378D01*
X178512636Y-161697259D01*
X178490461Y-161698087D01*
X178463405Y-161698864D01*
X178430991Y-161699592D01*
X178392743Y-161700271D01*
X178348184Y-161700903D01*
X178296837Y-161701490D01*
X178238226Y-161702034D01*
X178171875Y-161702535D01*
X178097307Y-161702995D01*
X178014045Y-161703416D01*
X177921612Y-161703799D01*
X177819533Y-161704145D01*
X177707331Y-161704457D01*
X177584529Y-161704735D01*
X177450651Y-161704982D01*
X177305220Y-161705197D01*
X177147759Y-161705384D01*
X176977793Y-161705543D01*
X176794844Y-161705676D01*
X176598436Y-161705785D01*
X176388092Y-161705870D01*
X176163336Y-161705934D01*
X175923692Y-161705978D01*
X175668683Y-161706003D01*
X175397832Y-161706011D01*
X175110662Y-161706003D01*
X174806698Y-161705981D01*
X174485463Y-161705946D01*
X174177489Y-161705904D01*
X173838736Y-161705850D01*
X173517695Y-161705787D01*
X173213899Y-161705716D01*
X172926876Y-161705633D01*
X172656159Y-161705538D01*
X172401279Y-161705428D01*
X172161766Y-161705303D01*
X171937151Y-161705161D01*
X171726965Y-161705001D01*
X171530740Y-161704820D01*
X171348005Y-161704618D01*
X171178292Y-161704393D01*
X171021132Y-161704143D01*
X170876056Y-161703867D01*
X170742594Y-161703563D01*
X170620278Y-161703230D01*
X170508639Y-161702867D01*
X170407207Y-161702471D01*
X170315513Y-161702042D01*
X170233089Y-161701577D01*
X170159464Y-161701076D01*
X170094171Y-161700536D01*
X170036740Y-161699957D01*
X169986701Y-161699337D01*
X169943587Y-161698673D01*
X169906927Y-161697966D01*
X169876253Y-161697213D01*
X169851095Y-161696412D01*
X169830985Y-161695563D01*
X169815454Y-161694663D01*
X169804031Y-161693712D01*
X169796249Y-161692707D01*
X169792050Y-161691781D01*
X169745224Y-161668934D01*
X169708415Y-161638564D01*
X169671578Y-161589989D01*
X169649929Y-161535175D01*
X169643786Y-161477517D01*
X169653470Y-161420410D01*
X169679300Y-161367250D01*
X169682431Y-161362770D01*
X169693722Y-161351517D01*
X169718270Y-161330222D01*
X169754850Y-161299838D01*
X169802234Y-161261312D01*
X169859197Y-161215595D01*
X169924511Y-161163637D01*
X169996950Y-161106388D01*
X170075288Y-161044797D01*
X170158298Y-160979814D01*
X170244753Y-160912388D01*
X170333427Y-160843471D01*
X170423094Y-160774011D01*
X170512527Y-160704958D01*
X170600499Y-160637262D01*
X170685784Y-160571874D01*
X170767156Y-160509742D01*
X170843387Y-160451816D01*
X170913252Y-160399047D01*
X170975524Y-160352383D01*
X171028976Y-160312776D01*
X171072381Y-160281174D01*
X171104514Y-160258528D01*
X171124148Y-160245786D01*
X171126565Y-160244460D01*
X171148513Y-160233567D01*
X171169852Y-160224199D01*
X171192090Y-160216239D01*
X171216733Y-160209572D01*
X171245287Y-160204082D01*
X171279259Y-160199655D01*
X171320155Y-160196175D01*
X171369483Y-160193526D01*
X171428748Y-160191594D01*
X171499457Y-160190263D01*
X171583117Y-160189417D01*
X171681234Y-160188942D01*
X171795314Y-160188721D01*
X171855164Y-160188672D01*
X172383461Y-160188355D01*
X172452042Y-160281822D01*
X172573756Y-160432624D01*
X172708325Y-160571386D01*
X172854510Y-160697317D01*
X173011068Y-160809621D01*
X173176760Y-160907506D01*
X173350344Y-160990177D01*
X173530579Y-161056841D01*
X173716224Y-161106704D01*
X173754139Y-161114640D01*
X173831230Y-161129199D01*
X173899175Y-161139915D01*
X173963541Y-161147310D01*
X174029897Y-161151908D01*
X174103809Y-161154233D01*
X174181412Y-161154815D01*
X174374959Y-161147236D01*
X174560253Y-161124182D01*
X174739317Y-161085180D01*
X174914174Y-161029753D01*
X175086846Y-160957427D01*
X175146976Y-160928116D01*
X175312201Y-160834883D01*
X175469915Y-160726339D01*
X175618034Y-160604244D01*
X175754474Y-160470359D01*
X175877150Y-160326446D01*
X175909195Y-160283985D01*
X175979363Y-160188355D01*
X176507660Y-160188672D01*
G37*
G36*
X176520919Y-158251338D02*
G01*
X176598374Y-158251746D01*
X176677282Y-158252338D01*
X176755553Y-158253098D01*
X176831096Y-158254012D01*
X176901820Y-158255064D01*
X176965635Y-158256238D01*
X177020449Y-158257520D01*
X177064172Y-158258892D01*
X177094714Y-158260341D01*
X177109288Y-158261712D01*
X177128470Y-158265397D01*
X177146840Y-158269715D01*
X177165340Y-158275322D01*
X177184913Y-158282872D01*
X177206503Y-158293020D01*
X177231053Y-158306420D01*
X177259504Y-158323727D01*
X177292802Y-158345595D01*
X177331888Y-158372680D01*
X177377705Y-158405635D01*
X177431197Y-158445116D01*
X177493307Y-158491777D01*
X177564978Y-158546273D01*
X177647152Y-158609258D01*
X177740773Y-158681388D01*
X177846784Y-158763316D01*
X177966128Y-158855698D01*
X177976473Y-158863709D01*
X178092652Y-158953717D01*
X178195297Y-159033331D01*
X178285272Y-159103256D01*
X178363446Y-159164196D01*
X178430685Y-159216855D01*
X178487856Y-159261938D01*
X178535825Y-159300148D01*
X178575459Y-159332190D01*
X178607626Y-159358769D01*
X178633192Y-159380588D01*
X178653023Y-159398352D01*
X178667987Y-159412764D01*
X178678950Y-159424530D01*
X178686779Y-159434353D01*
X178692341Y-159442937D01*
X178694655Y-159447203D01*
X178714252Y-159504137D01*
X178717471Y-159562764D01*
X178705249Y-159619659D01*
X178678523Y-159671396D01*
X178638229Y-159714549D01*
X178617524Y-159729264D01*
X178573747Y-159756537D01*
X174190035Y-159758838D01*
X169806322Y-159761138D01*
X169757504Y-159735716D01*
X169709741Y-159701302D01*
X169674528Y-159656177D01*
X169652676Y-159603516D01*
X169644999Y-159546494D01*
X169652310Y-159488286D01*
X169675421Y-159432068D01*
X169678458Y-159426963D01*
X169688381Y-159416890D01*
X169711561Y-159396744D01*
X169746784Y-159367465D01*
X169792841Y-159329993D01*
X169848519Y-159285267D01*
X169912607Y-159234229D01*
X169983895Y-159177817D01*
X170061169Y-159116971D01*
X170143220Y-159052632D01*
X170228835Y-158985740D01*
X170316803Y-158917233D01*
X170405914Y-158848053D01*
X170494955Y-158779139D01*
X170582715Y-158711431D01*
X170667983Y-158645869D01*
X170749547Y-158583393D01*
X170826197Y-158524943D01*
X170896720Y-158471459D01*
X170959906Y-158423880D01*
X171014542Y-158383147D01*
X171059418Y-158350199D01*
X171093323Y-158325977D01*
X171115044Y-158311420D01*
X171119634Y-158308734D01*
X171143074Y-158296581D01*
X171165510Y-158286306D01*
X171188657Y-158277752D01*
X171214229Y-158270760D01*
X171243938Y-158265173D01*
X171279498Y-158260833D01*
X171322622Y-158257583D01*
X171375025Y-158255265D01*
X171438419Y-158253722D01*
X171514517Y-158252795D01*
X171605034Y-158252327D01*
X171711683Y-158252160D01*
X171734657Y-158252149D01*
X171838394Y-158252201D01*
X171925214Y-158252459D01*
X171996380Y-158252957D01*
X172053157Y-158253728D01*
X172096809Y-158254804D01*
X172128599Y-158256219D01*
X172149791Y-158258006D01*
X172161650Y-158260198D01*
X172165439Y-158262827D01*
X172165345Y-158263396D01*
X172123834Y-158387096D01*
X172089144Y-158522050D01*
X172062418Y-158662240D01*
X172044801Y-158801646D01*
X172037435Y-158934249D01*
X172037404Y-158936501D01*
X172035957Y-159047446D01*
X176326867Y-159047446D01*
X176325152Y-158931910D01*
X176317111Y-158792119D01*
X176297764Y-158645828D01*
X176268293Y-158499749D01*
X176229883Y-158360595D01*
X176218242Y-158325399D01*
X176207336Y-158293311D01*
X176199185Y-158268663D01*
X176195219Y-158255798D01*
X176195048Y-158254945D01*
X176203790Y-158253629D01*
X176228619Y-158252606D01*
X176267447Y-158251860D01*
X176318181Y-158251376D01*
X176378732Y-158251138D01*
X176447008Y-158251130D01*
X176520919Y-158251338D01*
G37*
G36*
X173079915Y-155816562D02*
G01*
X173248958Y-155816674D01*
X173433089Y-155816849D01*
X173632991Y-155817070D01*
X173849344Y-155817324D01*
X174082831Y-155817595D01*
X174215683Y-155817742D01*
X176463230Y-155820173D01*
X176522321Y-155840298D01*
X176563004Y-155856368D01*
X176605756Y-155876640D01*
X176631412Y-155890865D01*
X176643623Y-155899473D01*
X176669172Y-155918435D01*
X176707033Y-155946959D01*
X176756179Y-155984254D01*
X176815584Y-156029527D01*
X176884222Y-156081986D01*
X176961066Y-156140840D01*
X177045090Y-156205295D01*
X177135268Y-156274560D01*
X177230573Y-156347844D01*
X177329980Y-156424353D01*
X177432462Y-156503295D01*
X177536992Y-156583880D01*
X177642544Y-156665313D01*
X177748092Y-156746805D01*
X177852610Y-156827561D01*
X177955071Y-156906791D01*
X178054449Y-156983702D01*
X178149718Y-157057502D01*
X178239851Y-157127400D01*
X178323823Y-157192602D01*
X178400606Y-157252317D01*
X178469175Y-157305753D01*
X178528502Y-157352117D01*
X178577563Y-157390619D01*
X178615330Y-157420464D01*
X178640778Y-157440862D01*
X178652699Y-157450853D01*
X178687048Y-157494199D01*
X178709090Y-157546703D01*
X178717968Y-157603529D01*
X178712822Y-157659840D01*
X178697345Y-157702612D01*
X178670903Y-157741568D01*
X178635825Y-157776856D01*
X178597610Y-157803596D01*
X178570692Y-157814972D01*
X178560752Y-157815800D01*
X178536914Y-157816586D01*
X178498991Y-157817331D01*
X178446796Y-157818036D01*
X178380141Y-157818701D01*
X178298838Y-157819326D01*
X178202700Y-157819912D01*
X178091539Y-157820460D01*
X177965168Y-157820969D01*
X177823399Y-157821440D01*
X177666045Y-157821873D01*
X177492918Y-157822269D01*
X177303830Y-157822628D01*
X177098594Y-157822951D01*
X176877023Y-157823238D01*
X176638928Y-157823489D01*
X176384123Y-157823705D01*
X176112420Y-157823886D01*
X175823631Y-157824033D01*
X175517568Y-157824146D01*
X175194045Y-157824225D01*
X174852874Y-157824271D01*
X174493866Y-157824284D01*
X174176867Y-157824269D01*
X173834841Y-157824236D01*
X173510546Y-157824191D01*
X173203527Y-157824133D01*
X172913332Y-157824060D01*
X172639510Y-157823972D01*
X172381607Y-157823868D01*
X172139171Y-157823744D01*
X171911749Y-157823602D01*
X171698890Y-157823438D01*
X171500140Y-157823252D01*
X171315048Y-157823042D01*
X171143160Y-157822808D01*
X170984025Y-157822547D01*
X170837189Y-157822259D01*
X170702200Y-157821942D01*
X170578607Y-157821594D01*
X170465956Y-157821215D01*
X170363794Y-157820804D01*
X170271671Y-157820357D01*
X170189132Y-157819876D01*
X170115726Y-157819357D01*
X170050999Y-157818801D01*
X169994501Y-157818204D01*
X169945777Y-157817567D01*
X169904377Y-157816888D01*
X169869846Y-157816165D01*
X169841733Y-157815397D01*
X169819586Y-157814583D01*
X169802951Y-157813722D01*
X169791377Y-157812812D01*
X169784411Y-157811851D01*
X169782546Y-157811363D01*
X169732729Y-157784728D01*
X169693536Y-157746124D01*
X169665618Y-157698785D01*
X169649625Y-157645944D01*
X169646206Y-157590833D01*
X169656010Y-157536686D01*
X169679689Y-157486735D01*
X169710125Y-157450979D01*
X169720328Y-157442665D01*
X169744094Y-157423928D01*
X169780571Y-157395427D01*
X169828908Y-157357822D01*
X169888252Y-157311770D01*
X169957752Y-157257931D01*
X170036556Y-157196963D01*
X170123812Y-157129525D01*
X170218668Y-157056276D01*
X170320274Y-156977875D01*
X170427776Y-156894981D01*
X170540323Y-156808251D01*
X170657064Y-156718346D01*
X170726865Y-156664616D01*
X170872014Y-156553023D01*
X171008212Y-156448550D01*
X171134983Y-156351555D01*
X171251852Y-156262397D01*
X171358343Y-156181434D01*
X171453980Y-156109027D01*
X171538288Y-156045533D01*
X171610791Y-155991311D01*
X171671014Y-155946721D01*
X171718480Y-155912121D01*
X171752716Y-155887869D01*
X171773244Y-155874326D01*
X171776865Y-155872300D01*
X171788310Y-155866335D01*
X171798481Y-155860799D01*
X171808060Y-155855676D01*
X171817729Y-155850951D01*
X171828170Y-155846608D01*
X171840065Y-155842634D01*
X171854095Y-155839012D01*
X171870942Y-155835726D01*
X171891288Y-155832763D01*
X171915815Y-155830106D01*
X171945204Y-155827741D01*
X171980136Y-155825652D01*
X172021295Y-155823823D01*
X172069361Y-155822240D01*
X172125016Y-155820888D01*
X172188942Y-155819750D01*
X172261821Y-155818812D01*
X172344334Y-155818059D01*
X172437164Y-155817475D01*
X172540991Y-155817046D01*
X172656498Y-155816755D01*
X172784367Y-155816587D01*
X172925279Y-155816528D01*
X173079915Y-155816562D01*
G37*
%TD*%
D10*
%TO.P,,1*%
%TO.N,pinky_bottom*%
X160275000Y-150750000D03*
%TO.P,,2*%
%TO.N,P15*%
X148725000Y-152950000D03*
%TD*%
D11*
%TO.P,D1,1*%
%TO.N,P8*%
X158650000Y-161200000D03*
%TO.P,D1,2*%
%TO.N,pinky_bottom*%
X155350000Y-161200000D03*
%TD*%
D12*
%TO.P,,1*%
%TO.N,P15*%
X157000000Y-153700000D03*
%TD*%
D10*
%TO.P,,1*%
%TO.N,pinky_home*%
X160275000Y-133750000D03*
%TO.P,,2*%
%TO.N,P15*%
X148725000Y-135950000D03*
%TD*%
D11*
%TO.P,D2,1*%
%TO.N,P7*%
X158650000Y-144200000D03*
%TO.P,D2,2*%
%TO.N,pinky_home*%
X155350000Y-144200000D03*
%TD*%
D12*
%TO.P,,1*%
%TO.N,P15*%
X157000000Y-136700000D03*
%TD*%
D10*
%TO.P,,1*%
%TO.N,pinky_top*%
X160275000Y-116750000D03*
%TO.P,,2*%
%TO.N,P15*%
X148725000Y-118950000D03*
%TD*%
D11*
%TO.P,D3,1*%
%TO.N,P6*%
X158650000Y-127200000D03*
%TO.P,D3,2*%
%TO.N,pinky_top*%
X155350000Y-127200000D03*
%TD*%
D12*
%TO.P,,1*%
%TO.N,P15*%
X157000000Y-119700000D03*
%TD*%
D10*
%TO.P,,1*%
%TO.N,ring_bottom*%
X178275000Y-138000000D03*
%TO.P,,2*%
%TO.N,P18*%
X166725000Y-140200000D03*
%TD*%
D11*
%TO.P,D4,1*%
%TO.N,P8*%
X176650000Y-148450000D03*
%TO.P,D4,2*%
%TO.N,ring_bottom*%
X173350000Y-148450000D03*
%TD*%
D12*
%TO.P,,1*%
%TO.N,P18*%
X175000000Y-140950000D03*
%TD*%
D10*
%TO.P,,1*%
%TO.N,ring_home*%
X178275000Y-121000000D03*
%TO.P,,2*%
%TO.N,P18*%
X166725000Y-123200000D03*
%TD*%
D11*
%TO.P,D5,1*%
%TO.N,P7*%
X176650000Y-131450000D03*
%TO.P,D5,2*%
%TO.N,ring_home*%
X173350000Y-131450000D03*
%TD*%
D12*
%TO.P,,1*%
%TO.N,P18*%
X175000000Y-123950000D03*
%TD*%
D10*
%TO.P,,1*%
%TO.N,ring_top*%
X178275000Y-104000000D03*
%TO.P,,2*%
%TO.N,P18*%
X166725000Y-106200000D03*
%TD*%
D11*
%TO.P,D6,1*%
%TO.N,P6*%
X176650000Y-114450000D03*
%TO.P,D6,2*%
%TO.N,ring_top*%
X173350000Y-114450000D03*
%TD*%
D12*
%TO.P,,1*%
%TO.N,P18*%
X175000000Y-106950000D03*
%TD*%
D10*
%TO.P,,1*%
%TO.N,middle_bottom*%
X196275000Y-133750000D03*
%TO.P,,2*%
%TO.N,P19*%
X184725000Y-135950000D03*
%TD*%
D11*
%TO.P,D7,1*%
%TO.N,P8*%
X194650000Y-144200000D03*
%TO.P,D7,2*%
%TO.N,middle_bottom*%
X191350000Y-144200000D03*
%TD*%
D12*
%TO.P,,1*%
%TO.N,P19*%
X193000000Y-136700000D03*
%TD*%
D10*
%TO.P,,1*%
%TO.N,middle_home*%
X196275000Y-116750000D03*
%TO.P,,2*%
%TO.N,P19*%
X184725000Y-118950000D03*
%TD*%
D11*
%TO.P,D8,1*%
%TO.N,P7*%
X194650000Y-127200000D03*
%TO.P,D8,2*%
%TO.N,middle_home*%
X191350000Y-127200000D03*
%TD*%
D12*
%TO.P,,1*%
%TO.N,P19*%
X193000000Y-119700000D03*
%TD*%
D10*
%TO.P,,1*%
%TO.N,middle_top*%
X196275000Y-99750000D03*
%TO.P,,2*%
%TO.N,P19*%
X184725000Y-101950000D03*
%TD*%
D11*
%TO.P,D9,1*%
%TO.N,P6*%
X194650000Y-110200000D03*
%TO.P,D9,2*%
%TO.N,middle_top*%
X191350000Y-110200000D03*
%TD*%
D12*
%TO.P,,1*%
%TO.N,P19*%
X193000000Y-102700000D03*
%TD*%
D10*
%TO.P,,1*%
%TO.N,index_bottom*%
X214275000Y-138000000D03*
%TO.P,,2*%
%TO.N,P20*%
X202725000Y-140200000D03*
%TD*%
D11*
%TO.P,D10,1*%
%TO.N,P8*%
X212650000Y-148450000D03*
%TO.P,D10,2*%
%TO.N,index_bottom*%
X209350000Y-148450000D03*
%TD*%
D12*
%TO.P,,1*%
%TO.N,P20*%
X211000000Y-140950000D03*
%TD*%
D10*
%TO.P,,1*%
%TO.N,index_home*%
X214275000Y-121000000D03*
%TO.P,,2*%
%TO.N,P20*%
X202725000Y-123200000D03*
%TD*%
D11*
%TO.P,D11,1*%
%TO.N,P7*%
X212650000Y-131450000D03*
%TO.P,D11,2*%
%TO.N,index_home*%
X209350000Y-131450000D03*
%TD*%
D12*
%TO.P,,1*%
%TO.N,P20*%
X211000000Y-123950000D03*
%TD*%
D10*
%TO.P,,1*%
%TO.N,index_top*%
X214275000Y-104000000D03*
%TO.P,,2*%
%TO.N,P20*%
X202725000Y-106200000D03*
%TD*%
D11*
%TO.P,D12,1*%
%TO.N,P6*%
X212650000Y-114450000D03*
%TO.P,D12,2*%
%TO.N,index_top*%
X209350000Y-114450000D03*
%TD*%
D12*
%TO.P,,1*%
%TO.N,P20*%
X211000000Y-106950000D03*
%TD*%
D10*
%TO.P,,1*%
%TO.N,inner_bottom*%
X232275000Y-140550000D03*
%TO.P,,2*%
%TO.N,P21*%
X220725000Y-142750000D03*
%TD*%
D11*
%TO.P,D13,1*%
%TO.N,P8*%
X230650000Y-151000000D03*
%TO.P,D13,2*%
%TO.N,inner_bottom*%
X227350000Y-151000000D03*
%TD*%
D12*
%TO.P,,1*%
%TO.N,P21*%
X229000000Y-143500000D03*
%TD*%
D10*
%TO.P,,1*%
%TO.N,inner_home*%
X232275000Y-123550000D03*
%TO.P,,2*%
%TO.N,P21*%
X220725000Y-125750000D03*
%TD*%
D11*
%TO.P,D14,1*%
%TO.N,P7*%
X230650000Y-134000000D03*
%TO.P,D14,2*%
%TO.N,inner_home*%
X227350000Y-134000000D03*
%TD*%
D12*
%TO.P,,1*%
%TO.N,P21*%
X229000000Y-126500000D03*
%TD*%
D10*
%TO.P,,1*%
%TO.N,inner_top*%
X232275000Y-106550000D03*
%TO.P,,2*%
%TO.N,P21*%
X220725000Y-108750000D03*
%TD*%
D11*
%TO.P,D15,1*%
%TO.N,P6*%
X230650000Y-117000000D03*
%TO.P,D15,2*%
%TO.N,inner_top*%
X227350000Y-117000000D03*
%TD*%
D12*
%TO.P,,1*%
%TO.N,P21*%
X229000000Y-109500000D03*
%TD*%
D13*
%TO.P,,1*%
%TO.N,P16*%
X210052760Y-161313664D03*
%TO.P,,2*%
%TO.N,GND*%
X199060256Y-165485878D03*
%TD*%
D12*
%TO.P,,1*%
%TO.N,P16*%
X207339776Y-164787544D03*
%TD*%
%TO.P,,1*%
%TO.N,GND*%
X208381665Y-170696391D03*
%TD*%
D10*
%TO.P,,2*%
%TO.N,GND*%
X220697654Y-161987433D03*
%TO.P,,1*%
%TO.N,P9*%
X232247654Y-159787433D03*
%TD*%
D12*
%TO.P,,1*%
%TO.N,P9*%
X228972654Y-162737433D03*
%TD*%
%TO.P,,1*%
%TO.N,GND*%
X228972654Y-168737433D03*
%TD*%
D14*
%TO.P,,1*%
%TO.N,P10*%
X247306258Y-159846241D03*
%TO.P,,2*%
%TO.N,GND*%
X245423249Y-171452135D03*
%TD*%
D12*
%TO.P,,1*%
%TO.N,P10*%
X248958235Y-163932694D03*
%TD*%
%TO.P,,1*%
%TO.N,GND*%
X254596391Y-165984815D03*
%TD*%
D15*
%TO.P,,2*%
%TO.N,GND*%
X249817000Y-116070000D03*
D16*
%TO.P,,*%
%TO.N,*%
X241435000Y-113530000D03*
X241435000Y-116070000D03*
X241435000Y-118610000D03*
X241435000Y-121150000D03*
X241435000Y-123690000D03*
X241435000Y-126230000D03*
X241435000Y-128770000D03*
X241435000Y-131310000D03*
X241435000Y-133850000D03*
X241435000Y-136390000D03*
X241435000Y-138930000D03*
X241435000Y-141470000D03*
X256675000Y-141470000D03*
X256675000Y-138930000D03*
X256675000Y-136390000D03*
X256675000Y-133850000D03*
X256675000Y-131310000D03*
X256675000Y-128770000D03*
X256675000Y-126230000D03*
X256675000Y-123690000D03*
X256675000Y-121150000D03*
X256675000Y-118610000D03*
X256675000Y-116070000D03*
X256675000Y-113530000D03*
D17*
X243213000Y-113530000D03*
D18*
%TO.P,,24*%
%TO.N,P1*%
X244229000Y-113530000D03*
D19*
%TO.P,,*%
%TO.N,*%
X242705000Y-113530000D03*
D20*
X241435000Y-113530000D03*
D19*
X242705000Y-116070000D03*
D17*
X243213000Y-116070000D03*
D18*
%TO.P,,23*%
%TO.N,P0*%
X244229000Y-116070000D03*
D19*
%TO.P,,*%
%TO.N,*%
X242705000Y-118610000D03*
D17*
X243213000Y-118610000D03*
D18*
%TO.P,,22*%
%TO.N,GND*%
X244229000Y-118610000D03*
D19*
%TO.P,,*%
%TO.N,*%
X242705000Y-121150000D03*
D17*
X243213000Y-121150000D03*
D18*
%TO.P,,21*%
%TO.N,GND*%
X244229000Y-121150000D03*
D19*
%TO.P,,*%
%TO.N,*%
X242705000Y-123690000D03*
D17*
X243213000Y-123690000D03*
D18*
%TO.P,,20*%
%TO.N,P2*%
X244229000Y-123690000D03*
D19*
%TO.P,,*%
%TO.N,*%
X242705000Y-126230000D03*
D17*
X243213000Y-126230000D03*
D18*
%TO.P,,19*%
%TO.N,P3*%
X244229000Y-126230000D03*
D19*
%TO.P,,*%
%TO.N,*%
X242705000Y-128770000D03*
D17*
X243213000Y-128770000D03*
D18*
%TO.P,,18*%
%TO.N,P4*%
X244229000Y-128770000D03*
D19*
%TO.P,,*%
%TO.N,*%
X242705000Y-131310000D03*
D17*
X243213000Y-131310000D03*
D18*
%TO.P,,17*%
%TO.N,P5*%
X244229000Y-131310000D03*
D19*
%TO.P,,*%
%TO.N,*%
X242705000Y-133850000D03*
D17*
X243213000Y-133850000D03*
D18*
%TO.P,,16*%
%TO.N,P6*%
X244229000Y-133850000D03*
D19*
%TO.P,,*%
%TO.N,*%
X242705000Y-136390000D03*
D17*
X243213000Y-136390000D03*
D18*
%TO.P,,15*%
%TO.N,P7*%
X244229000Y-136390000D03*
D19*
%TO.P,,*%
%TO.N,*%
X242705000Y-138930000D03*
D17*
X243213000Y-138930000D03*
D18*
%TO.P,,14*%
%TO.N,P8*%
X244229000Y-138930000D03*
D19*
%TO.P,,*%
%TO.N,*%
X242705000Y-141470000D03*
D17*
X243213000Y-141470000D03*
D18*
%TO.P,,13*%
%TO.N,P9*%
X244229000Y-141470000D03*
D21*
%TO.P,,1*%
%TO.N,RAW*%
X253881000Y-113530000D03*
%TO.P,,3*%
%TO.N,RST*%
X253881000Y-118610000D03*
D22*
%TO.P,,*%
%TO.N,*%
X255405000Y-118610000D03*
D23*
X254897000Y-118610000D03*
X254897000Y-113530000D03*
D22*
X255405000Y-116070000D03*
D21*
%TO.P,,2*%
%TO.N,GND*%
X253881000Y-116070000D03*
D22*
%TO.P,,*%
%TO.N,*%
X255405000Y-113530000D03*
D21*
%TO.P,,4*%
%TO.N,VCC*%
X253881000Y-121150000D03*
D23*
%TO.P,,*%
%TO.N,*%
X254897000Y-116070000D03*
X254897000Y-121150000D03*
D21*
%TO.P,,6*%
%TO.N,P20*%
X253881000Y-126230000D03*
%TO.P,,7*%
%TO.N,P19*%
X253881000Y-128770000D03*
D22*
%TO.P,,*%
%TO.N,*%
X255405000Y-141470000D03*
D23*
X254897000Y-128770000D03*
D22*
X255405000Y-136390000D03*
D21*
%TO.P,,8*%
%TO.N,P18*%
X253881000Y-131310000D03*
D22*
%TO.P,,*%
%TO.N,*%
X255405000Y-128770000D03*
D21*
%TO.P,,12*%
%TO.N,P10*%
X253881000Y-141470000D03*
D23*
%TO.P,,*%
%TO.N,*%
X254897000Y-131310000D03*
D22*
X255405000Y-133850000D03*
D23*
X254897000Y-141470000D03*
D22*
X255405000Y-123690000D03*
X255405000Y-131310000D03*
X255405000Y-126230000D03*
D21*
%TO.P,,9*%
%TO.N,P15*%
X253881000Y-133850000D03*
D22*
%TO.P,,*%
%TO.N,*%
X255405000Y-121150000D03*
D23*
X254897000Y-123690000D03*
X254897000Y-126230000D03*
X254897000Y-133850000D03*
D21*
%TO.P,,10*%
%TO.N,P14*%
X253881000Y-136390000D03*
D23*
%TO.P,,*%
%TO.N,*%
X254897000Y-136390000D03*
X254897000Y-138930000D03*
D21*
%TO.P,,11*%
%TO.N,P16*%
X253881000Y-138930000D03*
D22*
%TO.P,,*%
%TO.N,*%
X255405000Y-138930000D03*
D21*
%TO.P,,5*%
%TO.N,P21*%
X253881000Y-123690000D03*
D24*
%TO.P,,23*%
%TO.N,P0*%
X248293000Y-116070000D03*
D25*
%TO.P,,2*%
%TO.N,GND*%
X249817000Y-116070000D03*
%TO.P,,23*%
%TO.N,P0*%
X248293000Y-116070000D03*
%TO.P,,24*%
%TO.N,P1*%
X248293000Y-113530000D03*
%TO.P,,1*%
%TO.N,RAW*%
X249817000Y-113530000D03*
D15*
X249817000Y-113530000D03*
D24*
%TO.P,,24*%
%TO.N,P1*%
X248293000Y-113530000D03*
D25*
%TO.P,,22*%
%TO.N,GND*%
X248293000Y-118610000D03*
%TO.P,,3*%
%TO.N,RST*%
X249817000Y-118610000D03*
D15*
X249817000Y-118610000D03*
D24*
%TO.P,,22*%
%TO.N,GND*%
X248293000Y-118610000D03*
D25*
%TO.P,,21*%
X248293000Y-121150000D03*
%TO.P,,4*%
%TO.N,VCC*%
X249817000Y-121150000D03*
D15*
X249817000Y-121150000D03*
D24*
%TO.P,,21*%
%TO.N,GND*%
X248293000Y-121150000D03*
D25*
%TO.P,,20*%
%TO.N,P2*%
X248293000Y-123690000D03*
%TO.P,,5*%
%TO.N,P21*%
X249817000Y-123690000D03*
D15*
X249817000Y-123690000D03*
D24*
%TO.P,,20*%
%TO.N,P2*%
X248293000Y-123690000D03*
D25*
%TO.P,,19*%
%TO.N,P3*%
X248293000Y-126230000D03*
%TO.P,,6*%
%TO.N,P20*%
X249817000Y-126230000D03*
D15*
X249817000Y-126230000D03*
D24*
%TO.P,,19*%
%TO.N,P3*%
X248293000Y-126230000D03*
D25*
%TO.P,,18*%
%TO.N,P4*%
X248293000Y-128770000D03*
%TO.P,,7*%
%TO.N,P19*%
X249817000Y-128770000D03*
D15*
X249817000Y-128770000D03*
D24*
%TO.P,,18*%
%TO.N,P4*%
X248293000Y-128770000D03*
D25*
%TO.P,,17*%
%TO.N,P5*%
X248293000Y-131310000D03*
%TO.P,,8*%
%TO.N,P18*%
X249817000Y-131310000D03*
D15*
X249817000Y-131310000D03*
D24*
%TO.P,,17*%
%TO.N,P5*%
X248293000Y-131310000D03*
D25*
%TO.P,,16*%
%TO.N,P6*%
X248293000Y-133850000D03*
%TO.P,,9*%
%TO.N,P15*%
X249817000Y-133850000D03*
D15*
X249817000Y-133850000D03*
D24*
%TO.P,,16*%
%TO.N,P6*%
X248293000Y-133850000D03*
D25*
%TO.P,,15*%
%TO.N,P7*%
X248293000Y-136390000D03*
%TO.P,,10*%
%TO.N,P14*%
X249817000Y-136390000D03*
D15*
X249817000Y-136390000D03*
D24*
%TO.P,,15*%
%TO.N,P7*%
X248293000Y-136390000D03*
D25*
%TO.P,,14*%
%TO.N,P8*%
X248293000Y-138930000D03*
%TO.P,,11*%
%TO.N,P16*%
X249817000Y-138930000D03*
D15*
X249817000Y-138930000D03*
D24*
%TO.P,,14*%
%TO.N,P8*%
X248293000Y-138930000D03*
D25*
%TO.P,,13*%
%TO.N,P9*%
X248293000Y-141470000D03*
%TO.P,,12*%
%TO.N,P10*%
X249817000Y-141470000D03*
D15*
X249817000Y-141470000D03*
D24*
%TO.P,,13*%
%TO.N,P9*%
X248293000Y-141470000D03*
%TD*%
D26*
%TO.P,,5*%
%TO.N,SCRN_1*%
X243975000Y-145400000D03*
%TO.P,,4*%
%TO.N,SCRN_2*%
X246515000Y-145400000D03*
%TO.P,,3*%
%TO.N,VCC*%
X249055000Y-145400000D03*
%TO.P,,2*%
%TO.N,SCRN_4*%
X251595000Y-145400000D03*
%TO.P,,1*%
%TO.N,SCRN_5*%
X254135000Y-145400000D03*
%TD*%
D27*
%TO.P,,*%
%TO.N,SCRN_1*%
X243983000Y-147204000D03*
D28*
%TO.N,P1*%
X243983000Y-148220000D03*
%TD*%
D27*
%TO.P,,*%
%TO.N,SCRN_2*%
X246523000Y-147204000D03*
D28*
%TO.N,GND*%
X246523000Y-148220000D03*
%TD*%
%TO.P,,*%
%TO.N,P3*%
X251603000Y-148220000D03*
D27*
%TO.N,SCRN_4*%
X251603000Y-147204000D03*
%TD*%
%TO.P,,*%
%TO.N,SCRN_5*%
X254143000Y-147204000D03*
D28*
%TO.N,P2*%
X254143000Y-148220000D03*
%TD*%
D29*
%TO.P,,1*%
%TO.N,pos*%
X256460000Y-153300000D03*
%TO.P,,2*%
%TO.N,RAW*%
X256460000Y-150300000D03*
%TO.P,,3*%
%TO.N,N/C*%
X256460000Y-148800000D03*
D30*
%TO.P,,*%
%TO.N,*%
X259320000Y-154700000D03*
X259320000Y-147400000D03*
X257110000Y-147400000D03*
X257110000Y-154700000D03*
%TD*%
D31*
%TO.P,,1*%
%TO.N,RST*%
X243555000Y-156490000D03*
%TO.P,,2*%
%TO.N,GND*%
X240155000Y-156490000D03*
%TD*%
D32*
%TO.P,,1*%
%TO.N,pos*%
X240255000Y-149390000D03*
%TO.P,,2*%
%TO.N,GND*%
X240255000Y-150890000D03*
%TD*%
D33*
%TO.N,P16*%
X246235780Y-139410024D03*
%TO.N,P3*%
X249000000Y-148220000D03*
%TO.N,P2*%
X251754225Y-149542193D03*
%TO.N,P1*%
X244552608Y-149814206D03*
%TO.N,GND*%
X247837403Y-149267229D03*
%TO.N,RST*%
X241114455Y-154256464D03*
%TO.N,RAW*%
X254659212Y-150814567D03*
%TO.N,pos*%
X253394996Y-151054183D03*
%TD*%
D34*
%TO.N,GND*%
X228972654Y-168737433D02*
X235057608Y-168737433D01*
X235057608Y-168737433D02*
X240155000Y-163640041D01*
X240155000Y-163640041D02*
X240155000Y-156490000D01*
X240255000Y-150890000D02*
X239547894Y-150890000D01*
X239547894Y-150890000D02*
X238736289Y-151701605D01*
X239464695Y-156490000D02*
X240155000Y-156490000D01*
X238736289Y-151701605D02*
X238736289Y-155761594D01*
X238736289Y-155761594D02*
X239464695Y-156490000D01*
%TO.N,VCC*%
X249817000Y-121150000D02*
X249044778Y-121922222D01*
X249044778Y-121922222D02*
X249044778Y-145389778D01*
X249044778Y-145389778D02*
X249045463Y-145390463D01*
X249045463Y-138045463D02*
X249000000Y-138000000D01*
X249055000Y-140001260D02*
X249056260Y-140000000D01*
%TO.N,GND*%
X247837403Y-149267229D02*
X247837403Y-148245294D01*
X247837403Y-148245294D02*
X248695967Y-147386730D01*
X248695967Y-147386730D02*
X249849373Y-147386730D01*
X249849373Y-147386730D02*
X250318180Y-146917923D01*
X250318180Y-146917923D02*
X250318180Y-144418267D01*
X251741570Y-142994877D02*
X257010244Y-142994877D01*
X250318180Y-144418267D02*
X251741570Y-142994877D01*
X257010244Y-142994877D02*
X257800000Y-142205121D01*
X257800000Y-142205121D02*
X257800000Y-120640734D01*
X257800000Y-120640734D02*
X257159266Y-120000000D01*
X257159266Y-120000000D02*
X249683000Y-120000000D01*
X249683000Y-120000000D02*
X248293000Y-118610000D01*
%TO.N,RST*%
X243555000Y-156490000D02*
X246510000Y-156490000D01*
X246510000Y-156490000D02*
X254000000Y-149000000D01*
X254000000Y-149000000D02*
X254663000Y-149000000D01*
X254663000Y-149000000D02*
X255225947Y-148437053D01*
X255225947Y-148437053D02*
X255225947Y-147097657D01*
X255225947Y-147097657D02*
X258250000Y-144073604D01*
X258250000Y-144073604D02*
X258250000Y-118145739D01*
X258250000Y-118145739D02*
X257473216Y-117368955D01*
X257473216Y-117368955D02*
X251058045Y-117368955D01*
X251058045Y-117368955D02*
X249817000Y-118610000D01*
%TO.N,RAW*%
X254659212Y-150814567D02*
X255675947Y-149797832D01*
X255675947Y-149797832D02*
X255675947Y-147284053D01*
X255675947Y-147284053D02*
X258700000Y-144260000D01*
X258700000Y-144260000D02*
X258700000Y-116244641D01*
X258700000Y-116244641D02*
X257254622Y-114799263D01*
X257254622Y-114799263D02*
X251086263Y-114799263D01*
X251086263Y-114799263D02*
X249817000Y-113530000D01*
%TO.N,P16*%
X246235780Y-139410024D02*
X246235780Y-139431804D01*
X245612584Y-140055000D02*
X241094700Y-140055000D01*
X210763205Y-161313664D02*
X210052760Y-161313664D01*
X225118793Y-159795174D02*
X212281695Y-159795174D01*
X231797654Y-153265950D02*
X231797654Y-156725687D01*
X227421902Y-157492065D02*
X225118793Y-159795174D01*
X240310000Y-140839700D02*
X240310000Y-144753604D01*
X240310000Y-144753604D02*
X231797654Y-153265950D01*
X231797654Y-156725687D02*
X231031276Y-157492065D01*
X241094700Y-140055000D02*
X240310000Y-140839700D01*
X231031276Y-157492065D02*
X227421902Y-157492065D01*
X246235780Y-139431804D02*
X245612584Y-140055000D01*
X212281695Y-159795174D02*
X210763205Y-161313664D01*
%TO.N,P10*%
X246169237Y-159345616D02*
X246988060Y-160164439D01*
%TO.N,RST*%
X242402074Y-154256464D02*
X243555000Y-155409390D01*
X243555000Y-155409390D02*
X243555000Y-156490000D01*
X241114455Y-154256464D02*
X242402074Y-154256464D01*
%TO.N,P1*%
X244552608Y-149814206D02*
X243983000Y-149244598D01*
X243983000Y-149244598D02*
X243983000Y-148220000D01*
%TO.N,GND*%
X247837403Y-149267229D02*
X246214632Y-150890000D01*
X246214632Y-150890000D02*
X240255000Y-150890000D01*
X247837403Y-149267229D02*
X247570229Y-149267229D01*
X247570229Y-149267229D02*
X246523000Y-148220000D01*
%TO.N,P16*%
X210052760Y-161313664D02*
X210052760Y-162481997D01*
X210052760Y-162481997D02*
X207747213Y-164787544D01*
X207747213Y-164787544D02*
X207339776Y-164787544D01*
%TO.N,GND*%
X199060256Y-165485878D02*
X199060256Y-166507957D01*
X199060256Y-166507957D02*
X200264410Y-167712111D01*
X200264410Y-167712111D02*
X200264410Y-169583387D01*
X200264410Y-169583387D02*
X201377414Y-170696391D01*
X201377414Y-170696391D02*
X208381665Y-170696391D01*
X222886351Y-164176130D02*
X224812382Y-164176130D01*
X224812382Y-164176130D02*
X225808328Y-165172076D01*
X225808328Y-165172076D02*
X225808328Y-166508328D01*
X220697654Y-161987433D02*
X222886351Y-164176130D01*
X228037433Y-168737433D02*
X228972654Y-168737433D01*
X225808328Y-166508328D02*
X228037433Y-168737433D01*
%TO.N,P9*%
X232247654Y-159787433D02*
X232247654Y-160318787D01*
X232247654Y-160318787D02*
X229829008Y-162737433D01*
X229829008Y-162737433D02*
X228972654Y-162737433D01*
%TO.N,GND*%
X245423249Y-171452135D02*
X246444365Y-171452135D01*
X246444365Y-171452135D02*
X250041913Y-167854587D01*
X250041913Y-167854587D02*
X252969927Y-167854587D01*
X252969927Y-167854587D02*
X254596391Y-166228123D01*
X254596391Y-166228123D02*
X254596391Y-165984815D01*
%TO.N,P21*%
X220725000Y-108750000D02*
X222925769Y-110950769D01*
X222925769Y-110950769D02*
X226270769Y-110950769D01*
X226270769Y-110950769D02*
X227721538Y-109500000D01*
X227721538Y-109500000D02*
X229000000Y-109500000D01*
%TO.N,inner_top*%
X232275000Y-106550000D02*
X231686171Y-107138829D01*
X231686171Y-114313829D02*
X230618449Y-115381551D01*
X231686171Y-107138829D02*
X231686171Y-114313829D01*
X230618449Y-115381551D02*
X228618449Y-115381551D01*
X228618449Y-115381551D02*
X227350000Y-116650000D01*
X227350000Y-116650000D02*
X227350000Y-117000000D01*
%TO.N,P21*%
X220725000Y-125750000D02*
X222955480Y-127980480D01*
X222955480Y-127980480D02*
X226066274Y-127980480D01*
X226066274Y-127980480D02*
X227546754Y-126500000D01*
X227546754Y-126500000D02*
X229000000Y-126500000D01*
%TO.N,inner_home*%
X232275000Y-123550000D02*
X231595095Y-124229905D01*
X231595095Y-130731273D02*
X230042668Y-132283700D01*
X231595095Y-124229905D02*
X231595095Y-130731273D01*
X230042668Y-132283700D02*
X228653654Y-132283700D01*
X228653654Y-132283700D02*
X227350000Y-133587354D01*
X227350000Y-133587354D02*
X227350000Y-134000000D01*
%TO.N,index_bottom*%
X214275000Y-138000000D02*
X213726619Y-138548381D01*
X213726619Y-138548381D02*
X213726619Y-145219633D01*
X213726619Y-145219633D02*
X212128651Y-146817601D01*
X212128651Y-146817601D02*
X210605588Y-146817601D01*
X210605588Y-146817601D02*
X209350000Y-148073189D01*
X209350000Y-148073189D02*
X209350000Y-148450000D01*
%TO.N,P20*%
X202725000Y-140200000D02*
X204898253Y-142373253D01*
X208383414Y-142373253D02*
X209806667Y-140950000D01*
X204898253Y-142373253D02*
X208383414Y-142373253D01*
X209806667Y-140950000D02*
X211000000Y-140950000D01*
X202725000Y-123200000D02*
X204854513Y-125329513D01*
X204854513Y-125329513D02*
X208270421Y-125329513D01*
X208270421Y-125329513D02*
X209649934Y-123950000D01*
X209649934Y-123950000D02*
X211000000Y-123950000D01*
%TO.N,index_home*%
X214275000Y-121000000D02*
X213550499Y-121724501D01*
X211958094Y-129771484D02*
X210700933Y-129771484D01*
X213550499Y-121724501D02*
X213550499Y-128179079D01*
X209350000Y-131122417D02*
X209350000Y-131450000D01*
X213550499Y-128179079D02*
X211958094Y-129771484D01*
X210700933Y-129771484D02*
X209350000Y-131122417D01*
%TO.N,index_top*%
X214275000Y-104000000D02*
X213554240Y-104720760D01*
X213554240Y-104720760D02*
X213554240Y-111445760D01*
X209350000Y-114065680D02*
X209350000Y-114450000D01*
X213554240Y-111445760D02*
X212298077Y-112701923D01*
X212298077Y-112701923D02*
X210713757Y-112701923D01*
X210713757Y-112701923D02*
X209350000Y-114065680D01*
%TO.N,P20*%
X202725000Y-106200000D02*
X204908464Y-108383464D01*
X204908464Y-108383464D02*
X208150392Y-108383464D01*
X208150392Y-108383464D02*
X209583856Y-106950000D01*
X209583856Y-106950000D02*
X211000000Y-106950000D01*
%TO.N,middle_home*%
X196275000Y-116750000D02*
X195566896Y-117458104D01*
X192616832Y-125674171D02*
X191350000Y-126941003D01*
X195566896Y-117458104D02*
X195566896Y-124547783D01*
X195566896Y-124547783D02*
X194440508Y-125674171D01*
X194440508Y-125674171D02*
X192616832Y-125674171D01*
X191350000Y-126941003D02*
X191350000Y-127200000D01*
%TO.N,P19*%
X184725000Y-118950000D02*
X186970436Y-121195436D01*
X186970436Y-121195436D02*
X190310417Y-121195436D01*
X190310417Y-121195436D02*
X191805853Y-119700000D01*
X191805853Y-119700000D02*
X193000000Y-119700000D01*
%TO.N,middle_top*%
X196275000Y-99750000D02*
X195596851Y-100428149D01*
X195596851Y-100428149D02*
X195596851Y-107085250D01*
X192651169Y-108558092D02*
X191350000Y-109859261D01*
X195596851Y-107085250D02*
X194124009Y-108558092D01*
X194124009Y-108558092D02*
X192651169Y-108558092D01*
X191350000Y-109859261D02*
X191350000Y-110200000D01*
%TO.N,P19*%
X184725000Y-101950000D02*
X186837051Y-104062051D01*
X186837051Y-104062051D02*
X190325630Y-104062051D01*
X190325630Y-104062051D02*
X191687681Y-102700000D01*
X191687681Y-102700000D02*
X193000000Y-102700000D01*
%TO.N,P18*%
X166725000Y-106200000D02*
X168896252Y-108371252D01*
X173551099Y-106950000D02*
X175000000Y-106950000D01*
X168896252Y-108371252D02*
X172129847Y-108371252D01*
X172129847Y-108371252D02*
X173551099Y-106950000D01*
%TO.N,ring_top*%
X178275000Y-104000000D02*
X177574068Y-104700932D01*
X176410419Y-112527146D02*
X174997415Y-112527146D01*
X177574068Y-104700932D02*
X177574068Y-111363497D01*
X177574068Y-111363497D02*
X176410419Y-112527146D01*
X173350000Y-114174561D02*
X173350000Y-114450000D01*
X174997415Y-112527146D02*
X173350000Y-114174561D01*
%TO.N,ring_home*%
X178275000Y-121000000D02*
X177698745Y-121576255D01*
X174831178Y-129524753D02*
X173350000Y-131005931D01*
X177698745Y-128301255D02*
X176475247Y-129524753D01*
X176475247Y-129524753D02*
X174831178Y-129524753D01*
X177698745Y-121576255D02*
X177698745Y-128301255D01*
X173350000Y-131005931D02*
X173350000Y-131450000D01*
%TO.N,P18*%
X166725000Y-123200000D02*
X168935418Y-125410418D01*
X168935418Y-125410418D02*
X172420760Y-125410418D01*
X172420760Y-125410418D02*
X173881178Y-123950000D01*
X173881178Y-123950000D02*
X175000000Y-123950000D01*
X166725000Y-140200000D02*
X168927366Y-142402366D01*
X172126535Y-142402366D02*
X173578901Y-140950000D01*
X168927366Y-142402366D02*
X172126535Y-142402366D01*
X173578901Y-140950000D02*
X175000000Y-140950000D01*
%TO.N,P6*%
X240170139Y-132550219D02*
X246993219Y-132550219D01*
X232665387Y-117000000D02*
X239415802Y-123750415D01*
X230650000Y-117000000D02*
X232665387Y-117000000D01*
X239415802Y-131795882D02*
X240170139Y-132550219D01*
X239415802Y-123750415D02*
X239415802Y-131795882D01*
X246993219Y-132550219D02*
X248293000Y-133850000D01*
%TO.N,P8*%
X158650000Y-161200000D02*
X160700382Y-161200000D01*
X160700382Y-161200000D02*
X165179955Y-156720427D01*
X165179955Y-156720427D02*
X165179955Y-153019008D01*
X165179955Y-153019008D02*
X168191374Y-150007589D01*
X175901789Y-150007589D02*
X176650000Y-149259378D01*
X168191374Y-150007589D02*
X175901789Y-150007589D01*
X176650000Y-149259378D02*
X176650000Y-148450000D01*
%TO.N,pinky_top*%
X160275000Y-116750000D02*
X159556982Y-117468018D01*
X156766353Y-125560755D02*
X155350000Y-126977108D01*
X159556982Y-124130187D02*
X158126414Y-125560755D01*
X159556982Y-117468018D02*
X159556982Y-124130187D01*
X158126414Y-125560755D02*
X156766353Y-125560755D01*
X155350000Y-126977108D02*
X155350000Y-127200000D01*
%TO.N,P15*%
X148725000Y-118950000D02*
X150885942Y-121110942D01*
X155747012Y-119700000D02*
X157000000Y-119700000D01*
X150885942Y-121110942D02*
X154336070Y-121110942D01*
X154336070Y-121110942D02*
X155747012Y-119700000D01*
%TO.N,P8*%
X239860000Y-138594959D02*
X240834601Y-137620358D01*
X240834601Y-137620358D02*
X246983358Y-137620358D01*
X233427208Y-151000000D02*
X239860000Y-144567208D01*
X230650000Y-151000000D02*
X233427208Y-151000000D01*
X239860000Y-144567208D02*
X239860000Y-138594959D01*
X246983358Y-137620358D02*
X248293000Y-138930000D01*
X212650000Y-148450000D02*
X212650000Y-149875651D01*
X212650000Y-149875651D02*
X212660351Y-149886002D01*
X212660351Y-149886002D02*
X222329120Y-149886002D01*
X222329120Y-149886002D02*
X224693899Y-152250781D01*
X224693899Y-152250781D02*
X229399219Y-152250781D01*
X229399219Y-152250781D02*
X230650000Y-151000000D01*
X194650000Y-144200000D02*
X200035572Y-144200000D01*
X200035572Y-144200000D02*
X205722746Y-149887174D01*
X205722746Y-149887174D02*
X212650000Y-149887174D01*
X212650000Y-149887174D02*
X212650000Y-148450000D01*
X176650000Y-148450000D02*
X180054638Y-148450000D01*
X180054638Y-148450000D02*
X182292485Y-146212153D01*
X182292485Y-146212153D02*
X193518532Y-146212153D01*
X193518532Y-146212153D02*
X194650000Y-145080685D01*
X194650000Y-145080685D02*
X194650000Y-144200000D01*
%TO.N,P19*%
X184725000Y-135950000D02*
X186894465Y-138119465D01*
X186894465Y-138119465D02*
X190303302Y-138119465D01*
X190303302Y-138119465D02*
X191722767Y-136700000D01*
X191722767Y-136700000D02*
X193000000Y-136700000D01*
%TO.N,middle_bottom*%
X196275000Y-133750000D02*
X195609682Y-134415318D01*
X195609682Y-140853757D02*
X194126677Y-142336762D01*
X194126677Y-142336762D02*
X192736358Y-142336762D01*
X195609682Y-134415318D02*
X195609682Y-140853757D01*
X192736358Y-142336762D02*
X191350000Y-143723120D01*
X191350000Y-143723120D02*
X191350000Y-144200000D01*
%TO.N,ring_bottom*%
X177704437Y-138570563D02*
X177704437Y-145099899D01*
X176082400Y-146721936D02*
X174599393Y-146721936D01*
X177704437Y-145099899D02*
X176082400Y-146721936D01*
X178275000Y-138000000D02*
X177704437Y-138570563D01*
X174599393Y-146721936D02*
X173350000Y-147971329D01*
X173350000Y-147971329D02*
X173350000Y-148450000D01*
%TO.N,P15*%
X148725000Y-135950000D02*
X150885906Y-138110906D01*
X150885906Y-138110906D02*
X154261584Y-138110906D01*
X154261584Y-138110906D02*
X155672490Y-136700000D01*
X155672490Y-136700000D02*
X157000000Y-136700000D01*
%TO.N,pinky_home*%
X160275000Y-133750000D02*
X159670356Y-134354644D01*
X159670356Y-134354644D02*
X159670356Y-140855062D01*
X159670356Y-140855062D02*
X157960229Y-142565189D01*
X157960229Y-142565189D02*
X156984811Y-142565189D01*
X156984811Y-142565189D02*
X155350000Y-144200000D01*
%TO.N,P15*%
X148725000Y-152950000D02*
X150925903Y-155150903D01*
X150925903Y-155150903D02*
X154188553Y-155150903D01*
X154188553Y-155150903D02*
X155639456Y-153700000D01*
X155639456Y-153700000D02*
X157000000Y-153700000D01*
%TO.N,pinky_bottom*%
X160275000Y-150750000D02*
X159591757Y-151433243D01*
X159591757Y-151433243D02*
X159591757Y-158200712D01*
X156884420Y-159665580D02*
X155350000Y-161200000D01*
X159591757Y-158200712D02*
X158126889Y-159665580D01*
X158126889Y-159665580D02*
X156884420Y-159665580D01*
%TO.N,GND*%
X248293000Y-118610000D02*
X248293000Y-117594000D01*
X248293000Y-117594000D02*
X249817000Y-116070000D01*
X248293000Y-121150000D02*
X248293000Y-118610000D01*
%TO.N,P19*%
X184725000Y-118950000D02*
X184725000Y-101950000D01*
X184725000Y-135950000D02*
X184725000Y-118950000D01*
%TO.N,P7*%
X230650000Y-134000000D02*
X231625000Y-134975000D01*
X231625000Y-134975000D02*
X246878000Y-134975000D01*
X246878000Y-134975000D02*
X248293000Y-136390000D01*
%TO.N,P21*%
X220725000Y-108750000D02*
X220725000Y-125750000D01*
X220725000Y-142750000D02*
X220725000Y-125750000D01*
%TO.N,P20*%
X202725000Y-123200000D02*
X202725000Y-140200000D01*
X202725000Y-106200000D02*
X202725000Y-123200000D01*
%TO.N,P18*%
X166725000Y-123200000D02*
X166725000Y-106200000D01*
X166725000Y-140200000D02*
X166725000Y-123200000D01*
%TO.N,P15*%
X148725000Y-135950000D02*
X148725000Y-118950000D01*
X148725000Y-152950000D02*
X148725000Y-135950000D01*
%TO.N,P21*%
X220725000Y-142750000D02*
X222911632Y-144936632D01*
X222911632Y-144936632D02*
X226275818Y-144936632D01*
X226275818Y-144936632D02*
X227712450Y-143500000D01*
X227712450Y-143500000D02*
X229000000Y-143500000D01*
%TO.N,inner_bottom*%
X232275000Y-140550000D02*
X231567358Y-141257642D01*
X231567358Y-141257642D02*
X231567358Y-147665601D01*
X231567358Y-147665601D02*
X228232959Y-151000000D01*
X228232959Y-151000000D02*
X227350000Y-151000000D01*
%TO.N,P8*%
X212650000Y-148450000D02*
X212650000Y-148600000D01*
%TO.N,P2*%
X251754225Y-149542193D02*
X253076418Y-148220000D01*
X253076418Y-148220000D02*
X254143000Y-148220000D01*
%TO.N,SCRN_5*%
X254143000Y-147204000D02*
X254143000Y-145408000D01*
X254143000Y-145408000D02*
X254135000Y-145400000D01*
%TO.N,SCRN_4*%
X251603000Y-147204000D02*
X251603000Y-145408000D01*
X251603000Y-145408000D02*
X251595000Y-145400000D01*
%TO.N,SCRN_2*%
X246523000Y-147204000D02*
X246523000Y-145408000D01*
X246523000Y-145408000D02*
X246515000Y-145400000D01*
%TO.N,SCRN_1*%
X243983000Y-147204000D02*
X243983000Y-145408000D01*
X243983000Y-145408000D02*
X243975000Y-145400000D01*
%TO.N,P3*%
X251603000Y-148220000D02*
X249000000Y-148220000D01*
%TO.N,RAW*%
X254659212Y-150814567D02*
X255173779Y-150300000D01*
X255173779Y-150300000D02*
X256460000Y-150300000D01*
%TO.N,pos*%
X253394996Y-151054183D02*
X253394996Y-151072316D01*
X253394996Y-151072316D02*
X255622680Y-153300000D01*
X255622680Y-153300000D02*
X256460000Y-153300000D01*
%TO.N,RAW*%
X256460000Y-150300000D02*
X256177000Y-150300000D01*
%TO.N,P9*%
X232247654Y-159787433D02*
X232247654Y-153452346D01*
X232247654Y-153452346D02*
X243004778Y-142695222D01*
X243004778Y-142695222D02*
X247067778Y-142695222D01*
X247067778Y-142695222D02*
X248293000Y-141470000D01*
%TO.N,P10*%
X247306258Y-159846241D02*
X248958235Y-161498218D01*
X248958235Y-161498218D02*
X248958235Y-163932694D01*
%TD*%
M02*
