%TF.GenerationSoftware,KiCad,Pcbnew,(6.0.9-0)*%
%TF.CreationDate,2022-12-30T09:12:30+01:00*%
%TF.ProjectId,beamer,6265616d-6572-42e6-9b69-6361645f7063,v1.0.0*%
%TF.SameCoordinates,Original*%
%TF.FileFunction,Soldermask,Top*%
%TF.FilePolarity,Negative*%
%FSLAX46Y46*%
G04 Gerber Fmt 4.6, Leading zero omitted, Abs format (unit mm)*
G04 Created by KiCad (PCBNEW (6.0.9-0)) date 2022-12-30 09:12:30*
%MOMM*%
%LPD*%
G01*
G04 APERTURE LIST*
G04 Aperture macros list*
%AMRoundRect*
0 Rectangle with rounded corners*
0 $1 Rounding radius*
0 $2 $3 $4 $5 $6 $7 $8 $9 X,Y pos of 4 corners*
0 Add a 4 corners polygon primitive as box body*
4,1,4,$2,$3,$4,$5,$6,$7,$8,$9,$2,$3,0*
0 Add four circle primitives for the rounded corners*
1,1,$1+$1,$2,$3*
1,1,$1+$1,$4,$5*
1,1,$1+$1,$6,$7*
1,1,$1+$1,$8,$9*
0 Add four rect primitives between the rounded corners*
20,1,$1+$1,$2,$3,$4,$5,0*
20,1,$1+$1,$4,$5,$6,$7,0*
20,1,$1+$1,$6,$7,$8,$9,0*
20,1,$1+$1,$8,$9,$2,$3,0*%
%AMFreePoly0*
4,1,14,0.635355,0.435355,0.650000,0.400000,0.650000,0.200000,0.635355,0.164645,0.035355,-0.435355,0.000000,-0.450000,-0.035355,-0.435355,-0.635355,0.164645,-0.650000,0.200000,-0.650000,0.400000,-0.635355,0.435355,-0.600000,0.450000,0.600000,0.450000,0.635355,0.435355,0.635355,0.435355,$1*%
%AMFreePoly1*
4,1,16,0.635355,1.035355,0.650000,1.000000,0.650000,-0.250000,0.635355,-0.285355,0.600000,-0.300000,-0.600000,-0.300000,-0.635355,-0.285355,-0.650000,-0.250000,-0.650000,1.000000,-0.635355,1.035355,-0.600000,1.050000,-0.564645,1.035355,0.000000,0.470710,0.564645,1.035355,0.600000,1.050000,0.635355,1.035355,0.635355,1.035355,$1*%
G04 Aperture macros list end*
%ADD10C,0.100000*%
%ADD11C,0.250000*%
%ADD12C,1.100000*%
%ADD13FreePoly0,0.000000*%
%ADD14FreePoly1,0.000000*%
%ADD15RoundRect,0.050000X0.450000X0.600000X-0.450000X0.600000X-0.450000X-0.600000X0.450000X-0.600000X0*%
%ADD16C,1.801800*%
%ADD17C,3.100000*%
%ADD18C,3.529000*%
%ADD19RoundRect,0.050000X-1.300000X-1.300000X1.300000X-1.300000X1.300000X1.300000X-1.300000X1.300000X0*%
%ADD20RoundRect,0.050000X0.776974X-1.666227X1.666227X0.776974X-0.776974X1.666227X-1.666227X-0.776974X0*%
%ADD21C,1.700000*%
%ADD22FreePoly0,270.000000*%
%ADD23FreePoly0,90.000000*%
%ADD24RoundRect,0.050000X-0.800000X0.800000X-0.800000X-0.800000X0.800000X-0.800000X0.800000X0.800000X0*%
%ADD25FreePoly1,270.000000*%
%ADD26FreePoly1,90.000000*%
%ADD27C,1.000000*%
%ADD28RoundRect,0.050000X-0.500000X-0.400000X0.500000X-0.400000X0.500000X0.400000X-0.500000X0.400000X0*%
%ADD29RoundRect,0.050000X-0.350000X-0.750000X0.350000X-0.750000X0.350000X0.750000X-0.350000X0.750000X0*%
%ADD30O,1.800000X1.800000*%
%ADD31RoundRect,0.050000X-1.054507X-1.505993X1.505993X-1.054507X1.054507X1.505993X-1.505993X1.054507X0*%
%ADD32RoundRect,0.050000X-0.450000X-0.850000X0.450000X-0.850000X0.450000X0.850000X-0.450000X0.850000X0*%
G04 APERTURE END LIST*
%TO.C,*%
G36*
X244491000Y-147966000D02*
G01*
X243475000Y-147966000D01*
X243475000Y-146950000D01*
X244491000Y-146950000D01*
X244491000Y-147966000D01*
G37*
D10*
X244491000Y-147966000D02*
X243475000Y-147966000D01*
X243475000Y-146950000D01*
X244491000Y-146950000D01*
X244491000Y-147966000D01*
G36*
X252111000Y-147966000D02*
G01*
X251095000Y-147966000D01*
X251095000Y-146950000D01*
X252111000Y-146950000D01*
X252111000Y-147966000D01*
G37*
X252111000Y-147966000D02*
X251095000Y-147966000D01*
X251095000Y-146950000D01*
X252111000Y-146950000D01*
X252111000Y-147966000D01*
D11*
X248418000Y-121150000D02*
G75*
G03*
X248418000Y-121150000I-125000J0D01*
G01*
X248418000Y-118610000D02*
G75*
G03*
X248418000Y-118610000I-125000J0D01*
G01*
X248418000Y-126230000D02*
G75*
G03*
X248418000Y-126230000I-125000J0D01*
G01*
X249942000Y-131310000D02*
G75*
G03*
X249942000Y-131310000I-125000J0D01*
G01*
X248418000Y-138930000D02*
G75*
G03*
X248418000Y-138930000I-125000J0D01*
G01*
X248418000Y-133850000D02*
G75*
G03*
X248418000Y-133850000I-125000J0D01*
G01*
X248418000Y-136390000D02*
G75*
G03*
X248418000Y-136390000I-125000J0D01*
G01*
X249942000Y-123690000D02*
G75*
G03*
X249942000Y-123690000I-125000J0D01*
G01*
X249942000Y-126230000D02*
G75*
G03*
X249942000Y-126230000I-125000J0D01*
G01*
X248418000Y-113530000D02*
G75*
G03*
X248418000Y-113530000I-125000J0D01*
G01*
X249942000Y-136390000D02*
G75*
G03*
X249942000Y-136390000I-125000J0D01*
G01*
X249942000Y-138930000D02*
G75*
G03*
X249942000Y-138930000I-125000J0D01*
G01*
X249942000Y-133850000D02*
G75*
G03*
X249942000Y-133850000I-125000J0D01*
G01*
X248418000Y-116070000D02*
G75*
G03*
X248418000Y-116070000I-125000J0D01*
G01*
X249942000Y-128770000D02*
G75*
G03*
X249942000Y-128770000I-125000J0D01*
G01*
X249942000Y-113530000D02*
G75*
G03*
X249942000Y-113530000I-125000J0D01*
G01*
X249942000Y-118610000D02*
G75*
G03*
X249942000Y-118610000I-125000J0D01*
G01*
X248418000Y-131310000D02*
G75*
G03*
X248418000Y-131310000I-125000J0D01*
G01*
X249942000Y-121150000D02*
G75*
G03*
X249942000Y-121150000I-125000J0D01*
G01*
X249942000Y-116070000D02*
G75*
G03*
X249942000Y-116070000I-125000J0D01*
G01*
X248418000Y-141470000D02*
G75*
G03*
X248418000Y-141470000I-125000J0D01*
G01*
X248418000Y-123690000D02*
G75*
G03*
X248418000Y-123690000I-125000J0D01*
G01*
X249942000Y-141470000D02*
G75*
G03*
X249942000Y-141470000I-125000J0D01*
G01*
X248418000Y-128770000D02*
G75*
G03*
X248418000Y-128770000I-125000J0D01*
G01*
G36*
X255151000Y-131818000D02*
G01*
X254135000Y-131818000D01*
X254135000Y-130802000D01*
X255151000Y-130802000D01*
X255151000Y-131818000D01*
G37*
D10*
X255151000Y-131818000D02*
X254135000Y-131818000D01*
X254135000Y-130802000D01*
X255151000Y-130802000D01*
X255151000Y-131818000D01*
G36*
X243975000Y-139438000D02*
G01*
X242959000Y-139438000D01*
X242959000Y-138422000D01*
X243975000Y-138422000D01*
X243975000Y-139438000D01*
G37*
X243975000Y-139438000D02*
X242959000Y-139438000D01*
X242959000Y-138422000D01*
X243975000Y-138422000D01*
X243975000Y-139438000D01*
G36*
X255151000Y-121658000D02*
G01*
X254135000Y-121658000D01*
X254135000Y-120642000D01*
X255151000Y-120642000D01*
X255151000Y-121658000D01*
G37*
X255151000Y-121658000D02*
X254135000Y-121658000D01*
X254135000Y-120642000D01*
X255151000Y-120642000D01*
X255151000Y-121658000D01*
G36*
X243975000Y-124198000D02*
G01*
X242959000Y-124198000D01*
X242959000Y-123182000D01*
X243975000Y-123182000D01*
X243975000Y-124198000D01*
G37*
X243975000Y-124198000D02*
X242959000Y-124198000D01*
X242959000Y-123182000D01*
X243975000Y-123182000D01*
X243975000Y-124198000D01*
G36*
X243975000Y-131818000D02*
G01*
X242959000Y-131818000D01*
X242959000Y-130802000D01*
X243975000Y-130802000D01*
X243975000Y-131818000D01*
G37*
X243975000Y-131818000D02*
X242959000Y-131818000D01*
X242959000Y-130802000D01*
X243975000Y-130802000D01*
X243975000Y-131818000D01*
G36*
X255151000Y-136898000D02*
G01*
X254135000Y-136898000D01*
X254135000Y-135882000D01*
X255151000Y-135882000D01*
X255151000Y-136898000D01*
G37*
X255151000Y-136898000D02*
X254135000Y-136898000D01*
X254135000Y-135882000D01*
X255151000Y-135882000D01*
X255151000Y-136898000D01*
G36*
X243975000Y-141978000D02*
G01*
X242959000Y-141978000D01*
X242959000Y-140962000D01*
X243975000Y-140962000D01*
X243975000Y-141978000D01*
G37*
X243975000Y-141978000D02*
X242959000Y-141978000D01*
X242959000Y-140962000D01*
X243975000Y-140962000D01*
X243975000Y-141978000D01*
G36*
X243975000Y-121658000D02*
G01*
X242959000Y-121658000D01*
X242959000Y-120642000D01*
X243975000Y-120642000D01*
X243975000Y-121658000D01*
G37*
X243975000Y-121658000D02*
X242959000Y-121658000D01*
X242959000Y-120642000D01*
X243975000Y-120642000D01*
X243975000Y-121658000D01*
G36*
X243975000Y-119118000D02*
G01*
X242959000Y-119118000D01*
X242959000Y-118102000D01*
X243975000Y-118102000D01*
X243975000Y-119118000D01*
G37*
X243975000Y-119118000D02*
X242959000Y-119118000D01*
X242959000Y-118102000D01*
X243975000Y-118102000D01*
X243975000Y-119118000D01*
G36*
X243975000Y-126738000D02*
G01*
X242959000Y-126738000D01*
X242959000Y-125722000D01*
X243975000Y-125722000D01*
X243975000Y-126738000D01*
G37*
X243975000Y-126738000D02*
X242959000Y-126738000D01*
X242959000Y-125722000D01*
X243975000Y-125722000D01*
X243975000Y-126738000D01*
G36*
X255151000Y-114038000D02*
G01*
X254135000Y-114038000D01*
X254135000Y-113022000D01*
X255151000Y-113022000D01*
X255151000Y-114038000D01*
G37*
X255151000Y-114038000D02*
X254135000Y-114038000D01*
X254135000Y-113022000D01*
X255151000Y-113022000D01*
X255151000Y-114038000D01*
G36*
X243975000Y-114038000D02*
G01*
X242959000Y-114038000D01*
X242959000Y-113022000D01*
X243975000Y-113022000D01*
X243975000Y-114038000D01*
G37*
X243975000Y-114038000D02*
X242959000Y-114038000D01*
X242959000Y-113022000D01*
X243975000Y-113022000D01*
X243975000Y-114038000D01*
G36*
X255151000Y-126738000D02*
G01*
X254135000Y-126738000D01*
X254135000Y-125722000D01*
X255151000Y-125722000D01*
X255151000Y-126738000D01*
G37*
X255151000Y-126738000D02*
X254135000Y-126738000D01*
X254135000Y-125722000D01*
X255151000Y-125722000D01*
X255151000Y-126738000D01*
G36*
X243975000Y-136898000D02*
G01*
X242959000Y-136898000D01*
X242959000Y-135882000D01*
X243975000Y-135882000D01*
X243975000Y-136898000D01*
G37*
X243975000Y-136898000D02*
X242959000Y-136898000D01*
X242959000Y-135882000D01*
X243975000Y-135882000D01*
X243975000Y-136898000D01*
G36*
X243975000Y-134358000D02*
G01*
X242959000Y-134358000D01*
X242959000Y-133342000D01*
X243975000Y-133342000D01*
X243975000Y-134358000D01*
G37*
X243975000Y-134358000D02*
X242959000Y-134358000D01*
X242959000Y-133342000D01*
X243975000Y-133342000D01*
X243975000Y-134358000D01*
G36*
X255151000Y-139438000D02*
G01*
X254135000Y-139438000D01*
X254135000Y-138422000D01*
X255151000Y-138422000D01*
X255151000Y-139438000D01*
G37*
X255151000Y-139438000D02*
X254135000Y-139438000D01*
X254135000Y-138422000D01*
X255151000Y-138422000D01*
X255151000Y-139438000D01*
G36*
X255151000Y-116578000D02*
G01*
X254135000Y-116578000D01*
X254135000Y-115562000D01*
X255151000Y-115562000D01*
X255151000Y-116578000D01*
G37*
X255151000Y-116578000D02*
X254135000Y-116578000D01*
X254135000Y-115562000D01*
X255151000Y-115562000D01*
X255151000Y-116578000D01*
G36*
X255151000Y-119118000D02*
G01*
X254135000Y-119118000D01*
X254135000Y-118102000D01*
X255151000Y-118102000D01*
X255151000Y-119118000D01*
G37*
X255151000Y-119118000D02*
X254135000Y-119118000D01*
X254135000Y-118102000D01*
X255151000Y-118102000D01*
X255151000Y-119118000D01*
G36*
X255151000Y-129278000D02*
G01*
X254135000Y-129278000D01*
X254135000Y-128262000D01*
X255151000Y-128262000D01*
X255151000Y-129278000D01*
G37*
X255151000Y-129278000D02*
X254135000Y-129278000D01*
X254135000Y-128262000D01*
X255151000Y-128262000D01*
X255151000Y-129278000D01*
G36*
X243975000Y-129278000D02*
G01*
X242959000Y-129278000D01*
X242959000Y-128262000D01*
X243975000Y-128262000D01*
X243975000Y-129278000D01*
G37*
X243975000Y-129278000D02*
X242959000Y-129278000D01*
X242959000Y-128262000D01*
X243975000Y-128262000D01*
X243975000Y-129278000D01*
G36*
X255151000Y-134358000D02*
G01*
X254135000Y-134358000D01*
X254135000Y-133342000D01*
X255151000Y-133342000D01*
X255151000Y-134358000D01*
G37*
X255151000Y-134358000D02*
X254135000Y-134358000D01*
X254135000Y-133342000D01*
X255151000Y-133342000D01*
X255151000Y-134358000D01*
G36*
X243975000Y-116578000D02*
G01*
X242959000Y-116578000D01*
X242959000Y-115562000D01*
X243975000Y-115562000D01*
X243975000Y-116578000D01*
G37*
X243975000Y-116578000D02*
X242959000Y-116578000D01*
X242959000Y-115562000D01*
X243975000Y-115562000D01*
X243975000Y-116578000D01*
G36*
X255151000Y-124198000D02*
G01*
X254135000Y-124198000D01*
X254135000Y-123182000D01*
X255151000Y-123182000D01*
X255151000Y-124198000D01*
G37*
X255151000Y-124198000D02*
X254135000Y-124198000D01*
X254135000Y-123182000D01*
X255151000Y-123182000D01*
X255151000Y-124198000D01*
G36*
X255151000Y-141978000D02*
G01*
X254135000Y-141978000D01*
X254135000Y-140962000D01*
X255151000Y-140962000D01*
X255151000Y-141978000D01*
G37*
X255151000Y-141978000D02*
X254135000Y-141978000D01*
X254135000Y-140962000D01*
X255151000Y-140962000D01*
X255151000Y-141978000D01*
G36*
X176520919Y-158251338D02*
G01*
X176598374Y-158251746D01*
X176677282Y-158252338D01*
X176755553Y-158253098D01*
X176831096Y-158254012D01*
X176901820Y-158255064D01*
X176965635Y-158256238D01*
X177020449Y-158257520D01*
X177064172Y-158258892D01*
X177094714Y-158260341D01*
X177109288Y-158261712D01*
X177128470Y-158265397D01*
X177146840Y-158269715D01*
X177165340Y-158275322D01*
X177184913Y-158282872D01*
X177206503Y-158293020D01*
X177231053Y-158306420D01*
X177259504Y-158323727D01*
X177292802Y-158345595D01*
X177331888Y-158372680D01*
X177377705Y-158405635D01*
X177431197Y-158445116D01*
X177493307Y-158491777D01*
X177564978Y-158546273D01*
X177647152Y-158609258D01*
X177740773Y-158681388D01*
X177846784Y-158763316D01*
X177966128Y-158855698D01*
X177976473Y-158863709D01*
X178092652Y-158953717D01*
X178195297Y-159033331D01*
X178285272Y-159103256D01*
X178363446Y-159164196D01*
X178430685Y-159216855D01*
X178487856Y-159261938D01*
X178535825Y-159300148D01*
X178575459Y-159332190D01*
X178607626Y-159358769D01*
X178633192Y-159380588D01*
X178653023Y-159398352D01*
X178667987Y-159412764D01*
X178678950Y-159424530D01*
X178686779Y-159434353D01*
X178692341Y-159442937D01*
X178694655Y-159447203D01*
X178714252Y-159504137D01*
X178717471Y-159562764D01*
X178705249Y-159619659D01*
X178678523Y-159671396D01*
X178638229Y-159714549D01*
X178617524Y-159729264D01*
X178573747Y-159756537D01*
X174190035Y-159758838D01*
X169806322Y-159761138D01*
X169757504Y-159735716D01*
X169709741Y-159701302D01*
X169674528Y-159656177D01*
X169652676Y-159603516D01*
X169644999Y-159546494D01*
X169652310Y-159488286D01*
X169675421Y-159432068D01*
X169678458Y-159426963D01*
X169688381Y-159416890D01*
X169711561Y-159396744D01*
X169746784Y-159367465D01*
X169792841Y-159329993D01*
X169848519Y-159285267D01*
X169912607Y-159234229D01*
X169983895Y-159177817D01*
X170061169Y-159116971D01*
X170143220Y-159052632D01*
X170228835Y-158985740D01*
X170316803Y-158917233D01*
X170405914Y-158848053D01*
X170494955Y-158779139D01*
X170582715Y-158711431D01*
X170667983Y-158645869D01*
X170749547Y-158583393D01*
X170826197Y-158524943D01*
X170896720Y-158471459D01*
X170959906Y-158423880D01*
X171014542Y-158383147D01*
X171059418Y-158350199D01*
X171093323Y-158325977D01*
X171115044Y-158311420D01*
X171119634Y-158308734D01*
X171143074Y-158296581D01*
X171165510Y-158286306D01*
X171188657Y-158277752D01*
X171214229Y-158270760D01*
X171243938Y-158265173D01*
X171279498Y-158260833D01*
X171322622Y-158257583D01*
X171375025Y-158255265D01*
X171438419Y-158253722D01*
X171514517Y-158252795D01*
X171605034Y-158252327D01*
X171711683Y-158252160D01*
X171734657Y-158252149D01*
X171838394Y-158252201D01*
X171925214Y-158252459D01*
X171996380Y-158252957D01*
X172053157Y-158253728D01*
X172096809Y-158254804D01*
X172128599Y-158256219D01*
X172149791Y-158258006D01*
X172161650Y-158260198D01*
X172165439Y-158262827D01*
X172165345Y-158263396D01*
X172123834Y-158387096D01*
X172089144Y-158522050D01*
X172062418Y-158662240D01*
X172044801Y-158801646D01*
X172037435Y-158934249D01*
X172037404Y-158936501D01*
X172035957Y-159047446D01*
X176326867Y-159047446D01*
X176325152Y-158931910D01*
X176317111Y-158792119D01*
X176297764Y-158645828D01*
X176268293Y-158499749D01*
X176229883Y-158360595D01*
X176218242Y-158325399D01*
X176207336Y-158293311D01*
X176199185Y-158268663D01*
X176195219Y-158255798D01*
X176195048Y-158254945D01*
X176203790Y-158253629D01*
X176228619Y-158252606D01*
X176267447Y-158251860D01*
X176318181Y-158251376D01*
X176378732Y-158251138D01*
X176447008Y-158251130D01*
X176520919Y-158251338D01*
G37*
G36*
X173079915Y-155816562D02*
G01*
X173248958Y-155816674D01*
X173433089Y-155816849D01*
X173632991Y-155817070D01*
X173849344Y-155817324D01*
X174082831Y-155817595D01*
X174215683Y-155817742D01*
X176463230Y-155820173D01*
X176522321Y-155840298D01*
X176563004Y-155856368D01*
X176605756Y-155876640D01*
X176631412Y-155890865D01*
X176643623Y-155899473D01*
X176669172Y-155918435D01*
X176707033Y-155946959D01*
X176756179Y-155984254D01*
X176815584Y-156029527D01*
X176884222Y-156081986D01*
X176961066Y-156140840D01*
X177045090Y-156205295D01*
X177135268Y-156274560D01*
X177230573Y-156347844D01*
X177329980Y-156424353D01*
X177432462Y-156503295D01*
X177536992Y-156583880D01*
X177642544Y-156665313D01*
X177748092Y-156746805D01*
X177852610Y-156827561D01*
X177955071Y-156906791D01*
X178054449Y-156983702D01*
X178149718Y-157057502D01*
X178239851Y-157127400D01*
X178323823Y-157192602D01*
X178400606Y-157252317D01*
X178469175Y-157305753D01*
X178528502Y-157352117D01*
X178577563Y-157390619D01*
X178615330Y-157420464D01*
X178640778Y-157440862D01*
X178652699Y-157450853D01*
X178687048Y-157494199D01*
X178709090Y-157546703D01*
X178717968Y-157603529D01*
X178712822Y-157659840D01*
X178697345Y-157702612D01*
X178670903Y-157741568D01*
X178635825Y-157776856D01*
X178597610Y-157803596D01*
X178570692Y-157814972D01*
X178560752Y-157815800D01*
X178536914Y-157816586D01*
X178498991Y-157817331D01*
X178446796Y-157818036D01*
X178380141Y-157818701D01*
X178298838Y-157819326D01*
X178202700Y-157819912D01*
X178091539Y-157820460D01*
X177965168Y-157820969D01*
X177823399Y-157821440D01*
X177666045Y-157821873D01*
X177492918Y-157822269D01*
X177303830Y-157822628D01*
X177098594Y-157822951D01*
X176877023Y-157823238D01*
X176638928Y-157823489D01*
X176384123Y-157823705D01*
X176112420Y-157823886D01*
X175823631Y-157824033D01*
X175517568Y-157824146D01*
X175194045Y-157824225D01*
X174852874Y-157824271D01*
X174493866Y-157824284D01*
X174176867Y-157824269D01*
X173834841Y-157824236D01*
X173510546Y-157824191D01*
X173203527Y-157824133D01*
X172913332Y-157824060D01*
X172639510Y-157823972D01*
X172381607Y-157823868D01*
X172139171Y-157823744D01*
X171911749Y-157823602D01*
X171698890Y-157823438D01*
X171500140Y-157823252D01*
X171315048Y-157823042D01*
X171143160Y-157822808D01*
X170984025Y-157822547D01*
X170837189Y-157822259D01*
X170702200Y-157821942D01*
X170578607Y-157821594D01*
X170465956Y-157821215D01*
X170363794Y-157820804D01*
X170271671Y-157820357D01*
X170189132Y-157819876D01*
X170115726Y-157819357D01*
X170050999Y-157818801D01*
X169994501Y-157818204D01*
X169945777Y-157817567D01*
X169904377Y-157816888D01*
X169869846Y-157816165D01*
X169841733Y-157815397D01*
X169819586Y-157814583D01*
X169802951Y-157813722D01*
X169791377Y-157812812D01*
X169784411Y-157811851D01*
X169782546Y-157811363D01*
X169732729Y-157784728D01*
X169693536Y-157746124D01*
X169665618Y-157698785D01*
X169649625Y-157645944D01*
X169646206Y-157590833D01*
X169656010Y-157536686D01*
X169679689Y-157486735D01*
X169710125Y-157450979D01*
X169720328Y-157442665D01*
X169744094Y-157423928D01*
X169780571Y-157395427D01*
X169828908Y-157357822D01*
X169888252Y-157311770D01*
X169957752Y-157257931D01*
X170036556Y-157196963D01*
X170123812Y-157129525D01*
X170218668Y-157056276D01*
X170320274Y-156977875D01*
X170427776Y-156894981D01*
X170540323Y-156808251D01*
X170657064Y-156718346D01*
X170726865Y-156664616D01*
X170872014Y-156553023D01*
X171008212Y-156448550D01*
X171134983Y-156351555D01*
X171251852Y-156262397D01*
X171358343Y-156181434D01*
X171453980Y-156109027D01*
X171538288Y-156045533D01*
X171610791Y-155991311D01*
X171671014Y-155946721D01*
X171718480Y-155912121D01*
X171752716Y-155887869D01*
X171773244Y-155874326D01*
X171776865Y-155872300D01*
X171788310Y-155866335D01*
X171798481Y-155860799D01*
X171808060Y-155855676D01*
X171817729Y-155850951D01*
X171828170Y-155846608D01*
X171840065Y-155842634D01*
X171854095Y-155839012D01*
X171870942Y-155835726D01*
X171891288Y-155832763D01*
X171915815Y-155830106D01*
X171945204Y-155827741D01*
X171980136Y-155825652D01*
X172021295Y-155823823D01*
X172069361Y-155822240D01*
X172125016Y-155820888D01*
X172188942Y-155819750D01*
X172261821Y-155818812D01*
X172344334Y-155818059D01*
X172437164Y-155817475D01*
X172540991Y-155817046D01*
X172656498Y-155816755D01*
X172784367Y-155816587D01*
X172925279Y-155816528D01*
X173079915Y-155816562D01*
G37*
G36*
X176507660Y-160188672D02*
G01*
X176629796Y-160188818D01*
X176735254Y-160189172D01*
X176825536Y-160189842D01*
X176902146Y-160190938D01*
X176966588Y-160192570D01*
X177020364Y-160194846D01*
X177064977Y-160197876D01*
X177101930Y-160201769D01*
X177132728Y-160206634D01*
X177158872Y-160212581D01*
X177181867Y-160219718D01*
X177203214Y-160228156D01*
X177224418Y-160238003D01*
X177230964Y-160241242D01*
X177253984Y-160254728D01*
X177288388Y-160277477D01*
X177331308Y-160307463D01*
X177379873Y-160342662D01*
X177431213Y-160381049D01*
X177456112Y-160400098D01*
X177624722Y-160530194D01*
X177779253Y-160649581D01*
X177920093Y-160758566D01*
X178047628Y-160857453D01*
X178162247Y-160946547D01*
X178264338Y-161026153D01*
X178354288Y-161096577D01*
X178432484Y-161158123D01*
X178499316Y-161211096D01*
X178555169Y-161255801D01*
X178600433Y-161292543D01*
X178635495Y-161321627D01*
X178660742Y-161343358D01*
X178676562Y-161358042D01*
X178682763Y-161365023D01*
X178698242Y-161394418D01*
X178711297Y-161430339D01*
X178715132Y-161445497D01*
X178718463Y-161503449D01*
X178705671Y-161559564D01*
X178678750Y-161610519D01*
X178639698Y-161652987D01*
X178590512Y-161683643D01*
X178566967Y-161692299D01*
X178562051Y-161693405D01*
X178554637Y-161694453D01*
X178544247Y-161695443D01*
X178530405Y-161696378D01*
X178512636Y-161697259D01*
X178490461Y-161698087D01*
X178463405Y-161698864D01*
X178430991Y-161699592D01*
X178392743Y-161700271D01*
X178348184Y-161700903D01*
X178296837Y-161701490D01*
X178238226Y-161702034D01*
X178171875Y-161702535D01*
X178097307Y-161702995D01*
X178014045Y-161703416D01*
X177921612Y-161703799D01*
X177819533Y-161704145D01*
X177707331Y-161704457D01*
X177584529Y-161704735D01*
X177450651Y-161704982D01*
X177305220Y-161705197D01*
X177147759Y-161705384D01*
X176977793Y-161705543D01*
X176794844Y-161705676D01*
X176598436Y-161705785D01*
X176388092Y-161705870D01*
X176163336Y-161705934D01*
X175923692Y-161705978D01*
X175668683Y-161706003D01*
X175397832Y-161706011D01*
X175110662Y-161706003D01*
X174806698Y-161705981D01*
X174485463Y-161705946D01*
X174177489Y-161705904D01*
X173838736Y-161705850D01*
X173517695Y-161705787D01*
X173213899Y-161705716D01*
X172926876Y-161705633D01*
X172656159Y-161705538D01*
X172401279Y-161705428D01*
X172161766Y-161705303D01*
X171937151Y-161705161D01*
X171726965Y-161705001D01*
X171530740Y-161704820D01*
X171348005Y-161704618D01*
X171178292Y-161704393D01*
X171021132Y-161704143D01*
X170876056Y-161703867D01*
X170742594Y-161703563D01*
X170620278Y-161703230D01*
X170508639Y-161702867D01*
X170407207Y-161702471D01*
X170315513Y-161702042D01*
X170233089Y-161701577D01*
X170159464Y-161701076D01*
X170094171Y-161700536D01*
X170036740Y-161699957D01*
X169986701Y-161699337D01*
X169943587Y-161698673D01*
X169906927Y-161697966D01*
X169876253Y-161697213D01*
X169851095Y-161696412D01*
X169830985Y-161695563D01*
X169815454Y-161694663D01*
X169804031Y-161693712D01*
X169796249Y-161692707D01*
X169792050Y-161691781D01*
X169745224Y-161668934D01*
X169708415Y-161638564D01*
X169671578Y-161589989D01*
X169649929Y-161535175D01*
X169643786Y-161477517D01*
X169653470Y-161420410D01*
X169679300Y-161367250D01*
X169682431Y-161362770D01*
X169693722Y-161351517D01*
X169718270Y-161330222D01*
X169754850Y-161299838D01*
X169802234Y-161261312D01*
X169859197Y-161215595D01*
X169924511Y-161163637D01*
X169996950Y-161106388D01*
X170075288Y-161044797D01*
X170158298Y-160979814D01*
X170244753Y-160912388D01*
X170333427Y-160843471D01*
X170423094Y-160774011D01*
X170512527Y-160704958D01*
X170600499Y-160637262D01*
X170685784Y-160571874D01*
X170767156Y-160509742D01*
X170843387Y-160451816D01*
X170913252Y-160399047D01*
X170975524Y-160352383D01*
X171028976Y-160312776D01*
X171072381Y-160281174D01*
X171104514Y-160258528D01*
X171124148Y-160245786D01*
X171126565Y-160244460D01*
X171148513Y-160233567D01*
X171169852Y-160224199D01*
X171192090Y-160216239D01*
X171216733Y-160209572D01*
X171245287Y-160204082D01*
X171279259Y-160199655D01*
X171320155Y-160196175D01*
X171369483Y-160193526D01*
X171428748Y-160191594D01*
X171499457Y-160190263D01*
X171583117Y-160189417D01*
X171681234Y-160188942D01*
X171795314Y-160188721D01*
X171855164Y-160188672D01*
X172383461Y-160188355D01*
X172452042Y-160281822D01*
X172573756Y-160432624D01*
X172708325Y-160571386D01*
X172854510Y-160697317D01*
X173011068Y-160809621D01*
X173176760Y-160907506D01*
X173350344Y-160990177D01*
X173530579Y-161056841D01*
X173716224Y-161106704D01*
X173754139Y-161114640D01*
X173831230Y-161129199D01*
X173899175Y-161139915D01*
X173963541Y-161147310D01*
X174029897Y-161151908D01*
X174103809Y-161154233D01*
X174181412Y-161154815D01*
X174374959Y-161147236D01*
X174560253Y-161124182D01*
X174739317Y-161085180D01*
X174914174Y-161029753D01*
X175086846Y-160957427D01*
X175146976Y-160928116D01*
X175312201Y-160834883D01*
X175469915Y-160726339D01*
X175618034Y-160604244D01*
X175754474Y-160470359D01*
X175877150Y-160326446D01*
X175909195Y-160283985D01*
X175979363Y-160188355D01*
X176507660Y-160188672D01*
G37*
G36*
X254651000Y-147966000D02*
G01*
X253635000Y-147966000D01*
X253635000Y-146950000D01*
X254651000Y-146950000D01*
X254651000Y-147966000D01*
G37*
X254651000Y-147966000D02*
X253635000Y-147966000D01*
X253635000Y-146950000D01*
X254651000Y-146950000D01*
X254651000Y-147966000D01*
G36*
X247031000Y-147966000D02*
G01*
X246015000Y-147966000D01*
X246015000Y-146950000D01*
X247031000Y-146950000D01*
X247031000Y-147966000D01*
G37*
X247031000Y-147966000D02*
X246015000Y-147966000D01*
X246015000Y-146950000D01*
X247031000Y-146950000D01*
X247031000Y-147966000D01*
%TD*%
D12*
%TO.C,*%
X240255000Y-149390000D03*
X240255000Y-150890000D03*
%TD*%
D13*
%TO.C,*%
X243983000Y-147204000D03*
D14*
X243983000Y-148220000D03*
%TD*%
D15*
%TO.C,D15*%
X230650000Y-117000000D03*
X227350000Y-117000000D03*
%TD*%
%TO.C,D5*%
X176650000Y-131450000D03*
X173350000Y-131450000D03*
%TD*%
D16*
%TO.C,*%
X162500000Y-156700000D03*
D17*
X157000000Y-150750000D03*
D16*
X151500000Y-156700000D03*
D17*
X162000000Y-152950000D03*
D18*
X157000000Y-156700000D03*
D17*
X152000000Y-152950000D03*
X157000000Y-150750000D03*
D19*
X160275000Y-150750000D03*
X148725000Y-152950000D03*
%TD*%
D16*
%TO.C,*%
X223500000Y-146500000D03*
X234500000Y-146500000D03*
D17*
X229000000Y-140550000D03*
D18*
X229000000Y-146500000D03*
D17*
X224000000Y-142750000D03*
X229000000Y-140550000D03*
X234000000Y-142750000D03*
D19*
X232275000Y-140550000D03*
X220725000Y-142750000D03*
%TD*%
D17*
%TO.C,*%
X224000000Y-125750000D03*
D16*
X234500000Y-129500000D03*
D17*
X229000000Y-123550000D03*
D18*
X229000000Y-129500000D03*
D17*
X229000000Y-123550000D03*
D16*
X223500000Y-129500000D03*
D17*
X234000000Y-125750000D03*
D19*
X232275000Y-123550000D03*
X220725000Y-125750000D03*
%TD*%
D17*
%TO.C,*%
X193000000Y-116750000D03*
D16*
X198500000Y-122700000D03*
X187500000Y-122700000D03*
D17*
X188000000Y-118950000D03*
X193000000Y-116750000D03*
D18*
X193000000Y-122700000D03*
D17*
X198000000Y-118950000D03*
D19*
X196275000Y-116750000D03*
X184725000Y-118950000D03*
%TD*%
D15*
%TO.C,D6*%
X176650000Y-114450000D03*
X173350000Y-114450000D03*
%TD*%
D17*
%TO.C,*%
X198000000Y-101950000D03*
X188000000Y-101950000D03*
X193000000Y-99750000D03*
D16*
X187500000Y-105700000D03*
D17*
X193000000Y-99750000D03*
D16*
X198500000Y-105700000D03*
D18*
X193000000Y-105700000D03*
D19*
X196275000Y-99750000D03*
X184725000Y-101950000D03*
%TD*%
D15*
%TO.C,D2*%
X158650000Y-144200000D03*
X155350000Y-144200000D03*
%TD*%
%TO.C,D14*%
X230650000Y-134000000D03*
X227350000Y-134000000D03*
%TD*%
D14*
%TO.C,*%
X251603000Y-148220000D03*
D13*
X251603000Y-147204000D03*
%TD*%
D17*
%TO.C,*%
X249963566Y-158977715D03*
X246543365Y-168374642D03*
X246186142Y-162923734D03*
X246186142Y-162923734D03*
D18*
X251777313Y-164958754D03*
D16*
X249896202Y-170127063D03*
X253658424Y-159790445D03*
D20*
X247306258Y-159846241D03*
X245423249Y-171452135D03*
%TD*%
D17*
%TO.C,*%
X216000000Y-123200000D03*
X211000000Y-121000000D03*
X211000000Y-121000000D03*
D16*
X216500000Y-126950000D03*
D17*
X206000000Y-123200000D03*
D18*
X211000000Y-126950000D03*
D16*
X205500000Y-126950000D03*
D19*
X214275000Y-121000000D03*
X202725000Y-123200000D03*
%TD*%
D15*
%TO.C,D1*%
X158650000Y-161200000D03*
X155350000Y-161200000D03*
%TD*%
D21*
%TO.C,*%
X256675000Y-123690000D03*
X256675000Y-128770000D03*
X256675000Y-141470000D03*
X241435000Y-113530000D03*
D22*
X254897000Y-138930000D03*
X254897000Y-123690000D03*
X254897000Y-131310000D03*
D21*
X256675000Y-116070000D03*
X256675000Y-126230000D03*
X241435000Y-141470000D03*
D23*
X243213000Y-141470000D03*
D21*
X241435000Y-126230000D03*
X256675000Y-136390000D03*
D22*
X254897000Y-121150000D03*
D23*
X243213000Y-138930000D03*
D22*
X254897000Y-136390000D03*
D23*
X243213000Y-128770000D03*
D21*
X256675000Y-131310000D03*
X241435000Y-123690000D03*
X241435000Y-118610000D03*
D23*
X243213000Y-113530000D03*
D22*
X254897000Y-118610000D03*
D21*
X241435000Y-116070000D03*
D23*
X243213000Y-118610000D03*
D22*
X254897000Y-116070000D03*
D21*
X256675000Y-133850000D03*
X241435000Y-121150000D03*
D22*
X254897000Y-126230000D03*
X254897000Y-113530000D03*
D21*
X256675000Y-121150000D03*
X241435000Y-136390000D03*
X256675000Y-138930000D03*
D22*
X254897000Y-128770000D03*
D23*
X243213000Y-121150000D03*
X243213000Y-116070000D03*
X243213000Y-131310000D03*
D22*
X254897000Y-133850000D03*
D21*
X241435000Y-133850000D03*
X241435000Y-128770000D03*
D23*
X243213000Y-136390000D03*
X243213000Y-123690000D03*
X243213000Y-126230000D03*
D21*
X241435000Y-138930000D03*
D23*
X243213000Y-133850000D03*
D21*
X256675000Y-113530000D03*
D22*
X254897000Y-141470000D03*
D21*
X256675000Y-118610000D03*
D24*
X241435000Y-113530000D03*
D21*
X241435000Y-131310000D03*
D25*
X253881000Y-113530000D03*
X253881000Y-116070000D03*
X253881000Y-118610000D03*
X253881000Y-121150000D03*
X253881000Y-123690000D03*
X253881000Y-126230000D03*
X253881000Y-128770000D03*
X253881000Y-131310000D03*
X253881000Y-133850000D03*
X253881000Y-136390000D03*
X253881000Y-138930000D03*
X253881000Y-141470000D03*
D26*
X244229000Y-141470000D03*
X244229000Y-138930000D03*
X244229000Y-136390000D03*
X244229000Y-133850000D03*
X244229000Y-131310000D03*
X244229000Y-128770000D03*
X244229000Y-126230000D03*
X244229000Y-123690000D03*
X244229000Y-121150000D03*
X244229000Y-118610000D03*
X244229000Y-116070000D03*
X244229000Y-113530000D03*
%TD*%
D15*
%TO.C,D3*%
X158650000Y-127200000D03*
X155350000Y-127200000D03*
%TD*%
D27*
%TO.C,*%
X258220000Y-152550000D03*
D28*
X259320000Y-147400000D03*
D27*
X258220000Y-149550000D03*
D28*
X257110000Y-147400000D03*
X257110000Y-154700000D03*
D27*
X258220000Y-149550000D03*
D28*
X259320000Y-154700000D03*
D27*
X258220000Y-152550000D03*
D29*
X256460000Y-153300000D03*
X256460000Y-150300000D03*
X256460000Y-148800000D03*
%TD*%
D15*
%TO.C,D11*%
X212650000Y-131450000D03*
X209350000Y-131450000D03*
%TD*%
D30*
%TO.C,*%
X254135000Y-145400000D03*
X251595000Y-145400000D03*
X249055000Y-145400000D03*
X246515000Y-145400000D03*
X243975000Y-145400000D03*
%TD*%
D15*
%TO.C,D8*%
X194650000Y-127200000D03*
X191350000Y-127200000D03*
%TD*%
%TO.C,D4*%
X176650000Y-148450000D03*
X173350000Y-148450000D03*
%TD*%
%TO.C,D7*%
X194650000Y-144200000D03*
X191350000Y-144200000D03*
%TD*%
D18*
%TO.C,*%
X175000000Y-143950000D03*
D17*
X170000000Y-140200000D03*
X175000000Y-138000000D03*
D16*
X180500000Y-143950000D03*
D17*
X180000000Y-140200000D03*
X175000000Y-138000000D03*
D16*
X169500000Y-143950000D03*
D19*
X178275000Y-138000000D03*
X166725000Y-140200000D03*
%TD*%
D15*
%TO.C,D12*%
X212650000Y-114450000D03*
X209350000Y-114450000D03*
%TD*%
%TO.C,D9*%
X194650000Y-110200000D03*
X191350000Y-110200000D03*
%TD*%
D17*
%TO.C,*%
X170000000Y-106200000D03*
X180000000Y-106200000D03*
D16*
X180500000Y-109950000D03*
D17*
X175000000Y-104000000D03*
D16*
X169500000Y-109950000D03*
D17*
X175000000Y-104000000D03*
D18*
X175000000Y-109950000D03*
D19*
X178275000Y-104000000D03*
X166725000Y-106200000D03*
%TD*%
D13*
%TO.C,*%
X254143000Y-147204000D03*
D14*
X254143000Y-148220000D03*
%TD*%
D18*
%TO.C,*%
X157000000Y-122700000D03*
D16*
X162500000Y-122700000D03*
X151500000Y-122700000D03*
D17*
X157000000Y-116750000D03*
X157000000Y-116750000D03*
X162000000Y-118950000D03*
X152000000Y-118950000D03*
D19*
X160275000Y-116750000D03*
X148725000Y-118950000D03*
%TD*%
D15*
%TO.C,D10*%
X212650000Y-148450000D03*
X209350000Y-148450000D03*
%TD*%
D16*
%TO.C,*%
X205500000Y-109950000D03*
D17*
X211000000Y-104000000D03*
X211000000Y-104000000D03*
X216000000Y-106200000D03*
D18*
X211000000Y-109950000D03*
D16*
X216500000Y-109950000D03*
D17*
X206000000Y-106200000D03*
D19*
X214275000Y-104000000D03*
X202725000Y-106200000D03*
%TD*%
D18*
%TO.C,*%
X228972654Y-165737433D03*
D17*
X223972654Y-161987433D03*
D16*
X234472654Y-165737433D03*
D17*
X228972654Y-159787433D03*
D16*
X223472654Y-165737433D03*
D17*
X228972654Y-159787433D03*
X233972654Y-161987433D03*
D19*
X232247654Y-159787433D03*
X220697654Y-161987433D03*
%TD*%
D13*
%TO.C,*%
X246523000Y-147204000D03*
D14*
X246523000Y-148220000D03*
%TD*%
D15*
%TO.C,D13*%
X230650000Y-151000000D03*
X227350000Y-151000000D03*
%TD*%
D16*
%TO.C,*%
X213277164Y-166786903D03*
D17*
X206827514Y-161882362D03*
X202285502Y-164917180D03*
D16*
X202444278Y-168697033D03*
D17*
X206827514Y-161882362D03*
D18*
X207860721Y-167741968D03*
D17*
X212133579Y-163180698D03*
D31*
X210052760Y-161313664D03*
X199060256Y-165485878D03*
%TD*%
D17*
%TO.C,*%
X211000000Y-138000000D03*
D18*
X211000000Y-143950000D03*
D16*
X216500000Y-143950000D03*
D17*
X206000000Y-140200000D03*
X216000000Y-140200000D03*
D16*
X205500000Y-143950000D03*
D17*
X211000000Y-138000000D03*
D19*
X214275000Y-138000000D03*
X202725000Y-140200000D03*
%TD*%
D17*
%TO.C,*%
X157000000Y-133750000D03*
X152000000Y-135950000D03*
X162000000Y-135950000D03*
D18*
X157000000Y-139700000D03*
D16*
X151500000Y-139700000D03*
X162500000Y-139700000D03*
D17*
X157000000Y-133750000D03*
D19*
X160275000Y-133750000D03*
X148725000Y-135950000D03*
%TD*%
D16*
%TO.C,*%
X223500000Y-112500000D03*
D17*
X229000000Y-106550000D03*
X224000000Y-108750000D03*
D18*
X229000000Y-112500000D03*
D16*
X234500000Y-112500000D03*
D17*
X229000000Y-106550000D03*
X234000000Y-108750000D03*
D19*
X232275000Y-106550000D03*
X220725000Y-108750000D03*
%TD*%
D32*
%TO.C,*%
X243555000Y-156490000D03*
X240155000Y-156490000D03*
%TD*%
D17*
%TO.C,*%
X198000000Y-135950000D03*
X193000000Y-133750000D03*
X193000000Y-133750000D03*
X188000000Y-135950000D03*
D18*
X193000000Y-139700000D03*
D16*
X198500000Y-139700000D03*
X187500000Y-139700000D03*
D19*
X196275000Y-133750000D03*
X184725000Y-135950000D03*
%TD*%
D17*
%TO.C,*%
X170000000Y-123200000D03*
D16*
X180500000Y-126950000D03*
D17*
X180000000Y-123200000D03*
X175000000Y-121000000D03*
X175000000Y-121000000D03*
D18*
X175000000Y-126950000D03*
D16*
X169500000Y-126950000D03*
D19*
X178275000Y-121000000D03*
X166725000Y-123200000D03*
%TD*%
M02*
