%TF.GenerationSoftware,KiCad,Pcbnew,(6.0.9-0)*%
%TF.CreationDate,2022-12-30T09:12:30+01:00*%
%TF.ProjectId,beamer,6265616d-6572-42e6-9b69-6361645f7063,v1.0.0*%
%TF.SameCoordinates,Original*%
%TF.FileFunction,Soldermask,Bot*%
%TF.FilePolarity,Negative*%
%FSLAX46Y46*%
G04 Gerber Fmt 4.6, Leading zero omitted, Abs format (unit mm)*
G04 Created by KiCad (PCBNEW (6.0.9-0)) date 2022-12-30 09:12:30*
%MOMM*%
%LPD*%
G01*
G04 APERTURE LIST*
G04 Aperture macros list*
%AMRoundRect*
0 Rectangle with rounded corners*
0 $1 Rounding radius*
0 $2 $3 $4 $5 $6 $7 $8 $9 X,Y pos of 4 corners*
0 Add a 4 corners polygon primitive as box body*
4,1,4,$2,$3,$4,$5,$6,$7,$8,$9,$2,$3,0*
0 Add four circle primitives for the rounded corners*
1,1,$1+$1,$2,$3*
1,1,$1+$1,$4,$5*
1,1,$1+$1,$6,$7*
1,1,$1+$1,$8,$9*
0 Add four rect primitives between the rounded corners*
20,1,$1+$1,$2,$3,$4,$5,0*
20,1,$1+$1,$4,$5,$6,$7,0*
20,1,$1+$1,$6,$7,$8,$9,0*
20,1,$1+$1,$8,$9,$2,$3,0*%
%AMFreePoly0*
4,1,16,0.635355,1.035355,0.650000,1.000000,0.650000,-0.250000,0.635355,-0.285355,0.600000,-0.300000,-0.600000,-0.300000,-0.635355,-0.285355,-0.650000,-0.250000,-0.650000,1.000000,-0.635355,1.035355,-0.600000,1.050000,-0.564645,1.035355,0.000000,0.470710,0.564645,1.035355,0.600000,1.050000,0.635355,1.035355,0.635355,1.035355,$1*%
%AMFreePoly1*
4,1,14,0.635355,0.435355,0.650000,0.400000,0.650000,0.200000,0.635355,0.164645,0.035355,-0.435355,0.000000,-0.450000,-0.035355,-0.435355,-0.635355,0.164645,-0.650000,0.200000,-0.650000,0.400000,-0.635355,0.435355,-0.600000,0.450000,0.600000,0.450000,0.635355,0.435355,0.635355,0.435355,$1*%
G04 Aperture macros list end*
%ADD10C,0.100000*%
%ADD11C,0.250000*%
%ADD12C,1.100000*%
%ADD13FreePoly0,0.000000*%
%ADD14FreePoly1,0.000000*%
%ADD15RoundRect,0.050000X0.450000X0.600000X-0.450000X0.600000X-0.450000X-0.600000X0.450000X-0.600000X0*%
%ADD16C,1.801800*%
%ADD17C,3.100000*%
%ADD18C,3.529000*%
%ADD19RoundRect,0.050000X-1.300000X-1.300000X1.300000X-1.300000X1.300000X1.300000X-1.300000X1.300000X0*%
%ADD20RoundRect,0.050000X0.776974X-1.666227X1.666227X0.776974X-0.776974X1.666227X-1.666227X-0.776974X0*%
%ADD21C,1.700000*%
%ADD22FreePoly1,90.000000*%
%ADD23FreePoly1,270.000000*%
%ADD24RoundRect,0.050000X-0.800000X0.800000X-0.800000X-0.800000X0.800000X-0.800000X0.800000X0.800000X0*%
%ADD25FreePoly0,90.000000*%
%ADD26FreePoly0,270.000000*%
%ADD27C,1.000000*%
%ADD28RoundRect,0.050000X-0.500000X-0.400000X0.500000X-0.400000X0.500000X0.400000X-0.500000X0.400000X0*%
%ADD29RoundRect,0.050000X-0.350000X-0.750000X0.350000X-0.750000X0.350000X0.750000X-0.350000X0.750000X0*%
%ADD30O,1.800000X1.800000*%
%ADD31RoundRect,0.050000X-1.054507X-1.505993X1.505993X-1.054507X1.054507X1.505993X-1.505993X1.054507X0*%
%ADD32RoundRect,0.050000X-0.450000X-0.850000X0.450000X-0.850000X0.450000X0.850000X-0.450000X0.850000X0*%
G04 APERTURE END LIST*
%TO.C,*%
G36*
X244491000Y-147966000D02*
G01*
X243475000Y-147966000D01*
X243475000Y-146950000D01*
X244491000Y-146950000D01*
X244491000Y-147966000D01*
G37*
D10*
X244491000Y-147966000D02*
X243475000Y-147966000D01*
X243475000Y-146950000D01*
X244491000Y-146950000D01*
X244491000Y-147966000D01*
G36*
X192215606Y-158287686D02*
G01*
X192293061Y-158288094D01*
X192371969Y-158288686D01*
X192450240Y-158289446D01*
X192525783Y-158290360D01*
X192596507Y-158291412D01*
X192660322Y-158292586D01*
X192715136Y-158293868D01*
X192758859Y-158295240D01*
X192789401Y-158296689D01*
X192803975Y-158298060D01*
X192823157Y-158301745D01*
X192841527Y-158306063D01*
X192860027Y-158311670D01*
X192879600Y-158319220D01*
X192901190Y-158329368D01*
X192925740Y-158342768D01*
X192954191Y-158360075D01*
X192987489Y-158381943D01*
X193026575Y-158409028D01*
X193072392Y-158441983D01*
X193125884Y-158481464D01*
X193187994Y-158528125D01*
X193259665Y-158582621D01*
X193341839Y-158645606D01*
X193435460Y-158717736D01*
X193541471Y-158799664D01*
X193660815Y-158892046D01*
X193671160Y-158900057D01*
X193787339Y-158990065D01*
X193889984Y-159069679D01*
X193979959Y-159139604D01*
X194058133Y-159200544D01*
X194125372Y-159253203D01*
X194182543Y-159298286D01*
X194230512Y-159336496D01*
X194270146Y-159368538D01*
X194302313Y-159395117D01*
X194327879Y-159416936D01*
X194347710Y-159434700D01*
X194362674Y-159449112D01*
X194373637Y-159460878D01*
X194381466Y-159470701D01*
X194387028Y-159479285D01*
X194389342Y-159483551D01*
X194408939Y-159540485D01*
X194412158Y-159599112D01*
X194399936Y-159656007D01*
X194373210Y-159707744D01*
X194332916Y-159750897D01*
X194312211Y-159765612D01*
X194268434Y-159792885D01*
X189884722Y-159795186D01*
X185501009Y-159797486D01*
X185452191Y-159772064D01*
X185404428Y-159737650D01*
X185369215Y-159692525D01*
X185347363Y-159639864D01*
X185339686Y-159582842D01*
X185346997Y-159524634D01*
X185370108Y-159468416D01*
X185373145Y-159463311D01*
X185383068Y-159453238D01*
X185406248Y-159433092D01*
X185441471Y-159403813D01*
X185487528Y-159366341D01*
X185543206Y-159321615D01*
X185607294Y-159270577D01*
X185678582Y-159214165D01*
X185755856Y-159153319D01*
X185837907Y-159088980D01*
X185923522Y-159022088D01*
X186011490Y-158953581D01*
X186100601Y-158884401D01*
X186189642Y-158815487D01*
X186277402Y-158747779D01*
X186362670Y-158682217D01*
X186444234Y-158619741D01*
X186520884Y-158561291D01*
X186591407Y-158507807D01*
X186654593Y-158460228D01*
X186709229Y-158419495D01*
X186754105Y-158386547D01*
X186788010Y-158362325D01*
X186809731Y-158347768D01*
X186814321Y-158345082D01*
X186837761Y-158332929D01*
X186860197Y-158322654D01*
X186883344Y-158314100D01*
X186908916Y-158307108D01*
X186938625Y-158301521D01*
X186974185Y-158297181D01*
X187017309Y-158293931D01*
X187069712Y-158291613D01*
X187133106Y-158290070D01*
X187209204Y-158289143D01*
X187299721Y-158288675D01*
X187406370Y-158288508D01*
X187429344Y-158288497D01*
X187533081Y-158288549D01*
X187619901Y-158288807D01*
X187691067Y-158289305D01*
X187747844Y-158290076D01*
X187791496Y-158291152D01*
X187823286Y-158292567D01*
X187844478Y-158294354D01*
X187856337Y-158296546D01*
X187860126Y-158299175D01*
X187860032Y-158299744D01*
X187818521Y-158423444D01*
X187783831Y-158558398D01*
X187757105Y-158698588D01*
X187739488Y-158837994D01*
X187732122Y-158970597D01*
X187732091Y-158972849D01*
X187730644Y-159083794D01*
X192021554Y-159083794D01*
X192019839Y-158968258D01*
X192011798Y-158828467D01*
X191992451Y-158682176D01*
X191962980Y-158536097D01*
X191924570Y-158396943D01*
X191912929Y-158361747D01*
X191902023Y-158329659D01*
X191893872Y-158305011D01*
X191889906Y-158292146D01*
X191889735Y-158291293D01*
X191898477Y-158289977D01*
X191923306Y-158288954D01*
X191962134Y-158288208D01*
X192012868Y-158287724D01*
X192073419Y-158287486D01*
X192141695Y-158287478D01*
X192215606Y-158287686D01*
G37*
G36*
X192202347Y-160225020D02*
G01*
X192324483Y-160225166D01*
X192429941Y-160225520D01*
X192520223Y-160226190D01*
X192596833Y-160227286D01*
X192661275Y-160228918D01*
X192715051Y-160231194D01*
X192759664Y-160234224D01*
X192796617Y-160238117D01*
X192827415Y-160242982D01*
X192853559Y-160248929D01*
X192876554Y-160256066D01*
X192897901Y-160264504D01*
X192919105Y-160274351D01*
X192925651Y-160277590D01*
X192948671Y-160291076D01*
X192983075Y-160313825D01*
X193025995Y-160343811D01*
X193074560Y-160379010D01*
X193125900Y-160417397D01*
X193150799Y-160436446D01*
X193319409Y-160566542D01*
X193473940Y-160685929D01*
X193614780Y-160794914D01*
X193742315Y-160893801D01*
X193856934Y-160982895D01*
X193959025Y-161062501D01*
X194048975Y-161132925D01*
X194127171Y-161194471D01*
X194194003Y-161247444D01*
X194249856Y-161292149D01*
X194295120Y-161328891D01*
X194330182Y-161357975D01*
X194355429Y-161379706D01*
X194371249Y-161394390D01*
X194377450Y-161401371D01*
X194392929Y-161430766D01*
X194405984Y-161466687D01*
X194409819Y-161481845D01*
X194413150Y-161539797D01*
X194400358Y-161595912D01*
X194373437Y-161646867D01*
X194334385Y-161689335D01*
X194285199Y-161719991D01*
X194261654Y-161728647D01*
X194256738Y-161729753D01*
X194249324Y-161730801D01*
X194238934Y-161731791D01*
X194225092Y-161732726D01*
X194207323Y-161733607D01*
X194185148Y-161734435D01*
X194158092Y-161735212D01*
X194125678Y-161735940D01*
X194087430Y-161736619D01*
X194042871Y-161737251D01*
X193991524Y-161737838D01*
X193932913Y-161738382D01*
X193866562Y-161738883D01*
X193791994Y-161739343D01*
X193708732Y-161739764D01*
X193616299Y-161740147D01*
X193514220Y-161740493D01*
X193402018Y-161740805D01*
X193279216Y-161741083D01*
X193145338Y-161741330D01*
X192999907Y-161741545D01*
X192842446Y-161741732D01*
X192672480Y-161741891D01*
X192489531Y-161742024D01*
X192293123Y-161742133D01*
X192082779Y-161742218D01*
X191858023Y-161742282D01*
X191618379Y-161742326D01*
X191363370Y-161742351D01*
X191092519Y-161742359D01*
X190805349Y-161742351D01*
X190501385Y-161742329D01*
X190180150Y-161742294D01*
X189872176Y-161742252D01*
X189533423Y-161742198D01*
X189212382Y-161742135D01*
X188908586Y-161742064D01*
X188621563Y-161741981D01*
X188350846Y-161741886D01*
X188095966Y-161741776D01*
X187856453Y-161741651D01*
X187631838Y-161741509D01*
X187421652Y-161741349D01*
X187225427Y-161741168D01*
X187042692Y-161740966D01*
X186872979Y-161740741D01*
X186715819Y-161740491D01*
X186570743Y-161740215D01*
X186437281Y-161739911D01*
X186314965Y-161739578D01*
X186203326Y-161739215D01*
X186101894Y-161738819D01*
X186010200Y-161738390D01*
X185927776Y-161737925D01*
X185854151Y-161737424D01*
X185788858Y-161736884D01*
X185731427Y-161736305D01*
X185681388Y-161735685D01*
X185638274Y-161735021D01*
X185601614Y-161734314D01*
X185570940Y-161733561D01*
X185545782Y-161732760D01*
X185525672Y-161731911D01*
X185510141Y-161731011D01*
X185498718Y-161730060D01*
X185490936Y-161729055D01*
X185486737Y-161728129D01*
X185439911Y-161705282D01*
X185403102Y-161674912D01*
X185366265Y-161626337D01*
X185344616Y-161571523D01*
X185338473Y-161513865D01*
X185348157Y-161456758D01*
X185373987Y-161403598D01*
X185377118Y-161399118D01*
X185388409Y-161387865D01*
X185412957Y-161366570D01*
X185449537Y-161336186D01*
X185496921Y-161297660D01*
X185553884Y-161251943D01*
X185619198Y-161199985D01*
X185691637Y-161142736D01*
X185769975Y-161081145D01*
X185852985Y-161016162D01*
X185939440Y-160948736D01*
X186028114Y-160879819D01*
X186117781Y-160810359D01*
X186207214Y-160741306D01*
X186295186Y-160673610D01*
X186380471Y-160608222D01*
X186461843Y-160546090D01*
X186538074Y-160488164D01*
X186607939Y-160435395D01*
X186670211Y-160388731D01*
X186723663Y-160349124D01*
X186767068Y-160317522D01*
X186799201Y-160294876D01*
X186818835Y-160282134D01*
X186821252Y-160280808D01*
X186843200Y-160269915D01*
X186864539Y-160260547D01*
X186886777Y-160252587D01*
X186911420Y-160245920D01*
X186939974Y-160240430D01*
X186973946Y-160236003D01*
X187014842Y-160232523D01*
X187064170Y-160229874D01*
X187123435Y-160227942D01*
X187194144Y-160226611D01*
X187277804Y-160225765D01*
X187375921Y-160225290D01*
X187490001Y-160225069D01*
X187549851Y-160225020D01*
X188078148Y-160224703D01*
X188146729Y-160318170D01*
X188268443Y-160468972D01*
X188403012Y-160607734D01*
X188549197Y-160733665D01*
X188705755Y-160845969D01*
X188871447Y-160943854D01*
X189045031Y-161026525D01*
X189225266Y-161093189D01*
X189410911Y-161143052D01*
X189448826Y-161150988D01*
X189525917Y-161165547D01*
X189593862Y-161176263D01*
X189658228Y-161183658D01*
X189724584Y-161188256D01*
X189798496Y-161190581D01*
X189876099Y-161191163D01*
X190069646Y-161183584D01*
X190254940Y-161160530D01*
X190434004Y-161121528D01*
X190608861Y-161066101D01*
X190781533Y-160993775D01*
X190841663Y-160964464D01*
X191006888Y-160871231D01*
X191164602Y-160762687D01*
X191312721Y-160640592D01*
X191449161Y-160506707D01*
X191571837Y-160362794D01*
X191603882Y-160320333D01*
X191674050Y-160224703D01*
X192202347Y-160225020D01*
G37*
G36*
X188774602Y-155852910D02*
G01*
X188943645Y-155853022D01*
X189127776Y-155853197D01*
X189327678Y-155853418D01*
X189544031Y-155853672D01*
X189777518Y-155853943D01*
X189910370Y-155854090D01*
X192157917Y-155856521D01*
X192217008Y-155876646D01*
X192257691Y-155892716D01*
X192300443Y-155912988D01*
X192326099Y-155927213D01*
X192338310Y-155935821D01*
X192363859Y-155954783D01*
X192401720Y-155983307D01*
X192450866Y-156020602D01*
X192510271Y-156065875D01*
X192578909Y-156118334D01*
X192655753Y-156177188D01*
X192739777Y-156241643D01*
X192829955Y-156310908D01*
X192925260Y-156384192D01*
X193024667Y-156460701D01*
X193127149Y-156539643D01*
X193231679Y-156620228D01*
X193337231Y-156701661D01*
X193442779Y-156783153D01*
X193547297Y-156863909D01*
X193649758Y-156943139D01*
X193749136Y-157020050D01*
X193844405Y-157093850D01*
X193934538Y-157163748D01*
X194018510Y-157228950D01*
X194095293Y-157288665D01*
X194163862Y-157342101D01*
X194223189Y-157388465D01*
X194272250Y-157426967D01*
X194310017Y-157456812D01*
X194335465Y-157477210D01*
X194347386Y-157487201D01*
X194381735Y-157530547D01*
X194403777Y-157583051D01*
X194412655Y-157639877D01*
X194407509Y-157696188D01*
X194392032Y-157738960D01*
X194365590Y-157777916D01*
X194330512Y-157813204D01*
X194292297Y-157839944D01*
X194265379Y-157851320D01*
X194255439Y-157852148D01*
X194231601Y-157852934D01*
X194193678Y-157853679D01*
X194141483Y-157854384D01*
X194074828Y-157855049D01*
X193993525Y-157855674D01*
X193897387Y-157856260D01*
X193786226Y-157856808D01*
X193659855Y-157857317D01*
X193518086Y-157857788D01*
X193360732Y-157858221D01*
X193187605Y-157858617D01*
X192998517Y-157858976D01*
X192793281Y-157859299D01*
X192571710Y-157859586D01*
X192333615Y-157859837D01*
X192078810Y-157860053D01*
X191807107Y-157860234D01*
X191518318Y-157860381D01*
X191212255Y-157860494D01*
X190888732Y-157860573D01*
X190547561Y-157860619D01*
X190188553Y-157860632D01*
X189871554Y-157860617D01*
X189529528Y-157860584D01*
X189205233Y-157860539D01*
X188898214Y-157860481D01*
X188608019Y-157860408D01*
X188334197Y-157860320D01*
X188076294Y-157860216D01*
X187833858Y-157860092D01*
X187606436Y-157859950D01*
X187393577Y-157859786D01*
X187194827Y-157859600D01*
X187009735Y-157859390D01*
X186837847Y-157859156D01*
X186678712Y-157858895D01*
X186531876Y-157858607D01*
X186396887Y-157858290D01*
X186273294Y-157857942D01*
X186160643Y-157857563D01*
X186058481Y-157857152D01*
X185966358Y-157856705D01*
X185883819Y-157856224D01*
X185810413Y-157855705D01*
X185745686Y-157855149D01*
X185689188Y-157854552D01*
X185640464Y-157853915D01*
X185599064Y-157853236D01*
X185564533Y-157852513D01*
X185536420Y-157851745D01*
X185514273Y-157850931D01*
X185497638Y-157850070D01*
X185486064Y-157849160D01*
X185479098Y-157848199D01*
X185477233Y-157847711D01*
X185427416Y-157821076D01*
X185388223Y-157782472D01*
X185360305Y-157735133D01*
X185344312Y-157682292D01*
X185340893Y-157627181D01*
X185350697Y-157573034D01*
X185374376Y-157523083D01*
X185404812Y-157487327D01*
X185415015Y-157479013D01*
X185438781Y-157460276D01*
X185475258Y-157431775D01*
X185523595Y-157394170D01*
X185582939Y-157348118D01*
X185652439Y-157294279D01*
X185731243Y-157233311D01*
X185818499Y-157165873D01*
X185913355Y-157092624D01*
X186014961Y-157014223D01*
X186122463Y-156931329D01*
X186235010Y-156844599D01*
X186351751Y-156754694D01*
X186421552Y-156700964D01*
X186566701Y-156589371D01*
X186702899Y-156484898D01*
X186829670Y-156387903D01*
X186946539Y-156298745D01*
X187053030Y-156217782D01*
X187148667Y-156145375D01*
X187232975Y-156081881D01*
X187305478Y-156027659D01*
X187365701Y-155983069D01*
X187413167Y-155948469D01*
X187447403Y-155924217D01*
X187467931Y-155910674D01*
X187471552Y-155908648D01*
X187482997Y-155902683D01*
X187493168Y-155897147D01*
X187502747Y-155892024D01*
X187512416Y-155887299D01*
X187522857Y-155882956D01*
X187534752Y-155878982D01*
X187548782Y-155875360D01*
X187565629Y-155872074D01*
X187585975Y-155869111D01*
X187610502Y-155866454D01*
X187639891Y-155864089D01*
X187674823Y-155862000D01*
X187715982Y-155860171D01*
X187764048Y-155858588D01*
X187819703Y-155857236D01*
X187883629Y-155856098D01*
X187956508Y-155855160D01*
X188039021Y-155854407D01*
X188131851Y-155853823D01*
X188235678Y-155853394D01*
X188351185Y-155853103D01*
X188479054Y-155852935D01*
X188619966Y-155852876D01*
X188774602Y-155852910D01*
G37*
G36*
X252111000Y-147966000D02*
G01*
X251095000Y-147966000D01*
X251095000Y-146950000D01*
X252111000Y-146950000D01*
X252111000Y-147966000D01*
G37*
X252111000Y-147966000D02*
X251095000Y-147966000D01*
X251095000Y-146950000D01*
X252111000Y-146950000D01*
X252111000Y-147966000D01*
D11*
X249942000Y-128770000D02*
G75*
G03*
X249942000Y-128770000I-125000J0D01*
G01*
X249942000Y-141470000D02*
G75*
G03*
X249942000Y-141470000I-125000J0D01*
G01*
X249942000Y-118610000D02*
G75*
G03*
X249942000Y-118610000I-125000J0D01*
G01*
X249942000Y-116070000D02*
G75*
G03*
X249942000Y-116070000I-125000J0D01*
G01*
X248418000Y-121150000D02*
G75*
G03*
X248418000Y-121150000I-125000J0D01*
G01*
X249942000Y-123690000D02*
G75*
G03*
X249942000Y-123690000I-125000J0D01*
G01*
X248418000Y-128770000D02*
G75*
G03*
X248418000Y-128770000I-125000J0D01*
G01*
X249942000Y-133850000D02*
G75*
G03*
X249942000Y-133850000I-125000J0D01*
G01*
X249942000Y-113530000D02*
G75*
G03*
X249942000Y-113530000I-125000J0D01*
G01*
X248418000Y-123690000D02*
G75*
G03*
X248418000Y-123690000I-125000J0D01*
G01*
X249942000Y-121150000D02*
G75*
G03*
X249942000Y-121150000I-125000J0D01*
G01*
X249942000Y-138930000D02*
G75*
G03*
X249942000Y-138930000I-125000J0D01*
G01*
X248418000Y-126230000D02*
G75*
G03*
X248418000Y-126230000I-125000J0D01*
G01*
X248418000Y-131310000D02*
G75*
G03*
X248418000Y-131310000I-125000J0D01*
G01*
X248418000Y-133850000D02*
G75*
G03*
X248418000Y-133850000I-125000J0D01*
G01*
X248418000Y-113530000D02*
G75*
G03*
X248418000Y-113530000I-125000J0D01*
G01*
X249942000Y-126230000D02*
G75*
G03*
X249942000Y-126230000I-125000J0D01*
G01*
X248418000Y-136390000D02*
G75*
G03*
X248418000Y-136390000I-125000J0D01*
G01*
X248418000Y-118610000D02*
G75*
G03*
X248418000Y-118610000I-125000J0D01*
G01*
X249942000Y-131310000D02*
G75*
G03*
X249942000Y-131310000I-125000J0D01*
G01*
X248418000Y-116070000D02*
G75*
G03*
X248418000Y-116070000I-125000J0D01*
G01*
X248418000Y-138930000D02*
G75*
G03*
X248418000Y-138930000I-125000J0D01*
G01*
X248418000Y-141470000D02*
G75*
G03*
X248418000Y-141470000I-125000J0D01*
G01*
X249942000Y-136390000D02*
G75*
G03*
X249942000Y-136390000I-125000J0D01*
G01*
G36*
X255151000Y-114038000D02*
G01*
X254135000Y-114038000D01*
X254135000Y-113022000D01*
X255151000Y-113022000D01*
X255151000Y-114038000D01*
G37*
D10*
X255151000Y-114038000D02*
X254135000Y-114038000D01*
X254135000Y-113022000D01*
X255151000Y-113022000D01*
X255151000Y-114038000D01*
G36*
X255151000Y-121658000D02*
G01*
X254135000Y-121658000D01*
X254135000Y-120642000D01*
X255151000Y-120642000D01*
X255151000Y-121658000D01*
G37*
X255151000Y-121658000D02*
X254135000Y-121658000D01*
X254135000Y-120642000D01*
X255151000Y-120642000D01*
X255151000Y-121658000D01*
G36*
X255151000Y-141978000D02*
G01*
X254135000Y-141978000D01*
X254135000Y-140962000D01*
X255151000Y-140962000D01*
X255151000Y-141978000D01*
G37*
X255151000Y-141978000D02*
X254135000Y-141978000D01*
X254135000Y-140962000D01*
X255151000Y-140962000D01*
X255151000Y-141978000D01*
G36*
X255151000Y-139438000D02*
G01*
X254135000Y-139438000D01*
X254135000Y-138422000D01*
X255151000Y-138422000D01*
X255151000Y-139438000D01*
G37*
X255151000Y-139438000D02*
X254135000Y-139438000D01*
X254135000Y-138422000D01*
X255151000Y-138422000D01*
X255151000Y-139438000D01*
G36*
X243975000Y-119118000D02*
G01*
X242959000Y-119118000D01*
X242959000Y-118102000D01*
X243975000Y-118102000D01*
X243975000Y-119118000D01*
G37*
X243975000Y-119118000D02*
X242959000Y-119118000D01*
X242959000Y-118102000D01*
X243975000Y-118102000D01*
X243975000Y-119118000D01*
G36*
X255151000Y-136898000D02*
G01*
X254135000Y-136898000D01*
X254135000Y-135882000D01*
X255151000Y-135882000D01*
X255151000Y-136898000D01*
G37*
X255151000Y-136898000D02*
X254135000Y-136898000D01*
X254135000Y-135882000D01*
X255151000Y-135882000D01*
X255151000Y-136898000D01*
G36*
X243975000Y-129278000D02*
G01*
X242959000Y-129278000D01*
X242959000Y-128262000D01*
X243975000Y-128262000D01*
X243975000Y-129278000D01*
G37*
X243975000Y-129278000D02*
X242959000Y-129278000D01*
X242959000Y-128262000D01*
X243975000Y-128262000D01*
X243975000Y-129278000D01*
G36*
X255151000Y-119118000D02*
G01*
X254135000Y-119118000D01*
X254135000Y-118102000D01*
X255151000Y-118102000D01*
X255151000Y-119118000D01*
G37*
X255151000Y-119118000D02*
X254135000Y-119118000D01*
X254135000Y-118102000D01*
X255151000Y-118102000D01*
X255151000Y-119118000D01*
G36*
X243975000Y-141978000D02*
G01*
X242959000Y-141978000D01*
X242959000Y-140962000D01*
X243975000Y-140962000D01*
X243975000Y-141978000D01*
G37*
X243975000Y-141978000D02*
X242959000Y-141978000D01*
X242959000Y-140962000D01*
X243975000Y-140962000D01*
X243975000Y-141978000D01*
G36*
X255151000Y-131818000D02*
G01*
X254135000Y-131818000D01*
X254135000Y-130802000D01*
X255151000Y-130802000D01*
X255151000Y-131818000D01*
G37*
X255151000Y-131818000D02*
X254135000Y-131818000D01*
X254135000Y-130802000D01*
X255151000Y-130802000D01*
X255151000Y-131818000D01*
G36*
X255151000Y-129278000D02*
G01*
X254135000Y-129278000D01*
X254135000Y-128262000D01*
X255151000Y-128262000D01*
X255151000Y-129278000D01*
G37*
X255151000Y-129278000D02*
X254135000Y-129278000D01*
X254135000Y-128262000D01*
X255151000Y-128262000D01*
X255151000Y-129278000D01*
G36*
X243975000Y-114038000D02*
G01*
X242959000Y-114038000D01*
X242959000Y-113022000D01*
X243975000Y-113022000D01*
X243975000Y-114038000D01*
G37*
X243975000Y-114038000D02*
X242959000Y-114038000D01*
X242959000Y-113022000D01*
X243975000Y-113022000D01*
X243975000Y-114038000D01*
G36*
X243975000Y-131818000D02*
G01*
X242959000Y-131818000D01*
X242959000Y-130802000D01*
X243975000Y-130802000D01*
X243975000Y-131818000D01*
G37*
X243975000Y-131818000D02*
X242959000Y-131818000D01*
X242959000Y-130802000D01*
X243975000Y-130802000D01*
X243975000Y-131818000D01*
G36*
X255151000Y-124198000D02*
G01*
X254135000Y-124198000D01*
X254135000Y-123182000D01*
X255151000Y-123182000D01*
X255151000Y-124198000D01*
G37*
X255151000Y-124198000D02*
X254135000Y-124198000D01*
X254135000Y-123182000D01*
X255151000Y-123182000D01*
X255151000Y-124198000D01*
G36*
X255151000Y-126738000D02*
G01*
X254135000Y-126738000D01*
X254135000Y-125722000D01*
X255151000Y-125722000D01*
X255151000Y-126738000D01*
G37*
X255151000Y-126738000D02*
X254135000Y-126738000D01*
X254135000Y-125722000D01*
X255151000Y-125722000D01*
X255151000Y-126738000D01*
G36*
X243975000Y-136898000D02*
G01*
X242959000Y-136898000D01*
X242959000Y-135882000D01*
X243975000Y-135882000D01*
X243975000Y-136898000D01*
G37*
X243975000Y-136898000D02*
X242959000Y-136898000D01*
X242959000Y-135882000D01*
X243975000Y-135882000D01*
X243975000Y-136898000D01*
G36*
X243975000Y-124198000D02*
G01*
X242959000Y-124198000D01*
X242959000Y-123182000D01*
X243975000Y-123182000D01*
X243975000Y-124198000D01*
G37*
X243975000Y-124198000D02*
X242959000Y-124198000D01*
X242959000Y-123182000D01*
X243975000Y-123182000D01*
X243975000Y-124198000D01*
G36*
X243975000Y-134358000D02*
G01*
X242959000Y-134358000D01*
X242959000Y-133342000D01*
X243975000Y-133342000D01*
X243975000Y-134358000D01*
G37*
X243975000Y-134358000D02*
X242959000Y-134358000D01*
X242959000Y-133342000D01*
X243975000Y-133342000D01*
X243975000Y-134358000D01*
G36*
X255151000Y-134358000D02*
G01*
X254135000Y-134358000D01*
X254135000Y-133342000D01*
X255151000Y-133342000D01*
X255151000Y-134358000D01*
G37*
X255151000Y-134358000D02*
X254135000Y-134358000D01*
X254135000Y-133342000D01*
X255151000Y-133342000D01*
X255151000Y-134358000D01*
G36*
X243975000Y-139438000D02*
G01*
X242959000Y-139438000D01*
X242959000Y-138422000D01*
X243975000Y-138422000D01*
X243975000Y-139438000D01*
G37*
X243975000Y-139438000D02*
X242959000Y-139438000D01*
X242959000Y-138422000D01*
X243975000Y-138422000D01*
X243975000Y-139438000D01*
G36*
X255151000Y-116578000D02*
G01*
X254135000Y-116578000D01*
X254135000Y-115562000D01*
X255151000Y-115562000D01*
X255151000Y-116578000D01*
G37*
X255151000Y-116578000D02*
X254135000Y-116578000D01*
X254135000Y-115562000D01*
X255151000Y-115562000D01*
X255151000Y-116578000D01*
G36*
X243975000Y-126738000D02*
G01*
X242959000Y-126738000D01*
X242959000Y-125722000D01*
X243975000Y-125722000D01*
X243975000Y-126738000D01*
G37*
X243975000Y-126738000D02*
X242959000Y-126738000D01*
X242959000Y-125722000D01*
X243975000Y-125722000D01*
X243975000Y-126738000D01*
G36*
X243975000Y-121658000D02*
G01*
X242959000Y-121658000D01*
X242959000Y-120642000D01*
X243975000Y-120642000D01*
X243975000Y-121658000D01*
G37*
X243975000Y-121658000D02*
X242959000Y-121658000D01*
X242959000Y-120642000D01*
X243975000Y-120642000D01*
X243975000Y-121658000D01*
G36*
X243975000Y-116578000D02*
G01*
X242959000Y-116578000D01*
X242959000Y-115562000D01*
X243975000Y-115562000D01*
X243975000Y-116578000D01*
G37*
X243975000Y-116578000D02*
X242959000Y-116578000D01*
X242959000Y-115562000D01*
X243975000Y-115562000D01*
X243975000Y-116578000D01*
G36*
X254651000Y-147966000D02*
G01*
X253635000Y-147966000D01*
X253635000Y-146950000D01*
X254651000Y-146950000D01*
X254651000Y-147966000D01*
G37*
X254651000Y-147966000D02*
X253635000Y-147966000D01*
X253635000Y-146950000D01*
X254651000Y-146950000D01*
X254651000Y-147966000D01*
G36*
X247031000Y-147966000D02*
G01*
X246015000Y-147966000D01*
X246015000Y-146950000D01*
X247031000Y-146950000D01*
X247031000Y-147966000D01*
G37*
X247031000Y-147966000D02*
X246015000Y-147966000D01*
X246015000Y-146950000D01*
X247031000Y-146950000D01*
X247031000Y-147966000D01*
%TD*%
D12*
%TO.C,*%
X240255000Y-149390000D03*
X240255000Y-150890000D03*
%TD*%
D13*
%TO.C,*%
X243983000Y-148220000D03*
D14*
X243983000Y-147204000D03*
%TD*%
D15*
%TO.C,D15*%
X230650000Y-117000000D03*
X227350000Y-117000000D03*
%TD*%
%TO.C,D5*%
X176650000Y-131450000D03*
X173350000Y-131450000D03*
%TD*%
D16*
%TO.C,*%
X162500000Y-156700000D03*
D17*
X157000000Y-150750000D03*
D16*
X151500000Y-156700000D03*
D17*
X162000000Y-152950000D03*
D18*
X157000000Y-156700000D03*
D17*
X152000000Y-152950000D03*
X157000000Y-150750000D03*
D19*
X153725000Y-150750000D03*
X165275000Y-152950000D03*
%TD*%
D16*
%TO.C,*%
X223500000Y-146500000D03*
X234500000Y-146500000D03*
D17*
X229000000Y-140550000D03*
D18*
X229000000Y-146500000D03*
D17*
X224000000Y-142750000D03*
X229000000Y-140550000D03*
X234000000Y-142750000D03*
D19*
X225725000Y-140550000D03*
X237275000Y-142750000D03*
%TD*%
D17*
%TO.C,*%
X224000000Y-125750000D03*
D16*
X234500000Y-129500000D03*
D17*
X229000000Y-123550000D03*
D18*
X229000000Y-129500000D03*
D17*
X229000000Y-123550000D03*
D16*
X223500000Y-129500000D03*
D17*
X234000000Y-125750000D03*
D19*
X225725000Y-123550000D03*
X237275000Y-125750000D03*
%TD*%
D17*
%TO.C,*%
X193000000Y-116750000D03*
D16*
X198500000Y-122700000D03*
X187500000Y-122700000D03*
D17*
X188000000Y-118950000D03*
X193000000Y-116750000D03*
D18*
X193000000Y-122700000D03*
D17*
X198000000Y-118950000D03*
D19*
X189725000Y-116750000D03*
X201275000Y-118950000D03*
%TD*%
D15*
%TO.C,D6*%
X176650000Y-114450000D03*
X173350000Y-114450000D03*
%TD*%
D17*
%TO.C,*%
X198000000Y-101950000D03*
X188000000Y-101950000D03*
X193000000Y-99750000D03*
D16*
X187500000Y-105700000D03*
D17*
X193000000Y-99750000D03*
D16*
X198500000Y-105700000D03*
D18*
X193000000Y-105700000D03*
D19*
X189725000Y-99750000D03*
X201275000Y-101950000D03*
%TD*%
D15*
%TO.C,D2*%
X158650000Y-144200000D03*
X155350000Y-144200000D03*
%TD*%
%TO.C,D14*%
X230650000Y-134000000D03*
X227350000Y-134000000D03*
%TD*%
D13*
%TO.C,*%
X251603000Y-148220000D03*
D14*
X251603000Y-147204000D03*
%TD*%
D17*
%TO.C,*%
X249963566Y-158977715D03*
X246543365Y-168374642D03*
X246186142Y-162923734D03*
X246186142Y-162923734D03*
D18*
X251777313Y-164958754D03*
D16*
X249896202Y-170127063D03*
X253658424Y-159790445D03*
D20*
X245066026Y-166001227D03*
X251083682Y-155900222D03*
%TD*%
D17*
%TO.C,*%
X216000000Y-123200000D03*
X211000000Y-121000000D03*
X211000000Y-121000000D03*
D16*
X216500000Y-126950000D03*
D17*
X206000000Y-123200000D03*
D18*
X211000000Y-126950000D03*
D16*
X205500000Y-126950000D03*
D19*
X207725000Y-121000000D03*
X219275000Y-123200000D03*
%TD*%
D15*
%TO.C,D1*%
X158650000Y-161200000D03*
X155350000Y-161200000D03*
%TD*%
D21*
%TO.C,*%
X256675000Y-123690000D03*
D22*
X243213000Y-138930000D03*
X243213000Y-141470000D03*
X243213000Y-123690000D03*
X243213000Y-113530000D03*
D21*
X256675000Y-128770000D03*
D23*
X254897000Y-131310000D03*
X254897000Y-133850000D03*
D21*
X256675000Y-141470000D03*
X241435000Y-113530000D03*
D23*
X254897000Y-128770000D03*
X254897000Y-118610000D03*
X254897000Y-138930000D03*
D21*
X256675000Y-116070000D03*
D22*
X243213000Y-121150000D03*
X243213000Y-133850000D03*
X243213000Y-131310000D03*
D21*
X256675000Y-126230000D03*
D23*
X254897000Y-121150000D03*
D21*
X241435000Y-141470000D03*
D23*
X254897000Y-113530000D03*
D21*
X241435000Y-126230000D03*
D22*
X243213000Y-136390000D03*
X243213000Y-116070000D03*
D21*
X256675000Y-136390000D03*
X256675000Y-131310000D03*
D23*
X254897000Y-126230000D03*
D21*
X241435000Y-123690000D03*
D23*
X254897000Y-141470000D03*
D21*
X241435000Y-118610000D03*
X241435000Y-116070000D03*
D22*
X243213000Y-118610000D03*
X243213000Y-128770000D03*
X243213000Y-126230000D03*
D21*
X256675000Y-133850000D03*
X241435000Y-121150000D03*
X256675000Y-121150000D03*
X241435000Y-136390000D03*
X256675000Y-138930000D03*
D23*
X254897000Y-116070000D03*
D21*
X241435000Y-133850000D03*
X241435000Y-128770000D03*
D24*
X256675000Y-113530000D03*
D23*
X254897000Y-136390000D03*
D21*
X241435000Y-138930000D03*
X256675000Y-113530000D03*
X256675000Y-118610000D03*
X241435000Y-131310000D03*
D23*
X254897000Y-123690000D03*
D25*
X244229000Y-113530000D03*
X244229000Y-116070000D03*
X244229000Y-118610000D03*
X244229000Y-121150000D03*
X244229000Y-123690000D03*
X244229000Y-126230000D03*
X244229000Y-128770000D03*
X244229000Y-131310000D03*
X244229000Y-133850000D03*
X244229000Y-136390000D03*
X244229000Y-138930000D03*
X244229000Y-141470000D03*
D26*
X253881000Y-141470000D03*
X253881000Y-138930000D03*
X253881000Y-136390000D03*
X253881000Y-133850000D03*
X253881000Y-131310000D03*
X253881000Y-128770000D03*
X253881000Y-126230000D03*
X253881000Y-123690000D03*
X253881000Y-121150000D03*
X253881000Y-118610000D03*
X253881000Y-116070000D03*
X253881000Y-113530000D03*
%TD*%
D15*
%TO.C,D3*%
X158650000Y-127200000D03*
X155350000Y-127200000D03*
%TD*%
D27*
%TO.C,*%
X258220000Y-152550000D03*
X258220000Y-149550000D03*
X258220000Y-149550000D03*
X258220000Y-152550000D03*
D28*
X259320000Y-147400000D03*
X257110000Y-154700000D03*
X257110000Y-147400000D03*
X259320000Y-154700000D03*
D29*
X256460000Y-148800000D03*
X256460000Y-151800000D03*
X256460000Y-153300000D03*
%TD*%
D15*
%TO.C,D11*%
X212650000Y-131450000D03*
X209350000Y-131450000D03*
%TD*%
D30*
%TO.C,*%
X254135000Y-145400000D03*
X251595000Y-145400000D03*
X249055000Y-145400000D03*
X246515000Y-145400000D03*
X243975000Y-145400000D03*
%TD*%
D15*
%TO.C,D8*%
X194650000Y-127200000D03*
X191350000Y-127200000D03*
%TD*%
%TO.C,D4*%
X176650000Y-148450000D03*
X173350000Y-148450000D03*
%TD*%
%TO.C,D7*%
X194650000Y-144200000D03*
X191350000Y-144200000D03*
%TD*%
D18*
%TO.C,*%
X175000000Y-143950000D03*
D17*
X170000000Y-140200000D03*
X175000000Y-138000000D03*
D16*
X180500000Y-143950000D03*
D17*
X180000000Y-140200000D03*
X175000000Y-138000000D03*
D16*
X169500000Y-143950000D03*
D19*
X171725000Y-138000000D03*
X183275000Y-140200000D03*
%TD*%
D15*
%TO.C,D12*%
X212650000Y-114450000D03*
X209350000Y-114450000D03*
%TD*%
%TO.C,D9*%
X194650000Y-110200000D03*
X191350000Y-110200000D03*
%TD*%
D17*
%TO.C,*%
X170000000Y-106200000D03*
X180000000Y-106200000D03*
D16*
X180500000Y-109950000D03*
D17*
X175000000Y-104000000D03*
D16*
X169500000Y-109950000D03*
D17*
X175000000Y-104000000D03*
D18*
X175000000Y-109950000D03*
D19*
X171725000Y-104000000D03*
X183275000Y-106200000D03*
%TD*%
D13*
%TO.C,*%
X254143000Y-148220000D03*
D14*
X254143000Y-147204000D03*
%TD*%
D18*
%TO.C,*%
X157000000Y-122700000D03*
D16*
X162500000Y-122700000D03*
X151500000Y-122700000D03*
D17*
X157000000Y-116750000D03*
X157000000Y-116750000D03*
X162000000Y-118950000D03*
X152000000Y-118950000D03*
D19*
X153725000Y-116750000D03*
X165275000Y-118950000D03*
%TD*%
D15*
%TO.C,D10*%
X212650000Y-148450000D03*
X209350000Y-148450000D03*
%TD*%
D16*
%TO.C,*%
X205500000Y-109950000D03*
D17*
X211000000Y-104000000D03*
X211000000Y-104000000D03*
X216000000Y-106200000D03*
D18*
X211000000Y-109950000D03*
D16*
X216500000Y-109950000D03*
D17*
X206000000Y-106200000D03*
D19*
X207725000Y-104000000D03*
X219275000Y-106200000D03*
%TD*%
D18*
%TO.C,*%
X228972654Y-165737433D03*
D17*
X223972654Y-161987433D03*
D16*
X234472654Y-165737433D03*
D17*
X228972654Y-159787433D03*
D16*
X223472654Y-165737433D03*
D17*
X228972654Y-159787433D03*
X233972654Y-161987433D03*
D19*
X225697654Y-159787433D03*
X237247654Y-161987433D03*
%TD*%
D13*
%TO.C,*%
X246523000Y-148220000D03*
D14*
X246523000Y-147204000D03*
%TD*%
D15*
%TO.C,D13*%
X230650000Y-151000000D03*
X227350000Y-151000000D03*
%TD*%
D16*
%TO.C,*%
X213277164Y-166786903D03*
D17*
X206827514Y-161882362D03*
X202285502Y-164917180D03*
D16*
X202444278Y-168697033D03*
D17*
X206827514Y-161882362D03*
D18*
X207860721Y-167741968D03*
D17*
X212133579Y-163180698D03*
D31*
X203602269Y-162451060D03*
X215358824Y-162612000D03*
%TD*%
D17*
%TO.C,*%
X211000000Y-138000000D03*
D18*
X211000000Y-143950000D03*
D16*
X216500000Y-143950000D03*
D17*
X206000000Y-140200000D03*
X216000000Y-140200000D03*
D16*
X205500000Y-143950000D03*
D17*
X211000000Y-138000000D03*
D19*
X207725000Y-138000000D03*
X219275000Y-140200000D03*
%TD*%
D17*
%TO.C,*%
X157000000Y-133750000D03*
X152000000Y-135950000D03*
X162000000Y-135950000D03*
D18*
X157000000Y-139700000D03*
D16*
X151500000Y-139700000D03*
X162500000Y-139700000D03*
D17*
X157000000Y-133750000D03*
D19*
X153725000Y-133750000D03*
X165275000Y-135950000D03*
%TD*%
D16*
%TO.C,*%
X223500000Y-112500000D03*
D17*
X229000000Y-106550000D03*
X224000000Y-108750000D03*
D18*
X229000000Y-112500000D03*
D16*
X234500000Y-112500000D03*
D17*
X229000000Y-106550000D03*
X234000000Y-108750000D03*
D19*
X225725000Y-106550000D03*
X237275000Y-108750000D03*
%TD*%
D32*
%TO.C,*%
X240155000Y-156490000D03*
X243555000Y-156490000D03*
%TD*%
D17*
%TO.C,*%
X198000000Y-135950000D03*
X193000000Y-133750000D03*
X193000000Y-133750000D03*
X188000000Y-135950000D03*
D18*
X193000000Y-139700000D03*
D16*
X198500000Y-139700000D03*
X187500000Y-139700000D03*
D19*
X189725000Y-133750000D03*
X201275000Y-135950000D03*
%TD*%
D17*
%TO.C,*%
X170000000Y-123200000D03*
D16*
X180500000Y-126950000D03*
D17*
X180000000Y-123200000D03*
X175000000Y-121000000D03*
X175000000Y-121000000D03*
D18*
X175000000Y-126950000D03*
D16*
X169500000Y-126950000D03*
D19*
X171725000Y-121000000D03*
X183275000Y-123200000D03*
%TD*%
M02*
