M48
; DRILL file {KiCad (6.0.9-0)} date Friday, 30 December 2022 at 09:12:07
; FORMAT={-:-/ absolute / inch / decimal}
; #@! TF.CreationDate,2022-12-30T09:12:07+01:00
; #@! TF.GenerationSoftware,Kicad,Pcbnew,(6.0.9-0)
; #@! TF.FileFunction,NonPlated,1,2,NPTH
FMAT,2
INCH
; #@! TA.AperFunction,NonPlated,NPTH,ComponentDrill
T1C0.0354
; #@! TA.AperFunction,NonPlated,NPTH,ComponentDrill
T2C0.0670
; #@! TA.AperFunction,NonPlated,NPTH,ComponentDrill
T3C0.1181
; #@! TA.AperFunction,NonPlated,NPTH,ComponentDrill
T4C0.1350
%
G90
G05
T1
X10.1661Y-5.8878
X10.1661Y-5.8878
X10.1661Y-6.0059
X10.1661Y-6.0059
T2
X5.9646Y-4.8307
X5.9646Y-5.5
X5.9646Y-6.1693
X6.3976Y-4.8307
X6.3976Y-5.5
X6.3976Y-6.1693
X6.6732Y-4.3287
X6.6732Y-4.998
X6.6732Y-5.6673
X7.1063Y-4.3287
X7.1063Y-4.998
X7.1063Y-5.6673
X7.3819Y-4.1614
X7.3819Y-4.8307
X7.3819Y-5.5
X7.815Y-4.1614
X7.815Y-4.8307
X7.815Y-5.5
X7.9702Y-6.6416
X8.0906Y-4.3287
X8.0906Y-4.998
X8.0906Y-5.6673
X8.3967Y-6.5664
X8.5236Y-4.3287
X8.5236Y-4.998
X8.5236Y-5.6673
X8.7981Y-6.5251
X8.7992Y-4.4291
X8.7992Y-5.0984
X8.7992Y-5.7677
X9.2312Y-6.5251
X9.2323Y-4.4291
X9.2323Y-5.0984
X9.2323Y-5.7677
X9.8384Y-6.6979
X9.9866Y-6.291
T3
X5.9843Y-4.6831
X5.9843Y-5.3524
X5.9843Y-6.0217
X6.1811Y-4.5965
X6.1811Y-4.5965
X6.1811Y-5.2657
X6.1811Y-5.2657
X6.1811Y-5.935
X6.1811Y-5.935
X6.378Y-4.6831
X6.378Y-5.3524
X6.378Y-6.0217
X6.6929Y-4.1811
X6.6929Y-4.8504
X6.6929Y-5.5197
X6.8898Y-4.0945
X6.8898Y-4.0945
X6.8898Y-4.7638
X6.8898Y-4.7638
X6.8898Y-5.4331
X6.8898Y-5.4331
X7.0866Y-4.1811
X7.0866Y-4.8504
X7.0866Y-5.5197
X7.4016Y-4.0138
X7.4016Y-4.6831
X7.4016Y-5.3524
X7.5984Y-3.9272
X7.5984Y-3.9272
X7.5984Y-4.5965
X7.5984Y-4.5965
X7.5984Y-5.2657
X7.5984Y-5.2657
X7.7953Y-4.0138
X7.7953Y-4.6831
X7.7953Y-5.3524
X7.964Y-6.4928
X8.1102Y-4.1811
X8.1102Y-4.8504
X8.1102Y-5.5197
X8.1428Y-6.3733
X8.1428Y-6.3733
X8.3071Y-4.0945
X8.3071Y-4.0945
X8.3071Y-4.7638
X8.3071Y-4.7638
X8.3071Y-5.4331
X8.3071Y-5.4331
X8.3517Y-6.4244
X8.5039Y-4.1811
X8.5039Y-4.8504
X8.5039Y-5.5197
X8.8178Y-6.3775
X8.8189Y-4.2815
X8.8189Y-4.9508
X8.8189Y-5.6201
X9.0147Y-6.2908
X9.0147Y-6.2908
X9.0157Y-4.1949
X9.0157Y-4.1949
X9.0157Y-4.8642
X9.0157Y-4.8642
X9.0157Y-5.5335
X9.0157Y-5.5335
X9.2115Y-6.3775
X9.2126Y-4.2815
X9.2126Y-4.9508
X9.2126Y-5.6201
X9.6924Y-6.4143
X9.6924Y-6.4143
X9.7064Y-6.6289
X9.8411Y-6.259
T4
X6.1811Y-4.8307
X6.1811Y-5.5
X6.1811Y-6.1693
X6.8898Y-4.3287
X6.8898Y-4.998
X6.8898Y-5.6673
X7.5984Y-4.1614
X7.5984Y-4.8307
X7.5984Y-5.5
X8.1835Y-6.604
X8.3071Y-4.3287
X8.3071Y-4.998
X8.3071Y-5.6673
X9.0147Y-6.5251
X9.0157Y-4.4291
X9.0157Y-5.0984
X9.0157Y-5.7677
X9.9125Y-6.4944
T0
M30
